<svg width="36" height="36" viewBox="0 0 36 36" fill="none" xmlns="http://www.w3.org/2000/svg">
    <path d="M28.6674 0.429688H6.90258C3.09039 0.429688 0 3.52008 0 7.33227V29.0971C0 32.9093 3.09039 35.9997 6.90258 35.9997H28.6674C32.4796 35.9997 35.57 32.9093 35.57 29.0971V7.33227C35.57 3.52008 32.4796 0.429688 28.6674 0.429688Z" fill="white"/>
    <path d="M31.841 13.0195H3.72437V8.1942C3.72479 7.71781 3.91423 7.26105 4.25109 6.92419C4.58795 6.58733 5.04471 6.39789 5.52111 6.39746H13.0642C13.407 6.39753 13.7435 6.48946 14.0387 6.66369C14.3339 6.83791 14.577 7.08805 14.7428 7.3881L15.4275 8.62801H30.0604C30.5327 8.62801 30.9855 8.81561 31.3195 9.14953C31.6534 9.48345 31.841 9.93634 31.841 10.4086V13.0195Z" fill="#1B6EBE"/>
    <path d="M30.2334 30.0323H5.33793C4.90862 30.0323 4.4969 29.8618 4.19334 29.5582C3.88978 29.2546 3.71924 28.8429 3.71924 28.4136V14.7373H31.852V28.4185C31.8508 28.8469 31.6796 29.2574 31.3762 29.5599C31.0728 29.8624 30.6618 30.0323 30.2334 30.0323Z" fill="#1B6EBE"/>
    <path d="M17.7194 25.2247H15.9664V20.7652L13.9835 24.0155H13.786L11.8031 20.762V25.2214H10.05V17.5537H11.8031L13.8847 20.9611L15.9664 17.5537H17.7194V25.2247Z" fill="white"/>
    <path d="M18.7034 21.3883C18.7034 19.1318 20.3803 17.3998 22.6918 17.3998C23.3464 17.3905 23.9924 17.5493 24.568 17.861C25.1436 18.1728 25.6296 18.6271 25.9794 19.1804L24.4675 20.0577C24.1276 19.4653 23.4704 19.1156 22.687 19.1156C21.3289 19.1156 20.4516 20.0253 20.4516 21.3947C20.4516 22.7641 21.3289 23.6738 22.687 23.6738C23.4655 23.6738 24.1324 23.3226 24.4675 22.7318L25.9794 23.6091C25.6315 24.1643 25.146 24.62 24.5699 24.932C23.9938 25.244 23.3468 25.4017 22.6918 25.3896C20.3803 25.3767 18.7034 23.6463 18.7034 21.3883Z" fill="white"/>
</svg>

