<svg width="1366" height="1024" viewBox="0 0 1366 1024" fill="none" xmlns="http://www.w3.org/2000/svg">
    <g style="mix-blend-mode:multiply" opacity="0.4">
        <path fill-rule="evenodd" clip-rule="evenodd" d="M145.595 436.946C140.709 432.708 137.547 426.833 136.706 420.431L113.366 335.538C112.431 331.596 112.415 327.493 113.322 323.544C114.229 319.595 116.033 315.906 118.596 312.763C121.159 309.62 124.412 307.106 128.103 305.415C131.795 303.723 135.827 302.901 139.888 303.01H183.649C187.655 302.92 191.628 303.737 195.272 305.398C198.915 307.06 202.134 309.522 204.686 312.602C207.238 315.681 209.057 319.297 210.007 323.178C210.958 327.059 211.013 331.104 210.171 335.009L189.749 420.431C188.908 426.833 185.746 432.708 180.86 436.946C175.975 441.184 169.703 443.494 163.227 443.439C156.752 443.494 150.48 441.184 145.595 436.946ZM263.745 414.348H443.033C445.852 414.346 448.644 414.912 451.239 416.011C453.834 417.11 456.18 418.72 458.137 420.745C460.093 422.77 461.619 425.168 462.624 427.795C463.629 430.422 464.092 433.224 463.985 436.034V803.107C463.985 808.648 461.777 813.963 457.848 817.881C453.919 821.799 448.59 824 443.033 824H-116.048C-121.605 824 -126.934 821.799 -130.863 817.881C-134.793 813.963 -137 808.648 -137 803.107V435.241C-137 429.699 -134.793 424.385 -130.863 420.467C-126.934 416.549 -121.605 414.348 -116.048 414.348H49.9789C55.1902 414.419 60.2418 416.151 64.3939 419.292C68.5461 422.433 71.5806 426.817 73.053 431.803C82.3356 460.629 99.5748 489.455 126.097 489.455H191.34C217.281 489.455 228.245 464.507 238.593 440.96C240.941 435.617 243.258 430.346 245.71 425.455C247.409 422.136 249.989 419.344 253.169 417.386C256.349 415.427 260.007 414.376 263.745 414.348ZM122.302 753.65C123.886 752.021 124.772 749.84 124.771 747.57L124.24 718.215C124.254 716.447 123.729 714.716 122.734 713.252C121.74 711.788 120.323 710.66 118.671 710.017C90.951 701.761 67.0754 683.953 51.3051 659.769V652.364C61.1436 643.269 68.4532 631.789 72.5225 619.042C74.7474 617.455 76.6202 615.428 78.0238 613.087C79.4274 610.746 80.3317 608.141 80.6802 605.436C81.0286 602.73 80.8138 599.982 80.0491 597.363C79.2843 594.745 77.9861 592.311 76.2356 590.215V563.769C76.2356 535.472 59.2616 516.166 23.1919 516.166C16.42 514.988 9.4682 515.36 2.86188 517.255C-3.74451 519.149 -9.83252 522.517 -14.942 527.102C-20.0515 531.687 -24.0488 537.371 -26.6318 543.723C-29.2148 550.076 -30.3159 556.93 -29.8517 563.769V590.215C-31.6023 592.311 -32.9005 594.745 -33.6652 597.363C-34.43 599.982 -34.6448 602.73 -34.2964 605.436C-33.9479 608.141 -33.0436 610.746 -31.64 613.087C-30.2364 615.428 -28.3636 617.455 -26.1387 619.042C-22.9062 631.491 -16.6172 642.943 -7.83862 652.364V658.447C-23.6261 682.614 -47.4952 700.418 -75.2041 708.694C-76.8561 709.337 -78.2733 710.466 -79.2679 711.93C-80.2625 713.394 -80.7876 715.124 -80.7737 716.893V747.57C-80.7747 749.84 -79.8892 752.021 -78.3047 753.65C-76.7203 755.279 -74.5616 756.229 -72.2867 756.298H116.284C118.559 756.229 120.717 755.279 122.302 753.65ZM206.723 687.537H363.467C366.741 687.537 369.983 686.894 373.008 685.645C376.032 684.396 378.781 682.565 381.096 680.256C383.411 677.948 385.247 675.207 386.5 672.191C387.753 669.175 388.398 665.943 388.398 662.678C388.398 659.413 387.753 656.181 386.5 653.165C385.247 650.149 383.411 647.408 381.096 645.1C378.781 642.791 376.032 640.96 373.008 639.711C369.983 638.462 366.741 637.819 363.467 637.819H206.723C200.111 637.819 193.77 640.438 189.094 645.1C184.419 649.762 181.792 656.085 181.792 662.678C181.792 669.271 184.419 675.594 189.094 680.256C193.77 684.918 200.111 687.537 206.723 687.537ZM206.723 602.116H363.467C366.741 602.116 369.983 601.473 373.008 600.224C376.032 598.975 378.781 597.143 381.096 594.835C383.411 592.527 385.247 589.786 386.5 586.77C387.753 583.754 388.398 580.521 388.398 577.257C388.398 573.992 387.753 570.759 386.5 567.743C385.247 564.727 383.411 561.987 381.096 559.678C378.781 557.37 376.032 555.539 373.008 554.29C369.983 553.04 366.741 552.397 363.467 552.397H206.723C200.111 552.397 193.77 555.016 189.094 559.678C184.419 564.34 181.792 570.664 181.792 577.257C181.792 583.85 184.419 590.173 189.094 594.835C193.77 599.497 200.111 602.116 206.723 602.116Z" fill="#0C60B0" fill-opacity="0.7"/>
        <path d="M253.5 -70C175.586 -70 113 -7.41364 113 70.5C113 148.414 175.586 211 253.5 211C331.414 211 394 148.414 394 70.5C394 -7.41364 331.414 -70 253.5 -70ZM323.75 140.75C323.75 144.582 321.195 147.136 317.364 147.136H187.082C183.25 147.136 180.695 144.582 180.695 140.75V120.314C180.695 117.759 181.973 115.205 184.527 115.205C211.35 104.986 227.955 104.986 230.509 97.3227V85.8273C203.686 85.8273 193.468 76.8864 193.468 76.8864C206.241 70.5 208.795 25.7955 208.795 25.7955C208.795 1.52728 227.955 -18.9091 252.223 -18.9091C277.768 -18.9091 295.65 2.80454 295.65 25.7955C295.65 25.7955 299.482 69.2227 310.977 75.6091C310.977 75.6091 300.759 84.55 273.936 84.55V96.0455C276.491 103.709 293.095 103.709 319.918 113.927C322.473 115.205 323.75 116.482 323.75 119.036V140.75Z" fill="#0C60B0" fill-opacity="0.5"/>
        <g style="mix-blend-mode:multiply">
            <path d="M351 159C345.067 159 339.266 160.73 334.333 163.972C329.399 167.213 325.554 171.82 323.284 177.211C321.013 182.601 320.419 188.533 321.576 194.255C322.734 199.978 325.591 205.234 329.787 209.36C333.982 213.485 339.328 216.295 345.147 217.433C350.967 218.571 356.999 217.987 362.481 215.754C367.962 213.522 372.648 209.741 375.944 204.889C379.241 200.038 381 194.335 381 188.5C381 180.676 377.839 173.173 372.213 167.64C366.587 162.108 358.956 159 351 159ZM364.827 200.139C364.827 201.32 364.35 202.452 363.501 203.287C362.652 204.122 361.501 204.591 360.3 204.591H341.564C340.387 204.556 339.27 204.072 338.45 203.241C337.63 202.409 337.172 201.297 337.173 200.139V199.361C337.175 199.121 337.252 198.886 337.393 198.69C337.534 198.493 337.733 198.344 337.964 198.262C341.694 197.166 344.904 194.798 347.018 191.584V190.619C345.84 189.366 344.996 187.846 344.564 186.194C344.271 185.98 344.026 185.711 343.841 185.402C343.656 185.094 343.536 184.752 343.488 184.397C343.439 184.042 343.464 183.681 343.56 183.336C343.655 182.99 343.821 182.667 344.045 182.385V178.738C343.987 177.845 344.132 176.95 344.471 176.12C344.809 175.289 345.332 174.543 346.001 173.936C346.67 173.33 347.469 172.878 348.339 172.613C349.208 172.349 350.127 172.279 351.027 172.409C355.882 172.409 358.009 175.091 358.009 178.738V182.385C358.234 182.667 358.399 182.99 358.495 183.336C358.591 183.681 358.615 184.042 358.567 184.397C358.519 184.752 358.399 185.094 358.214 185.402C358.029 185.711 357.783 185.98 357.491 186.194C357.058 187.846 356.215 189.366 355.036 190.619V191.584C357.144 194.793 360.344 197.16 364.064 198.262C364.294 198.344 364.493 198.493 364.634 198.69C364.776 198.886 364.853 199.121 364.855 199.361L364.827 200.139Z" fill="#0C60B0"/>
        </g>
        <path d="M1534.3 250.69C1540.55 250.687 1546.7 249.179 1552.24 246.296C1557.77 243.412 1562.53 239.239 1566.09 234.132C1569.65 229.025 1571.92 223.136 1572.7 216.968C1573.48 210.799 1572.74 204.535 1570.56 198.71C1566.88 188.314 1562.68 178.122 1557.96 168.133C1555.32 162.674 1551.43 157.911 1546.59 154.232C1541.75 150.553 1536.11 148.061 1530.12 146.959C1524.13 145.857 1517.97 146.175 1512.13 147.889C1506.29 149.602 1500.94 152.662 1496.51 156.82C1490.41 162.814 1482.18 166.175 1473.61 166.175C1465.04 166.175 1456.82 162.814 1450.72 156.82L1399.71 107.897C1393.69 101.831 1390.31 93.646 1390.31 85.1177C1390.31 76.5894 1393.69 68.4048 1399.71 62.3381C1403.89 57.9311 1406.96 52.6055 1408.69 46.7939C1410.41 40.9823 1410.73 34.8486 1409.62 28.8908C1408.51 22.933 1406.01 17.3191 1402.31 12.5051C1398.61 7.69112 1393.83 3.81272 1388.34 1.18489C1378.3 -3.50352 1368.06 -7.68232 1357.61 -11.3515C1351.76 -13.5224 1345.46 -14.2514 1339.26 -13.4762C1333.07 -12.701 1327.15 -10.4447 1322.01 -6.89977C1316.88 -3.35489 1312.69 1.37321 1309.79 6.88087C1306.89 12.3885 1305.38 18.5121 1305.37 24.7289C1305.06 33.0064 1301.58 40.8507 1295.63 46.6508C1289.69 52.4509 1281.74 55.7666 1273.42 55.917H1203.35C1194.72 55.917 1186.43 52.5023 1180.32 46.424C1174.21 40.3457 1170.78 32.1018 1170.78 23.5058C1170.78 17.2891 1169.26 11.1655 1166.37 5.65781C1163.47 0.150149 1159.27 -4.57796 1154.14 -8.12284C1149.01 -11.6677 1143.09 -13.9241 1136.89 -14.6993C1130.69 -15.4745 1124.4 -14.7455 1118.54 -12.5746C1108.1 -8.90539 1097.85 -4.72659 1087.81 -0.0381727C1082.33 2.58966 1077.54 6.46805 1073.84 11.282C1070.15 16.096 1067.64 21.7099 1066.54 27.6677C1065.43 33.6255 1065.75 39.7593 1067.47 45.5709C1069.19 51.3825 1072.27 56.708 1076.45 61.1151C1082.47 67.1817 1085.85 75.3663 1085.85 83.8946C1085.85 92.4229 1082.47 100.608 1076.45 106.674L1027.28 157.126C1021.18 163.12 1012.96 166.481 1004.39 166.481C995.816 166.481 987.59 163.12 981.494 157.126C977.065 152.968 971.713 149.908 965.872 148.194C960.032 146.481 953.867 146.163 947.88 147.265C941.892 148.367 936.251 150.859 931.413 154.538C926.575 158.217 922.677 162.98 920.036 168.439C915.325 178.427 911.125 188.62 907.437 199.016C905.256 204.841 904.523 211.105 905.302 217.273C906.081 223.442 908.349 229.331 911.911 234.438C915.474 239.545 920.225 243.718 925.761 246.601C931.296 249.485 937.45 250.993 943.697 250.996C952.336 250.996 960.621 254.411 966.729 260.489C972.838 266.567 976.27 274.811 976.27 283.407V352.816C976.27 361.412 972.838 369.656 966.729 375.734C960.621 381.812 952.336 385.227 943.697 385.227C937.45 385.231 931.296 386.738 925.761 389.622C920.225 392.505 915.474 396.678 911.911 401.785C908.349 406.892 906.081 412.781 905.302 418.95C904.523 425.118 905.256 431.382 907.437 437.207C911.125 447.604 915.325 457.796 920.036 467.784C922.677 473.243 926.575 478.006 931.413 481.685C936.251 485.364 941.892 487.856 947.88 488.958C953.867 490.06 960.032 489.742 965.872 488.029C971.713 486.315 977.065 483.255 981.494 479.097C987.59 473.103 995.816 469.742 1004.39 469.742C1012.96 469.742 1021.18 473.103 1027.28 479.097L1076.75 527.714C1082.78 533.781 1086.15 541.966 1086.15 550.494C1086.15 559.022 1082.78 567.207 1076.75 573.273C1072.57 577.68 1069.5 583.006 1067.78 588.818C1066.06 594.629 1065.73 600.763 1066.84 606.721C1067.95 612.679 1070.45 618.292 1074.15 623.106C1077.85 627.92 1082.64 631.799 1088.12 634.427C1098.16 639.115 1108.4 643.294 1118.85 646.963C1124.71 649.134 1131 649.863 1137.2 649.088C1143.4 648.313 1149.32 646.056 1154.45 642.511C1159.58 638.966 1163.78 634.238 1166.67 628.731C1169.57 623.223 1171.09 617.099 1171.09 610.883C1171.25 602.446 1174.71 594.403 1180.73 588.465C1186.76 582.527 1194.87 579.161 1203.35 579.083H1273.42C1282.05 579.083 1290.34 582.498 1296.45 588.576C1302.56 594.654 1305.99 602.898 1305.99 611.494C1305.99 617.711 1307.51 623.835 1310.4 629.342C1313.3 634.85 1317.5 639.578 1322.63 643.123C1327.76 646.668 1333.68 648.924 1339.88 649.699C1346.08 650.474 1352.37 649.745 1358.23 647.575C1368.68 643.905 1378.92 639.727 1388.96 635.038C1394.44 632.41 1399.23 628.532 1402.93 623.718C1406.62 618.904 1409.13 613.29 1410.24 607.332C1411.34 601.375 1411.02 595.241 1409.3 589.429C1407.58 583.618 1404.5 578.292 1400.33 573.885C1394.3 567.818 1390.92 559.634 1390.92 551.105C1390.92 542.577 1394.3 534.392 1400.33 528.326L1449.8 479.097C1455.9 473.103 1464.12 469.742 1472.69 469.742C1481.26 469.742 1489.49 473.103 1495.58 479.097C1500.01 483.255 1505.37 486.315 1511.21 488.029C1517.05 489.742 1523.21 490.06 1529.2 488.958C1535.19 487.856 1540.83 485.364 1545.67 481.685C1550.5 478.006 1554.4 473.243 1557.04 467.784C1561.75 457.796 1565.95 447.604 1569.64 437.207C1571.82 431.382 1572.55 425.118 1571.78 418.95C1571 412.781 1568.73 406.892 1565.17 401.785C1561.6 396.678 1556.85 392.505 1551.32 389.622C1545.78 386.738 1539.63 385.231 1533.38 385.227C1524.74 385.227 1516.46 381.812 1510.35 375.734C1504.24 369.656 1500.81 361.412 1500.81 352.816V283.101C1500.81 278.767 1501.68 274.476 1503.37 270.482C1505.07 266.489 1507.55 262.875 1510.67 259.853C1513.8 256.831 1517.5 254.463 1521.55 252.889C1525.61 251.315 1529.95 250.567 1534.3 250.69ZM1238.39 450.967C1211.89 450.967 1185.98 443.148 1163.95 428.499C1141.92 413.851 1124.75 393.03 1114.61 368.67C1104.47 344.31 1101.81 317.505 1106.98 291.645C1112.15 265.784 1124.91 242.03 1143.65 223.386C1162.39 204.741 1186.26 192.044 1212.25 186.9C1238.24 181.756 1265.18 184.397 1289.66 194.487C1314.14 204.577 1335.06 221.664 1349.78 243.588C1364.5 265.511 1372.36 291.286 1372.36 317.653C1372.4 335.186 1368.97 352.554 1362.25 368.764C1355.54 384.974 1345.68 399.706 1333.23 412.118C1320.79 424.53 1306 434.377 1289.73 441.096C1273.45 447.814 1256.01 451.273 1238.39 451.273V450.967Z" fill="#0C60B0" fill-opacity="0.3"/>
        <g style="mix-blend-mode:multiply" opacity="0.7">
            <path fill-rule="evenodd" clip-rule="evenodd" d="M830.351 48.7957V-2.17734C830.351 -24.0798 848.221 -42 870.062 -42C891.904 -42 909.774 -24.0798 909.774 -2.17734V48.7957H830.351ZM927.644 100.963L963.384 137.202C978.872 152.733 978.872 177.821 963.384 193.352C947.897 208.883 922.879 208.883 907.391 193.352L871.254 157.113L927.644 100.963ZM843.456 98.1757C843.456 106.753 836.522 113.707 827.968 113.707C819.415 113.707 812.481 106.753 812.481 98.1757C812.481 89.5983 819.415 82.6449 827.968 82.6449C836.522 82.6449 843.456 89.5983 843.456 98.1757ZM796.199 189.37C804.752 189.37 811.686 182.416 811.686 173.839C811.686 165.261 804.752 158.308 796.199 158.308C787.645 158.308 780.712 165.261 780.712 173.839C780.712 182.416 787.645 189.37 796.199 189.37ZM771.975 86.229C771.975 94.8064 765.041 101.76 756.487 101.76C747.934 101.76 741 94.8064 741 86.229C741 77.6515 747.934 70.6981 756.487 70.6981C765.041 70.6981 771.975 77.6515 771.975 86.229Z" fill="#0C60B0"/>
        </g>
        <g style="mix-blend-mode:multiply">
            <path fill-rule="evenodd" clip-rule="evenodd" d="M725.881 835.368C733.884 835.368 740.432 828.816 740.432 820.808V754.56C740.432 746.552 733.884 740 725.881 740C717.878 740 711.329 746.552 711.329 754.56V820.808C711.329 828.816 717.878 835.368 725.881 835.368ZM744.07 878.32H475.599C469.051 878.32 463.23 884.144 463.23 890.696V1029.02C463.23 1035.57 469.051 1041.39 475.599 1041.39H702.599C706.237 1041.39 710.602 1043.58 712.785 1046.49L733.884 1074.88C741.16 1084.34 756.438 1079.98 756.438 1067.6V889.968C756.438 883.416 750.618 878.32 744.07 878.32ZM828.467 749.464C833.56 743.64 843.019 742.184 848.839 747.28C855.387 752.376 856.115 761.84 851.022 767.664L782.631 852.84C779.721 855.752 775.355 857.936 770.99 857.936C768.08 857.936 765.169 857.208 762.259 855.024C755.711 849.928 754.983 841.192 760.076 834.64L828.467 749.464ZM870.666 868.856L808.095 871.04C800.092 871.04 793.544 878.32 794.272 886.328C794.272 894.336 800.82 900.16 808.823 900.16H809.551L872.121 897.976C880.124 897.976 886.672 890.696 885.945 882.688C884.49 874.68 878.669 868.856 870.666 868.856ZM626.205 772.76C632.753 772.76 638.573 778.584 638.573 785.136H637.846V844.832H458.865C445.769 844.832 434.856 855.752 434.856 868.856V942.384H353.369C346.821 942.384 341 936.56 341 930.008V785.136C341 777.856 346.821 772.76 353.369 772.76H626.205Z" fill="#0C60B0" fill-opacity="0.3"/>
        </g>
        <path fill-rule="evenodd" clip-rule="evenodd" d="M1263.76 902.756L1277.5 916.281C1278.83 917.559 1280.54 918.377 1282.37 918.614C1284.21 918.85 1286.07 918.492 1287.69 917.593C1288.26 917.239 1288.94 917.097 1289.61 917.19C1290.28 917.283 1290.89 917.606 1291.35 918.104L1292.48 919.234C1294.1 920.84 1295 923.016 1295 925.285C1295 927.554 1294.1 929.731 1292.48 931.337L1259.51 964.147C1257.9 965.749 1255.71 966.65 1253.43 966.65C1251.15 966.65 1248.96 965.749 1247.35 964.147L1245.85 962.652C1245.36 962.27 1245.01 961.739 1244.85 961.14C1244.69 960.541 1244.73 959.907 1244.97 959.334C1246.01 957.797 1246.51 955.964 1246.4 954.114C1246.3 952.265 1245.59 950.501 1244.38 949.091L1230.79 935.566C1226.44 931.203 1224 925.306 1224 919.161C1224 913.016 1226.44 907.119 1230.79 902.756C1235.17 898.428 1241.1 896 1247.28 896C1253.45 896 1259.38 898.428 1263.76 902.756ZM1268.64 970.98C1267.09 969.956 1265.8 968.591 1264.86 966.99L1281.49 950.439C1283.1 951.372 1284.47 952.66 1285.5 954.203C1286.53 955.746 1287.19 957.504 1287.43 959.341C1287.67 961.178 1287.48 963.045 1286.88 964.799C1286.28 966.552 1285.29 968.145 1283.97 969.455C1282.65 970.765 1281.05 971.757 1279.29 972.354C1277.53 972.951 1275.65 973.138 1273.81 972.9C1271.96 972.661 1270.19 972.005 1268.64 970.98Z" fill="#0C60B0"/>
        <path fill-rule="evenodd" clip-rule="evenodd" d="M1131.41 669.106C1131.41 703.473 1103.29 731.527 1068.85 731.527C1034.41 731.527 1006.29 703.473 1006.29 669.106V574.421C1006.29 540.055 1034.41 512 1068.85 512C1103.29 512 1131.41 540.055 1131.41 574.421V669.106ZM1201.7 643.857C1215.75 643.857 1227 655.078 1227 669.106C1227 747.659 1169.36 812.886 1094.16 824.809V897.751C1094.16 911.778 1082.91 923 1068.85 923C1054.79 923 1043.55 911.778 1043.55 897.751V824.809C967.636 812.886 910 747.659 910 669.106C910 655.078 921.246 643.857 935.304 643.857C949.361 643.857 960.608 655.078 960.608 669.106C960.608 728.722 1008.4 777.116 1068.15 777.116C1127.89 777.116 1176.39 728.722 1176.39 669.106C1176.39 655.078 1187.64 643.857 1201.7 643.857Z" fill="#0C60B0"/>
    </g>
    <path d="M703.416 211H660.584C653.082 211 647 217.082 647 224.584V267.416C647 274.918 653.082 281 660.584 281H703.416C710.918 281 717 274.918 717 267.416V224.584C717 217.082 710.918 211 703.416 211Z" fill="white"/>
    <path d="M706.477 236.953H657.514V228.55C657.515 227.72 657.845 226.925 658.431 226.338C659.018 225.752 659.813 225.422 660.643 225.421H673.779C674.376 225.421 674.962 225.581 675.476 225.885C675.99 226.188 676.413 226.624 676.702 227.146L677.894 229.305H703.377C704.199 229.305 704.988 229.632 705.569 230.214C706.151 230.795 706.477 231.584 706.477 232.406V236.953ZM658.912 235.544H705.068V232.409C705.068 231.96 704.89 231.53 704.572 231.213C704.255 230.896 703.825 230.718 703.377 230.718H677.071L675.47 227.826C675.303 227.523 675.058 227.271 674.761 227.096C674.463 226.92 674.124 226.828 673.779 226.828H660.643C660.187 226.828 659.75 227.01 659.428 227.332C659.106 227.654 658.924 228.091 658.924 228.547L658.912 235.544Z" fill="#1B6EBE"/>
    <path d="M703.678 266.579H660.325C659.577 266.579 658.86 266.282 658.331 265.753C657.803 265.225 657.506 264.508 657.506 263.76V239.944H658.915V263.768C658.915 264.142 659.064 264.501 659.328 264.765C659.592 265.029 659.951 265.178 660.325 265.178H703.678C704.052 265.178 704.411 265.029 704.675 264.765C704.939 264.501 705.088 264.142 705.088 263.768V239.944H706.497V263.768C706.495 264.515 706.197 265.229 705.669 265.756C705.14 266.283 704.424 266.579 703.678 266.579Z" fill="#1B6EBE"/>
    <path d="M681.886 258.207H678.833V250.441L675.38 256.101H675.036L671.583 250.435V258.201H668.53V244.849H671.583L675.208 250.782L678.833 244.849H681.886V258.207Z" fill="#1B6EBE"/>
    <path d="M683.6 251.526C683.6 247.597 686.52 244.581 690.545 244.581C691.685 244.564 692.81 244.841 693.812 245.384C694.815 245.927 695.661 246.718 696.27 247.681L693.637 249.209C693.046 248.178 691.901 247.569 690.537 247.569C688.172 247.569 686.644 249.153 686.644 251.538C686.644 253.922 688.172 255.507 690.537 255.507C691.893 255.507 693.054 254.895 693.637 253.866L696.27 255.394C695.665 256.361 694.819 257.154 693.816 257.698C692.813 258.241 691.686 258.515 690.545 258.495C686.52 258.472 683.6 255.459 683.6 251.526Z" fill="#1B6EBE"/>
</svg>
