<svg width="25" height="25" viewBox="0 0 25 25" fill="none" xmlns="http://www.w3.org/2000/svg">
<path fill-rule="evenodd" clip-rule="evenodd" d="M4.80977 4.00003H20.1906C20.2981 3.99906 20.4045 4.01908 20.5036 4.06009C20.6032 4.10111 20.6936 4.16117 20.7688 4.23783C20.8444 4.314 20.904 4.40482 20.9436 4.50492C20.9831 4.60453 21.0026 4.71146 21.0002 4.81888V20.1993C21.0002 20.3052 20.9792 20.4097 20.9382 20.5078C20.8977 20.6055 20.8376 20.6939 20.7624 20.7686C20.6872 20.8433 20.5979 20.9019 20.4997 20.9414C20.4016 20.9815 20.2966 21.001 20.1906 21H4.80099C4.58858 21 4.38497 20.9156 4.23507 20.7652C4.08468 20.6153 4.0002 20.4117 4.0002 20.1993V4.81888C3.99776 4.71146 4.01729 4.60453 4.05684 4.50492C4.0964 4.40482 4.15597 4.314 4.23165 4.23783C4.30684 4.16117 4.39718 4.10111 4.49679 4.06009C4.59591 4.01908 4.70235 3.99906 4.80977 4.00003ZM18.1389 18.479C18.2316 18.3863 18.2839 18.2603 18.2839 18.1289V15.2945C18.2839 15.1631 18.2316 15.0371 18.1389 14.9444C18.0461 14.8516 17.9201 14.7994 17.7888 14.7994H7.22042C7.1545 14.7959 7.08907 14.8052 7.02706 14.8272C6.96505 14.8496 6.90792 14.8838 6.85958 14.9283C6.81075 14.9727 6.77169 15.0264 6.74386 15.086C6.71651 15.146 6.70089 15.2105 6.69893 15.2764V18.1289C6.69845 18.1963 6.71212 18.2632 6.73897 18.3252C6.76534 18.3868 6.8044 18.4429 6.85323 18.4893C6.90206 18.5352 6.95968 18.5713 7.02266 18.5943C7.08614 18.6177 7.15304 18.628 7.22042 18.6241H17.7888C17.9201 18.6241 18.0461 18.5718 18.1389 18.479ZM18.1389 12.9717C18.2316 12.8789 18.2839 12.753 18.2839 12.6216V6.89798C18.2839 6.76664 18.2316 6.64066 18.1389 6.54789C18.0461 6.45511 17.9201 6.40287 17.7888 6.40287H7.19356C7.06222 6.40287 6.93624 6.45511 6.84347 6.54789C6.75069 6.64066 6.69893 6.76664 6.69893 6.89798V12.6216C6.69845 12.689 6.71212 12.7554 6.73897 12.8174C6.76534 12.8794 6.8044 12.9351 6.85323 12.9815C6.90206 13.0279 6.95968 13.0635 7.02266 13.0869C7.08614 13.1099 7.15304 13.1202 7.22042 13.1167H17.7888C17.9201 13.1167 18.0461 13.0645 18.1389 12.9717ZM10.3772 8.0015H14.5847C14.6604 7.99417 14.736 8.01371 14.802 8.05814C14.8684 8.10208 14.9221 8.16898 14.9572 8.25003C14.9919 8.3306 15.0061 8.4224 14.9978 8.51273C14.99 8.60355 14.9597 8.689 14.9113 8.75931L13.862 10.5694C13.4377 10.8516 12.9602 11 12.4753 11C11.9899 11 11.5129 10.8516 11.0881 10.5694L10.0627 8.71732C10.0251 8.64798 10.0036 8.5679 10.0007 8.48539C9.99727 8.40287 10.0129 8.32083 10.0451 8.24759C10.0769 8.17484 10.1247 8.11332 10.1833 8.07035C10.2414 8.02689 10.3088 8.00296 10.3772 8.0015Z" fill="#333333"/>
</svg>
