<?xml version="1.0" encoding="UTF-8" standalone="no"?>
<svg
   xmlns:dc="http://purl.org/dc/elements/1.1/"
   xmlns:cc="http://creativecommons.org/ns#"
   xmlns:rdf="http://www.w3.org/1999/02/22-rdf-syntax-ns#"
   xmlns:svg="http://www.w3.org/2000/svg"
   xmlns="http://www.w3.org/2000/svg"
   xmlns:sodipodi="http://sodipodi.sourceforge.net/DTD/sodipodi-0.dtd"
   xmlns:inkscape="http://www.inkscape.org/namespaces/inkscape"
   width="30"
   height="30"
   viewBox="0 0 30 30"
   fill="none"
   id="svg2"
   version="1.1"
   inkscape:version="0.91 r13725"
   sodipodi:docname="arrow-right-alt.svg">
  <metadata
     id="metadata12">
    <rdf:RDF>
      <cc:Work
         rdf:about="">
        <dc:format>image/svg+xml</dc:format>
        <dc:type
           rdf:resource="http://purl.org/dc/dcmitype/StillImage" />
        <dc:title></dc:title>
      </cc:Work>
    </rdf:RDF>
  </metadata>
  <defs
     id="defs10" />
  <sodipodi:namedview
     pagecolor="#ffffff"
     bordercolor="#666666"
     borderopacity="1"
     objecttolerance="10"
     gridtolerance="10"
     guidetolerance="10"
     inkscape:pageopacity="0"
     inkscape:pageshadow="2"
     inkscape:window-width="1317"
     inkscape:window-height="744"
     id="namedview8"
     showgrid="false"
     inkscape:zoom="5.5625733"
     inkscape:cx="6.2059129"
     inkscape:cy="18.002239"
     inkscape:window-x="49"
     inkscape:window-y="24"
     inkscape:window-maximized="1"
     inkscape:current-layer="svg2" />
  <path
     style="fill:#333333;fill-opacity:1"
     d="M 15 0 A 15 15 0 0 0 0 15 A 15 15 0 0 0 15 30 A 15 15 0 0 0 30 15 A 15 15 0 0 0 15 0 z M 16.019531 8.5 C 16.275456 8.5 16.533266 8.5977087 16.728516 8.7929688 L 22.228516 14.292969 C 22.619016 14.683469 22.619016 15.316531 22.228516 15.707031 L 16.728516 21.207031 C 16.338016 21.597531 15.703 21.597531 15.3125 21.207031 C 14.922 20.816531 14.922 20.183469 15.3125 19.792969 L 19.105469 16 L 8.4804688 16 C 7.9281888 16 7.4804688 15.5523 7.4804688 15 C 7.4804687 14.4477 7.9281888 14 8.4804688 14 L 19.105469 14 L 15.3125 10.207031 C 14.922 9.8165113 14.922 9.1834988 15.3125 8.7929688 C 15.50775 8.5977088 15.763606 8.5 16.019531 8.5 z "
     id="circle4" />
</svg>
