<?xml version="1.0" encoding="UTF-8" standalone="no"?>
<svg
   xmlns:dc="http://purl.org/dc/elements/1.1/"
   xmlns:cc="http://creativecommons.org/ns#"
   xmlns:rdf="http://www.w3.org/1999/02/22-rdf-syntax-ns#"
   xmlns:svg="http://www.w3.org/2000/svg"
   xmlns="http://www.w3.org/2000/svg"
   xmlns:sodipodi="http://sodipodi.sourceforge.net/DTD/sodipodi-0.dtd"
   xmlns:inkscape="http://www.inkscape.org/namespaces/inkscape"
   width="18"
   height="20"
   viewBox="0 0 18 20"
   fill="none"
   version="1.1"
   id="svg22"
   sodipodi:docname="arrow-circle.svg"
   inkscape:version="1.0.1 (3bc2e813f5, 2020-09-07)">
  <metadata
     id="metadata28">
    <rdf:RDF>
      <cc:Work
         rdf:about="">
        <dc:format>image/svg+xml</dc:format>
        <dc:type
           rdf:resource="http://purl.org/dc/dcmitype/StillImage" />
      </cc:Work>
    </rdf:RDF>
  </metadata>
  <defs
     id="defs26" />
  <sodipodi:namedview
     pagecolor="#ffffff"
     bordercolor="#666666"
     borderopacity="1"
     objecttolerance="10"
     gridtolerance="10"
     guidetolerance="10"
     inkscape:pageopacity="0"
     inkscape:pageshadow="2"
     inkscape:window-width="1920"
     inkscape:window-height="1017"
     id="namedview24"
     showgrid="false"
     inkscape:zoom="42.5"
     inkscape:cx="9"
     inkscape:cy="8.1176471"
     inkscape:window-x="-8"
     inkscape:window-y="-8"
     inkscape:window-maximized="1"
     inkscape:current-layer="svg22" />
  <path
     fill-rule="evenodd"
     clip-rule="evenodd"
     d="M 9,4.9929412 V 2.8470588 l 3.237473,2.487514 c 0.113692,0.087344 0.180828,0.2260902 0.180828,0.3736553 0,0.1475581 -0.06714,0.2863108 -0.180828,0.3736554 L 9,8.5694118 V 6.4235294 c -2.6852597,0 -4.7856209,2.1243949 -4.7856209,4.6494116 0,2.524988 2.1003612,4.649412 4.7856209,4.649412 0.7520945,0 1.461802,-0.180969 2.093299,-0.502995 l 0.599023,1.286027 C 10.878288,16.920399 9.9640975,17.152941 9,17.152941 c -3.355944,0 -6.1529413,-2.679349 -6.1529411,-6.08 C 2.847059,7.6722613 5.644056,4.9929412 9,4.9929412 Z m 4.43798,7.5998568 c 0.223967,-0.578887 0.347641,-1.212209 0.347641,-1.877504 h 1.367321 c 0,0.852416 -0.158679,1.66778 -0.447525,2.414261 z m -1.647963,2.191089 c 0.574206,-0.431823 1.053247,-0.993472 1.397811,-1.643174 l 1.195585,0.694122 c -0.443011,0.83532 -1.058169,1.556194 -1.795222,2.11069 z"
     fill="#333333"
     id="path20"
     style="stroke-width:0.699298" />
</svg>
