<svg width="30" height="30" viewBox="0 0 30 30" fill="none" xmlns="http://www.w3.org/2000/svg">
<circle cx="15" cy="15" r="15" transform="rotate(-180 15 15)" fill="#73CDFE"/>
<path fill-rule="evenodd" clip-rule="evenodd" d="M16.7276 8.79289C16.3371 8.40237 15.7039 8.40237 15.3134 8.79289C14.9229 9.18342 14.9229 9.81658 15.3134 10.2071L19.1063 14L8.47956 14C7.92728 14 7.47956 14.4477 7.47956 15C7.47956 15.5523 7.92728 16 8.47956 16L19.1063 16L15.3134 19.7929C14.9229 20.1834 14.9229 20.8166 15.3134 21.2071C15.7039 21.5976 16.3371 21.5976 16.7276 21.2071L22.2276 15.7071C22.6181 15.3166 22.6181 14.6834 22.2276 14.2929L16.7276 8.79289Z" fill="white"/>
</svg>