<svg width="25" height="25" viewBox="0 0 25 25" fill="none" xmlns="http://www.w3.org/2000/svg">
<path fill-rule="evenodd" clip-rule="evenodd" d="M16.0161 4.94686V3.38933C16.0161 3.11448 16.3813 2.93124 16.564 3.02286L19.0295 5.22172C19.3035 5.40495 19.3035 5.86305 19.0295 6.04629L16.564 8.24515C16.29 8.42839 15.9248 8.24515 15.9248 7.97029V6.41277H12.7287C12.3634 6.41277 11.9982 6.13791 11.9982 5.67981C11.9982 5.22172 12.3634 4.94686 12.7287 4.94686H16.0161ZM4.01525 4.49183C3.91788 4.10236 4.30737 3.81027 4.59948 3.90763L8.49437 4.68656C8.68911 4.68656 8.88385 4.88129 8.88385 5.07602C8.91926 5.32386 8.95467 5.5202 8.99008 5.71654C9.05204 6.06014 9.11401 6.40373 9.17597 7.02333L8.00751 9.16538C8.59174 10.4311 9.37071 11.5995 10.3444 12.5732C11.3182 13.5468 12.4866 14.3258 13.7525 14.9099L15.992 13.8389C16.6493 13.985 17.1422 14.131 17.6352 14.2771C17.7995 14.3258 17.9638 14.3744 18.1342 14.4231C18.1572 14.4461 18.1856 14.4691 18.2156 14.4934C18.3127 14.5719 18.4263 14.6638 18.4263 14.8126L19.1079 18.4151C19.1079 18.7072 18.8158 18.9993 18.5237 18.9993C14.8236 18.9019 11.2208 17.4415 8.39699 14.6179C5.67058 11.7942 4.11262 8.19172 4.01525 4.49183Z" fill="black"/>
</svg>
