<svg width="25" height="25" viewBox="0 0 25 25" fill="none" xmlns="http://www.w3.org/2000/svg">
<path fill-rule="evenodd" clip-rule="evenodd" d="M15.7702 7.31862V13.6372H9.33849C5.88961 13.6372 3 10.8496 3 7.31862C3 3.88055 5.88961 1 9.4317 1C12.8806 1 15.7702 3.78763 15.7702 7.31862ZM9.99098 4.80976C9.99098 4.43807 9.71134 4.06639 9.24528 4.06639C8.87243 4.06639 8.49957 4.43807 8.49957 4.80976C8.49957 5.18144 8.77921 5.55313 9.24528 5.55313C9.61813 5.55313 9.99098 5.27436 9.99098 4.80976ZM8.686 7.78323V9.36288C8.686 10.385 9.61813 11.3142 10.7367 11.3142H11.3892V10.1992H10.6435C10.1774 10.1992 9.80456 9.82749 9.80456 9.36288V5.83189L7.2878 7.2257L7.84708 8.24783L8.686 7.78323ZM18.1011 5.36714V7.22556V19.584C18.1011 19.8628 17.8214 20.1416 17.5418 20.1416H10.3644C10.0847 20.1416 9.80511 19.8628 9.80511 19.584V16.4247H7.94084V19.584C7.94084 20.8849 9.0594 22 10.3644 22H17.5418C18.8468 22 19.9653 20.8849 19.9653 19.584V5.36714H18.1011ZM12.694 17.7258C12.694 18.4692 13.2533 19.0267 13.999 19.0267C14.7447 19.0267 15.304 18.4692 15.304 17.7258C15.304 16.9825 14.7447 16.425 13.999 16.425C13.2533 16.425 12.694 17.0754 12.694 17.7258Z" fill="#333333"/>
</svg>
