<svg width="25" height="25" viewBox="0 0 25 25" fill="none" xmlns="http://www.w3.org/2000/svg">
<path fill-rule="evenodd" clip-rule="evenodd" d="M7.29073 6.34262C7.17801 6.34262 7.06529 6.34262 7.06529 6.45451L5.93809 12.6082L4.58545 12.3844L5.71265 6.23074C5.93809 5.55943 6.50169 5 7.29073 5H17.3228C17.9991 5 18.6754 5.55943 18.7882 6.23074L20.0281 12.3844L18.6754 12.6082L17.5482 6.45451C17.4919 6.45451 17.4637 6.42654 17.4355 6.39857C17.4073 6.3706 17.3792 6.34262 17.3228 6.34262H7.29073ZM8.19222 8.02084H16.3081V9.36347H8.19222V8.02084ZM7.96722 12.0489H12.2506H16.5339V10.7062H12.2506H7.96722V12.0489ZM4.58522 14.2865H20.0278C20.366 14.2865 20.5914 14.6221 20.4787 14.9578L18.7879 20.6639C18.6752 20.8877 18.4498 20.9996 18.2243 20.9996H6.27602C6.05058 20.9996 5.82514 20.8877 5.71242 20.6639L4.02162 14.9578C3.9089 14.6221 4.24706 14.2865 4.58522 14.2865ZM10.2212 16.9717H13.941L14.3919 15.9647H9.77034L10.2212 16.9717Z" fill="black"/>
</svg>
