<?xml version="1.0" encoding="UTF-8" standalone="no"?>
<svg
   xmlns:dc="http://purl.org/dc/elements/1.1/"
   xmlns:cc="http://creativecommons.org/ns#"
   xmlns:rdf="http://www.w3.org/1999/02/22-rdf-syntax-ns#"
   xmlns:svg="http://www.w3.org/2000/svg"
   xmlns="http://www.w3.org/2000/svg"
   xmlns:sodipodi="http://sodipodi.sourceforge.net/DTD/sodipodi-0.dtd"
   xmlns:inkscape="http://www.inkscape.org/namespaces/inkscape"
   width="22"
   height="22"
   viewBox="0 0 22 22"
   fill="none"
   id="svg2"
   version="1.1"
   inkscape:version="0.91 r13725"
   sodipodi:docname="check.svg">
  <metadata
     id="metadata10">
    <rdf:RDF>
      <cc:Work
         rdf:about="">
        <dc:format>image/svg+xml</dc:format>
        <dc:type
           rdf:resource="http://purl.org/dc/dcmitype/StillImage" />
        <dc:title></dc:title>
      </cc:Work>
    </rdf:RDF>
  </metadata>
  <defs
     id="defs8" />
  <sodipodi:namedview
     pagecolor="#ffffff"
     bordercolor="#666666"
     borderopacity="1"
     objecttolerance="10"
     gridtolerance="10"
     guidetolerance="10"
     inkscape:pageopacity="0"
     inkscape:pageshadow="2"
     inkscape:window-width="1317"
     inkscape:window-height="744"
     id="namedview6"
     showgrid="false"
     inkscape:zoom="5.3636364"
     inkscape:cx="33.514669"
     inkscape:cy="-4.6209244"
     inkscape:window-x="49"
     inkscape:window-y="24"
     inkscape:window-maximized="1"
     inkscape:current-layer="svg2" />
  <path
     d="M 20.146225,17.111308 C 21.35485,15.30236 22,13.175512 22,10.999989 22,8.0826137 20.841012,5.284725 18.778237,3.2218282 16.715325,1.1589177 13.917337,6.416019e-8 11,6.416019e-8 8.8244055,6.416019e-8 6.6976654,0.6451357 4.8887292,1.8538284 3.0797928,3.062521 1.6698953,4.7804855 0.8373328,6.7904724 0.00477028,8.8004592 -0.21307097,11.012226 0.21136403,13.14595 c 0.42443501,2.13386 1.47208877,4.093784 3.01046637,5.63227 1.5383775,1.538347 3.4983851,2.58596 5.6321788,3.010421 2.1337528,0.424462 4.3455778,0.206526 6.3555528,-0.626036 2.009975,-0.832563 3.727901,-2.242348 4.936663,-4.051297 z M 8.8414829,15.07411 c 0.2082026,0.208175 0.4905864,0.32505 0.7850288,0.32505 0.2943871,0 0.5768133,-0.116875 0.7849883,-0.32505 L 16.836462,8.4821745 C 17.260099,8.047455 17.2557,7.3528881 16.826425,6.923641 16.3889,6.4860477 15.677749,6.4911626 15.24655,6.9349985 L 9.6265117,12.719013 6.7558005,9.8482908 c -0.4335513,-0.4334959 -1.1364788,-0.4334959 -1.5700301,0 -0.4335512,0.4335362 -0.4335512,1.1365732 0,1.5701102 l 3.6557125,3.655709 z"
     id="path4"
     inkscape:connector-curvature="0"
     style="clip-rule:evenodd;fill:#b7b308;fill-rule:evenodd" />
</svg>
