<svg width="20" height="20" viewBox="0 0 20 20" fill="none" xmlns="http://www.w3.org/2000/svg">
<path fill-rule="evenodd" clip-rule="evenodd" d="M18.3147 15.5557C19.4135 13.9112 20 11.9778 20 10C20 7.34783 18.9464 4.8043 17.0711 2.92893C15.1957 1.05357 12.6522 0 10 0C8.02219 0 6.08879 0.586489 4.4443 1.6853C2.79981 2.78412 1.51809 4.3459 0.761209 6.17316C0.00433285 8.00042 -0.1937 10.0111 0.192152 11.9509C0.578004 13.8907 1.53041 15.6725 2.92894 17.0711C4.32746 18.4696 6.10929 19.422 8.0491 19.8078C9.98891 20.1937 11.9996 19.9957 13.8268 19.2388C15.6541 18.4819 17.2159 17.2002 18.3147 15.5557ZM15.6217 8.71511C15.5223 8.76714 15.4118 8.79435 15.2996 8.79441C15.2215 8.79219 15.1436 8.80569 15.0707 8.83408C14.9979 8.86248 14.9314 8.90521 14.8753 8.95975C14.8193 9.01428 14.7747 9.0795 14.7443 9.15156C14.7138 9.22362 14.6982 9.30105 14.6982 9.37927V10.6373C14.6982 10.7924 14.7598 10.9412 14.8695 11.0508C14.9792 11.1605 15.128 11.2221 15.2831 11.2221C15.3953 11.2222 15.5058 11.2494 15.6052 11.3014C15.7045 11.3535 15.7899 11.4288 15.8538 11.5209C15.9178 11.6131 15.9585 11.7194 15.9725 11.8307C15.9865 11.942 15.9733 12.055 15.9342 12.1601C15.8679 12.3477 15.7925 12.5317 15.7079 12.7119C15.6605 12.8104 15.5905 12.8964 15.5037 12.9627C15.4168 13.0291 15.3155 13.0741 15.208 13.094C15.1005 13.1139 14.9898 13.1081 14.8849 13.0772C14.78 13.0463 14.6839 12.9911 14.6044 12.916C14.4949 12.8079 14.3473 12.7472 14.1934 12.7472C14.0395 12.7472 13.8918 12.8079 13.7823 12.916L12.894 13.8044C12.7858 13.9138 12.7252 14.0615 12.7252 14.2154C12.7252 14.3693 12.7858 14.517 12.894 14.6265C12.969 14.706 13.0242 14.8021 13.0551 14.907C13.0861 15.0119 13.0918 15.1225 13.0719 15.2301C13.052 15.3376 13.0071 15.4389 12.9407 15.5257C12.8743 15.6126 12.7883 15.6826 12.6898 15.73C12.5096 15.8146 12.3257 15.89 12.1381 15.9562C12.0329 15.9954 11.9199 16.0086 11.8086 15.9946C11.6973 15.9806 11.591 15.9399 11.4989 15.8759C11.4067 15.8119 11.3314 15.7266 11.2794 15.6272C11.2273 15.5278 11.2001 15.4173 11.2001 15.3052C11.2001 15.15 11.1385 15.0013 11.0288 14.8916C10.9191 14.7819 10.7703 14.7203 10.6152 14.7203H9.3572C9.20493 14.7217 9.05922 14.7824 8.95104 14.8896C8.84285 14.9968 8.78072 15.1419 8.77785 15.2941C8.77779 15.4063 8.75059 15.5168 8.69856 15.6162C8.64653 15.7156 8.57122 15.8009 8.47906 15.8649C8.3869 15.9288 8.28063 15.9695 8.16933 15.9835C8.05802 15.9975 7.94498 15.9844 7.83986 15.9452C7.65227 15.879 7.46835 15.8036 7.28811 15.719C7.18959 15.6716 7.10365 15.6016 7.03726 15.5147C6.97087 15.4278 6.9259 15.3265 6.90602 15.219C6.88613 15.1115 6.89187 15.0008 6.92279 14.896C6.95371 14.7911 7.00893 14.695 7.08396 14.6155C7.19212 14.506 7.25277 14.3583 7.25277 14.2044C7.25277 14.0505 7.19212 13.9028 7.08396 13.7933L6.19562 12.916C6.08615 12.8079 5.93846 12.7472 5.78456 12.7472C5.63067 12.7472 5.48298 12.8079 5.3735 12.916C5.29398 12.9911 5.19788 13.0463 5.09301 13.0772C4.98814 13.1081 4.87745 13.1139 4.76994 13.094C4.66243 13.0741 4.56113 13.0291 4.47426 12.9627C4.38739 12.8964 4.31741 12.8104 4.26999 12.7119C4.18538 12.5317 4.10998 12.3477 4.04377 12.1601C4.00459 12.055 3.99144 11.942 4.00543 11.8307C4.01941 11.7194 4.06013 11.6131 4.1241 11.5209C4.18807 11.4288 4.27339 11.3535 4.37277 11.3014C4.47216 11.2494 4.58266 11.2222 4.69484 11.2221C4.84996 11.2221 4.99872 11.1605 5.1084 11.0508C5.21809 10.9412 5.27971 10.7924 5.27971 10.6373V9.38479C5.27971 9.22967 5.21809 9.08091 5.1084 8.97123C4.99872 8.86154 4.84996 8.79992 4.69484 8.79992C4.58266 8.79986 4.47216 8.77266 4.37277 8.72063C4.27339 8.6686 4.18807 8.59329 4.1241 8.50113C4.06013 8.40897 4.01941 8.30271 4.00543 8.1914C3.99144 8.08009 4.00459 7.96705 4.04377 7.86194C4.10998 7.67434 4.18538 7.49042 4.26999 7.31018C4.31741 7.21166 4.38739 7.12572 4.47426 7.05933C4.56113 6.99294 4.66243 6.94798 4.76994 6.92809C4.87745 6.9082 4.98814 6.91394 5.09301 6.94486C5.19788 6.97578 5.29398 7.031 5.3735 7.10603C5.48298 7.21419 5.63067 7.27484 5.78456 7.27484C5.93846 7.27484 6.08615 7.21419 6.19562 7.10603L7.07844 6.19562C7.1866 6.08615 7.24725 5.93846 7.24725 5.78456C7.24725 5.63067 7.1866 5.48298 7.07844 5.3735C7.00341 5.29398 6.94819 5.19788 6.91727 5.09301C6.88636 4.98814 6.88061 4.87745 6.9005 4.76994C6.92039 4.66243 6.96535 4.56113 7.03174 4.47426C7.09813 4.38739 7.18407 4.31741 7.28259 4.26999C7.46283 4.18538 7.64675 4.10998 7.83435 4.04377C7.93947 4.00459 8.0525 3.99144 8.16381 4.00543C8.27512 4.01941 8.38139 4.06013 8.47354 4.1241C8.5657 4.18807 8.64101 4.27339 8.69304 4.37277C8.74507 4.47216 8.77228 4.58266 8.77234 4.69484C8.77234 4.84996 8.83396 4.99872 8.94364 5.1084C9.05332 5.21809 9.20208 5.27971 9.3572 5.27971H10.6152C10.7647 5.27699 10.9074 5.21716 11.0141 5.11249C11.1208 5.00783 11.1834 4.86628 11.189 4.71691C11.1891 4.60473 11.2163 4.49423 11.2683 4.39484C11.3204 4.29546 11.3957 4.21014 11.4878 4.14617C11.58 4.0822 11.6863 4.04149 11.7976 4.0275C11.9089 4.01351 12.0219 4.02666 12.127 4.06584C12.3146 4.13205 12.4985 4.20746 12.6788 4.29206C12.7773 4.33948 12.8632 4.40946 12.9296 4.49633C12.996 4.5832 13.041 4.6845 13.0609 4.79201C13.0808 4.89952 13.075 5.01021 13.0441 5.11508C13.0132 5.21995 12.958 5.31605 12.8829 5.39558C12.7748 5.50505 12.7141 5.65274 12.7141 5.80663C12.7141 5.96053 12.7748 6.10822 12.8829 6.2177L13.7989 7.10051C13.9083 7.20867 14.056 7.26933 14.2099 7.26933C14.3638 7.26933 14.5115 7.20867 14.621 7.10051C14.7005 7.02548 14.7966 6.97026 14.9015 6.93934C15.0063 6.90843 15.117 6.90268 15.2245 6.92257C15.332 6.94246 15.4333 6.98742 15.5202 7.05381C15.6071 7.1202 15.6771 7.20614 15.7245 7.30466C15.8091 7.4849 15.8845 7.66882 15.9507 7.85642C15.9899 7.96154 16.003 8.07458 15.9891 8.18588C15.9751 8.29719 15.9343 8.40346 15.8704 8.49561C15.8064 8.58777 15.7211 8.66308 15.6217 8.71511ZM8.64969 12.003C9.0453 12.2673 9.51041 12.4084 9.9862 12.4084V12.4139C10.3026 12.4139 10.6159 12.3515 10.9081 12.2303C11.2003 12.1091 11.4658 11.9314 11.6892 11.7074C11.9127 11.4834 12.0898 11.2176 12.2103 10.9251C12.3309 10.6326 12.3926 10.3191 12.3919 10.0028C12.3919 9.52696 12.2508 9.06185 11.9864 8.66624C11.7221 8.27063 11.3464 7.96229 10.9068 7.78021C10.4672 7.59813 9.98354 7.55049 9.51688 7.64332C9.05023 7.73614 8.62158 7.96526 8.28514 8.30169C7.9487 8.63813 7.71959 9.06678 7.62676 9.53344C7.53394 10.0001 7.58158 10.4838 7.76366 10.9234C7.94574 11.3629 8.25408 11.7387 8.64969 12.003Z" fill="#1B6EBE"/>
</svg>
