<svg width="25" height="25" viewBox="0 0 25 25" fill="none" xmlns="http://www.w3.org/2000/svg">
<path d="M21.7744 10.3902C21.9707 10.3901 22.1641 10.3425 22.338 10.2514C22.5119 10.1604 22.6612 10.0286 22.7732 9.86732C22.8851 9.70605 22.9564 9.52008 22.9808 9.32529C23.0053 9.13051 22.9823 8.93269 22.9138 8.74873C22.7979 8.42044 22.6659 8.09858 22.5179 7.78315C22.4349 7.61075 22.3124 7.46035 22.1604 7.34417C22.0084 7.22799 21.8311 7.1493 21.6429 7.1145C21.4548 7.07969 21.2611 7.08975 21.0776 7.14385C20.8941 7.19796 20.7259 7.29459 20.5867 7.42589C20.3951 7.61517 20.1367 7.72132 19.8674 7.72132C19.598 7.72132 19.3396 7.61517 19.148 7.42589L17.5451 5.88097C17.3559 5.68939 17.2497 5.43093 17.2497 5.16161C17.2497 4.8923 17.3559 4.63384 17.5451 4.44226C17.6764 4.30309 17.7731 4.13491 17.8272 3.95139C17.8813 3.76786 17.8913 3.57417 17.8565 3.38602C17.8217 3.19788 17.743 3.0206 17.6269 2.86858C17.5107 2.71656 17.3603 2.59409 17.1879 2.5111C16.8725 2.36305 16.5506 2.23108 16.2223 2.11522C16.0383 2.04666 15.8405 2.02364 15.6457 2.04812C15.451 2.0726 15.265 2.14385 15.1037 2.2558C14.9424 2.36774 14.8106 2.51705 14.7196 2.69097C14.6285 2.8649 14.5809 3.05828 14.5808 3.2546C14.571 3.51599 14.4615 3.76371 14.2747 3.94687C14.0879 4.13003 13.8382 4.23473 13.5766 4.23949H11.3751C11.1036 4.23949 10.8433 4.13165 10.6514 3.93971C10.4594 3.74776 10.3516 3.48743 10.3516 3.21597C10.3515 3.01965 10.3039 2.82628 10.2128 2.65235C10.1218 2.47843 9.98998 2.32912 9.8287 2.21717C9.66743 2.10523 9.48146 2.03398 9.28667 2.0095C9.09188 1.98502 8.89407 2.00804 8.71011 2.07659C8.38181 2.19246 8.05995 2.32442 7.74453 2.47248C7.57213 2.55546 7.42173 2.67794 7.30555 2.82996C7.18937 2.98198 7.11068 3.15926 7.07587 3.3474C7.04107 3.53554 7.05112 3.72924 7.10523 3.91276C7.15934 4.09629 7.25596 4.26446 7.38727 4.40363C7.57655 4.59521 7.6827 4.85367 7.6827 5.12299C7.6827 5.3923 7.57655 5.65077 7.38727 5.84234L5.84234 7.43555C5.65076 7.62483 5.3923 7.73098 5.12299 7.73098C4.85367 7.73098 4.59521 7.62483 4.40363 7.43555C4.26446 7.30424 4.09629 7.20762 3.91276 7.15351C3.72924 7.0994 3.53554 7.08934 3.3474 7.12415C3.15926 7.15896 2.98198 7.23765 2.82996 7.35383C2.67794 7.47001 2.55546 7.62041 2.47248 7.79281C2.32442 8.10823 2.19246 8.43009 2.07659 8.75839C2.00804 8.94235 1.98502 9.14016 2.0095 9.33495C2.03398 9.52974 2.10523 9.71571 2.21717 9.87698C2.32912 10.0383 2.47843 10.17 2.65235 10.2611C2.82628 10.3522 3.01965 10.3998 3.21597 10.3999C3.48743 10.3999 3.74776 10.5077 3.93971 10.6996C4.13165 10.8916 4.23949 11.1519 4.23949 11.4234V13.6152C4.23949 13.8867 4.13165 14.147 3.93971 14.339C3.74776 14.5309 3.48743 14.6388 3.21597 14.6388C3.01965 14.6389 2.82628 14.6865 2.65235 14.7775C2.47843 14.8686 2.32912 15.0004 2.21717 15.1616C2.10523 15.3229 2.03398 15.5089 2.0095 15.7037C1.98502 15.8985 2.00804 16.0963 2.07659 16.2802C2.19246 16.6085 2.32442 16.9304 2.47248 17.2458C2.55546 17.4182 2.67794 17.5686 2.82996 17.6848C2.98198 17.801 3.15926 17.8797 3.3474 17.9145C3.53554 17.9493 3.72924 17.9392 3.91276 17.8851C4.09629 17.831 4.26446 17.7344 4.40363 17.6031C4.59521 17.4138 4.85367 17.3076 5.12299 17.3076C5.3923 17.3076 5.65076 17.4138 5.84234 17.6031L7.39692 19.1383C7.58621 19.3299 7.69235 19.5884 7.69235 19.8577C7.69235 20.127 7.58621 20.3855 7.39692 20.5771C7.26562 20.7162 7.16899 20.8844 7.11489 21.0679C7.06078 21.2514 7.05072 21.4451 7.08553 21.6333C7.12033 21.8214 7.19902 21.9987 7.31521 22.1507C7.43139 22.3027 7.58179 22.4252 7.75419 22.5082C8.06961 22.6563 8.39147 22.7882 8.71976 22.9041C8.90372 22.9727 9.10154 22.9957 9.29633 22.9712C9.49111 22.9467 9.67708 22.8755 9.83836 22.7635C9.99963 22.6516 10.1314 22.5023 10.2225 22.3283C10.3135 22.1544 10.3611 21.961 10.3612 21.7647C10.3663 21.4983 10.475 21.2443 10.6643 21.0568C10.8536 20.8693 11.1086 20.763 11.3751 20.7605H13.5766C13.8481 20.7605 14.1084 20.8683 14.3004 21.0603C14.4923 21.2522 14.6001 21.5126 14.6001 21.784C14.6002 21.9803 14.6478 22.1737 14.7389 22.3476C14.83 22.5216 14.9617 22.6709 15.123 22.7828C15.2843 22.8948 15.4703 22.966 15.665 22.9905C15.8598 23.015 16.0577 22.992 16.2416 22.9234C16.5699 22.8075 16.8918 22.6756 17.2072 22.5275C17.3796 22.4445 17.53 22.3221 17.6462 22.17C17.7624 22.018 17.841 21.8407 17.8758 21.6526C17.9107 21.4645 17.9006 21.2708 17.8465 21.0872C17.7924 20.9037 17.6958 20.7355 17.5645 20.5964C17.3752 20.4048 17.269 20.1463 17.269 19.877C17.269 19.6077 17.3752 19.3492 17.5645 19.1577L19.119 17.6031C19.3106 17.4138 19.5691 17.3076 19.8384 17.3076C20.1077 17.3076 20.3662 17.4138 20.5577 17.6031C20.6969 17.7344 20.8651 17.831 21.0486 17.8851C21.2321 17.9392 21.4258 17.9493 21.614 17.9145C21.8021 17.8797 21.9794 17.801 22.1314 17.6848C22.2834 17.5686 22.4059 17.4182 22.4889 17.2458C22.637 16.9304 22.7689 16.6085 22.8848 16.2802C22.9533 16.0963 22.9764 15.8985 22.9519 15.7037C22.9274 15.5089 22.8561 15.3229 22.7442 15.1616C22.6323 15.0004 22.483 14.8686 22.309 14.7775C22.1351 14.6865 21.9417 14.6389 21.7454 14.6388C21.4739 14.6388 21.2136 14.5309 21.0217 14.339C20.8297 14.147 20.7219 13.8867 20.7219 13.6152V11.4137C20.7218 11.2768 20.7492 11.1413 20.8025 11.0152C20.8557 10.8891 20.9337 10.775 21.0318 10.6796C21.13 10.5841 21.2462 10.5093 21.3738 10.4596C21.5013 10.4099 21.6375 10.3863 21.7744 10.3902ZM12.4759 16.7147C11.6432 16.7147 10.8293 16.4678 10.137 16.0052C9.44464 15.5427 8.90504 14.8852 8.5864 14.1159C8.26776 13.3466 8.18439 12.5002 8.34684 11.6835C8.50928 10.8669 8.91023 10.1167 9.499 9.52797C10.0878 8.9392 10.8379 8.53824 11.6545 8.3758C12.4712 8.21336 13.3177 8.29673 14.0869 8.61537C14.8562 8.93401 15.5137 9.47361 15.9763 10.1659C16.4389 10.8582 16.6858 11.6722 16.6858 12.5048C16.687 13.0585 16.5791 13.607 16.3681 14.1189C16.1571 14.6307 15.8472 15.096 15.4561 15.4879C15.0651 15.8799 14.6006 16.1908 14.0892 16.403C13.5778 16.6152 13.0295 16.7244 12.4759 16.7244V16.7147Z" fill="#333333"/>
</svg>
