<svg width="25" height="25" viewBox="0 0 25 25" fill="none" xmlns="http://www.w3.org/2000/svg">
<path fill-rule="evenodd" clip-rule="evenodd" d="M12.3336 20.1001C15.6883 20.1001 17.955 19.0154 17.955 18.7443V17.2077C17.955 17.027 17.8644 16.8462 17.683 16.7558C16.8454 16.4427 16.1287 16.2501 15.5536 16.0955C14.6346 15.8486 14.0771 15.6988 13.9656 15.3096V14.3154C16.1417 14.3154 16.9577 13.5923 16.9577 13.5923C16.051 13.1404 15.779 9.6154 15.779 9.6154C15.779 7.71731 14.419 6 12.3336 6C10.3388 6 8.88813 7.71731 8.88813 9.6154C8.88813 9.6154 8.61613 13.05 7.70944 13.502C7.70944 13.502 8.52546 14.225 10.7015 14.225V15.2193C10.59 15.6084 10.0325 15.7582 9.11356 16.0052C8.53844 16.1597 7.82172 16.3523 6.98408 16.6654C6.80274 16.7558 6.71208 16.9366 6.71208 17.1173V18.7443C6.71208 18.925 8.61613 20.1001 12.3336 20.1001ZM23.5767 15.1286C22.9803 14.9056 22.4758 14.7743 22.0821 14.6718C21.5184 14.5251 21.1821 14.4376 21.1287 14.2247V13.5016C22.5794 13.5016 23.1234 13.0497 23.1234 13.0497C22.4887 12.6882 22.3074 10.3382 22.3074 10.3382C22.3074 9.16315 21.4007 7.98815 20.0407 7.98815C18.9526 7.98815 18.1366 8.71123 17.8646 9.70546C17.5926 11.7843 18.9526 13.5016 18.9526 13.5016V14.1343C18.862 14.4055 18.4993 14.4959 17.7739 14.6766C17.6833 14.6766 17.7739 14.8574 17.7739 14.8574L19.2246 15.4901C19.678 15.6709 19.95 16.1228 19.95 16.6651L20.1313 16.8459H22.126C23.7581 16.8459 23.7581 15.3997 23.7581 15.3997C23.8488 15.2189 23.7581 15.1286 23.5767 15.1286ZM4.98944 16.7557C4.98944 16.3038 5.35212 15.9423 5.80546 15.8519C5.80546 15.8519 6.53082 15.6711 7.52818 15.2192C7.61885 15.1288 7.61885 14.948 7.43751 14.8576C6.53082 14.3153 5.89613 13.773 5.80546 13.4115V13.1403C6.07747 12.8692 6.34948 12.4172 6.44015 11.9653C6.62149 11.8749 6.71215 11.6038 6.71215 11.3326C6.71215 11.1519 6.62149 10.9711 6.53082 10.8807V9.88647C6.53082 8.89224 5.9868 8.16916 4.62676 8.16916C3.44807 8.16916 2.81338 8.89224 2.81338 9.88647V10.8807C2.72271 11.0615 2.72271 11.1519 2.72271 11.3326C2.72271 11.6038 2.81338 11.7846 2.99472 11.9653L2.99472 11.9653C3.17606 12.4172 3.3574 12.8692 3.6294 13.1403V13.4115C3.53874 13.8634 2.63204 14.6769 1.18134 15.2192C1.09067 15.3096 1 15.4 1 15.5807V15.7615C1 16.3942 1.54401 16.9365 2.1787 16.9365H4.8081L4.98944 16.7557Z" fill="#333333"/>
</svg>
