<svg width="17" height="16" viewBox="0 0 17 16" fill="none" xmlns="http://www.w3.org/2000/svg">
<path fill-rule="evenodd" clip-rule="evenodd" d="M15.1254 12.4446C16.0044 11.129 16.4736 9.58225 16.4736 8C16.4736 5.87827 15.6308 3.84344 14.1305 2.34315C12.6302 0.842855 10.5954 0 8.47363 0C6.89138 0 5.34467 0.469192 4.02907 1.34824C2.71348 2.22729 1.6881 3.47672 1.0826 4.93853C0.477099 6.40034 0.318672 8.00887 0.627354 9.56072C0.936036 11.1126 1.69796 12.538 2.81678 13.6569C3.9356 14.7757 5.36106 15.5376 6.91291 15.8463C8.46476 16.155 10.0733 15.9965 11.5351 15.391C12.9969 14.7855 14.2463 13.7602 15.1254 12.4446ZM12.1937 5.40917L9.60687 7.996L12.1857 10.5908C12.3169 10.744 12.3854 10.9411 12.3777 11.1427C12.3699 11.3442 12.2863 11.5354 12.1437 11.6781C12.0011 11.8207 11.8099 11.9043 11.6083 11.912C11.4067 11.9198 11.2097 11.8513 11.0565 11.7201L8.46963 9.13324L5.88281 11.7201C5.81101 11.8039 5.72266 11.872 5.6233 11.9201C5.52394 11.9681 5.41571 11.9951 5.30542 11.9994C5.19512 12.0037 5.08514 11.9851 4.98236 11.9448C4.87959 11.9046 4.78625 11.8435 4.7082 11.7654C4.63015 11.6874 4.56908 11.594 4.52882 11.4913C4.48855 11.3885 4.46997 11.2785 4.47423 11.1682C4.47849 11.0579 4.5055 10.9497 4.55357 10.8503C4.60165 10.751 4.66974 10.6626 4.75357 10.5908L7.3404 7.996L4.75357 5.41718C4.6789 5.34303 4.61956 5.25491 4.57895 5.15783C4.53834 5.06075 4.51724 4.95662 4.51687 4.85139C4.5165 4.74616 4.53686 4.64189 4.57678 4.54453C4.61671 4.44716 4.67542 4.35862 4.74957 4.28394C4.82372 4.20927 4.91184 4.14994 5.00892 4.10932C5.106 4.06871 5.21013 4.04761 5.31536 4.04724C5.42059 4.04687 5.52486 4.06723 5.62222 4.10715C5.71959 4.14708 5.80813 4.20579 5.88281 4.27994L8.46963 6.86676L11.0645 4.27994C11.1363 4.1961 11.2246 4.12801 11.324 4.07994C11.4233 4.03187 11.5316 4.00486 11.6418 4.0006C11.7521 3.99634 11.8621 4.01492 11.9649 4.05518C12.0677 4.09545 12.161 4.15652 12.2391 4.23457C12.3171 4.31262 12.3782 4.40596 12.4184 4.50873C12.4587 4.6115 12.4773 4.72149 12.473 4.83179C12.4688 4.94208 12.4418 5.05031 12.3937 5.14967C12.3456 5.24903 12.2775 5.33738 12.1937 5.40917Z" fill="#BDBDBD"/>
</svg>