<svg width="20" height="20" viewBox="0 0 20 20" fill="none" xmlns="http://www.w3.org/2000/svg">
<path fill-rule="evenodd" clip-rule="evenodd" d="M18.3147 15.5557C19.4135 13.9112 20 11.9778 20 10C20 7.34783 18.9464 4.8043 17.0711 2.92893C15.1957 1.05357 12.6522 0 10 0C8.02219 0 6.08879 0.586489 4.4443 1.6853C2.79981 2.78412 1.51809 4.3459 0.761209 6.17316C0.00433285 8.00042 -0.1937 10.0111 0.192152 11.9509C0.578004 13.8907 1.53041 15.6725 2.92894 17.0711C4.32746 18.4696 6.10929 19.422 8.0491 19.8078C9.98891 20.1937 11.9996 19.9957 13.8268 19.2388C15.6541 18.4819 17.2159 17.2002 18.3147 15.5557ZM10.6314 15.3689V14.0005C12.1051 13.6847 12.9472 12.7373 12.9472 11.6847C12.9472 10.5268 12.3156 9.78994 10.7367 9.26362C9.57877 8.84257 9.15771 8.52678 9.15771 8.10573C9.15771 7.68467 9.4735 7.36888 10.3156 7.36888C11.263 7.36888 11.8946 7.57941 12.2103 7.78994L12.5261 6.31625C12.1051 6.10573 11.4735 5.8952 10.6314 5.8952V4.7373H9.36824V6.00046C7.99982 6.21099 7.26298 7.15836 7.26298 8.31625C7.26298 9.47415 8.21035 10.211 9.57877 10.632C10.5261 10.9478 10.9472 11.2636 10.9472 11.7899C10.9472 12.3163 10.4209 12.5268 9.68403 12.632C8.84192 12.632 8.10508 12.4215 7.57877 12.1057L7.15771 13.5794C7.68403 13.7899 8.52614 14.1057 9.36824 14.1057V15.3689H10.6314Z" fill="#1B6EBE"/>
</svg>
