<?xml version="1.0" encoding="UTF-8" standalone="no"?>
<svg
   xmlns:dc="http://purl.org/dc/elements/1.1/"
   xmlns:cc="http://creativecommons.org/ns#"
   xmlns:rdf="http://www.w3.org/1999/02/22-rdf-syntax-ns#"
   xmlns:svg="http://www.w3.org/2000/svg"
   xmlns="http://www.w3.org/2000/svg"
   xmlns:sodipodi="http://sodipodi.sourceforge.net/DTD/sodipodi-0.dtd"
   xmlns:inkscape="http://www.inkscape.org/namespaces/inkscape"
   width="25"
   height="25"
   viewBox="0 0 25 25"
   id="svg2"
   version="1.1"
   inkscape:version="0.91 r13725"
   sodipodi:docname="points.svg"
   style="fill:none">
  <metadata
     id="metadata10">
    <rdf:RDF>
      <cc:Work
         rdf:about="">
        <dc:format>image/svg+xml</dc:format>
        <dc:type
           rdf:resource="http://purl.org/dc/dcmitype/StillImage" />
        <dc:title></dc:title>
      </cc:Work>
    </rdf:RDF>
  </metadata>
  <defs
     id="defs8" />
  <sodipodi:namedview
     pagecolor="#ffffff"
     bordercolor="#666666"
     borderopacity="1"
     objecttolerance="10"
     gridtolerance="10"
     guidetolerance="10"
     inkscape:pageopacity="0"
     inkscape:pageshadow="2"
     inkscape:window-width="1317"
     inkscape:window-height="744"
     id="namedview6"
     showgrid="true"
     inkscape:zoom="5.2001811"
     inkscape:cx="0.68454769"
     inkscape:cy="17.399028"
     inkscape:window-x="49"
     inkscape:window-y="24"
     inkscape:window-maximized="1"
     inkscape:current-layer="svg2">
    <inkscape:grid
       type="xygrid"
       id="grid4140" />
  </sodipodi:namedview>
  <path
     d="m 8.4220959,12.464684 c 0,1.124117 -0.9112802,2.035411 -2.0354104,2.035411 -1.1241262,0 -2.0354108,-0.911294 -2.0354108,-2.035411 0,-1.12413 0.9112846,-2.035416 2.0354108,-2.035416 1.1241302,0 2.0354104,0.911286 2.0354104,2.035416 z m 6.1062331,0 c 0,1.124117 -0.911281,2.035411 -2.035411,2.035411 -1.12413,0 -2.035411,-0.911294 -2.035411,-2.035411 0,-1.12413 0.911281,-2.035416 2.035411,-2.035416 1.12413,0 2.035411,0.911286 2.035411,2.035416 z m 4.070821,2.035411 c 1.12409,0 2.035411,-0.911294 2.035411,-2.035411 0,-1.12413 -0.911321,-2.035416 -2.035411,-2.035416 -1.12413,0 -2.03541,0.911286 -2.03541,2.035416 0,1.124117 0.91128,2.035411 2.03541,2.035411 z"
     id="path4"
     inkscape:connector-curvature="0"
     style="clip-rule:evenodd;fill:#1b6ebe;fill-rule:evenodd" />
</svg>
