<svg width="20" height="20" viewBox="0 0 20 20" fill="none" xmlns="http://www.w3.org/2000/svg">
<path fill-rule="evenodd" clip-rule="evenodd" d="M18.3147 15.5557C19.4135 13.9112 20 11.9778 20 10C20 7.34783 18.9464 4.8043 17.0711 2.92893C15.1957 1.05357 12.6522 0 10 0C8.02219 0 6.08879 0.586489 4.4443 1.6853C2.79981 2.78412 1.51809 4.3459 0.761209 6.17316C0.00433284 8.00042 -0.1937 10.0111 0.192152 11.9509C0.578004 13.8907 1.53041 15.6725 2.92894 17.0711C4.32746 18.4696 6.10929 19.422 8.0491 19.8078C9.98891 20.1937 11.9996 19.9957 13.8268 19.2388C15.6541 18.4819 17.2159 17.2002 18.3147 15.5557ZM14.8292 6.55014L13.4515 5.17715C13.3969 5.1211 13.3316 5.07654 13.2594 5.04611C13.1872 5.01568 13.1097 5 13.0313 5C12.9529 5 12.8753 5.01568 12.8032 5.04611C12.731 5.07654 12.6657 5.1211 12.6111 5.17715L6.26667 11.486L6.21156 11.589L5.03361 14.4928C5.00137 14.5601 4.992 14.6361 5.00691 14.7091C5.02183 14.7822 5.06022 14.8485 5.11627 14.8979C5.1619 14.9464 5.22146 14.9797 5.28682 14.9933C5.35218 15.0068 5.42013 14.9998 5.48137 14.9734L8.38148 13.8064L8.51236 13.6896L14.8292 7.37393C14.9386 7.26455 15 7.11644 15 6.96203C15 6.80762 14.9386 6.65951 14.8292 6.55014Z" fill="#1B6EBE"/>
</svg>
