<?xml version="1.0" encoding="UTF-8" standalone="no"?>
<svg
   xmlns:dc="http://purl.org/dc/elements/1.1/"
   xmlns:cc="http://creativecommons.org/ns#"
   xmlns:rdf="http://www.w3.org/1999/02/22-rdf-syntax-ns#"
   xmlns:svg="http://www.w3.org/2000/svg"
   xmlns="http://www.w3.org/2000/svg"
   xmlns:sodipodi="http://sodipodi.sourceforge.net/DTD/sodipodi-0.dtd"
   xmlns:inkscape="http://www.inkscape.org/namespaces/inkscape"
   width="20"
   height="20"
   viewBox="0 0 20 20"
   id="svg4227"
   version="1.1"
   inkscape:version="0.91 r13725"
   sodipodi:docname="edit.svg"
   style="fill:none">
  <metadata
     id="metadata4235">
    <rdf:RDF>
      <cc:Work
         rdf:about="">
        <dc:format>image/svg+xml</dc:format>
        <dc:type
           rdf:resource="http://purl.org/dc/dcmitype/StillImage" />
        <dc:title></dc:title>
      </cc:Work>
    </rdf:RDF>
  </metadata>
  <defs
     id="defs4233" />
  <sodipodi:namedview
     pagecolor="#ffffff"
     bordercolor="#666666"
     borderopacity="1"
     objecttolerance="10"
     gridtolerance="10"
     guidetolerance="10"
     inkscape:pageopacity="0"
     inkscape:pageshadow="2"
     inkscape:window-width="1317"
     inkscape:window-height="744"
     id="namedview4231"
     showgrid="false"
     inkscape:zoom="20"
     inkscape:cx="5.864153"
     inkscape:cy="9.1647096"
     inkscape:window-x="49"
     inkscape:window-y="24"
     inkscape:window-maximized="1"
     inkscape:current-layer="svg4227" />
  <path
     d="m 13.745911,4.7105617 1.451438,1.4514408 c 0.115245,0.1156175 0.179907,0.272194 0.179907,0.435431 0,0.1632295 -0.06466,0.3198105 -0.179907,0.435431 L 8.5425225,13.709464 8.4046284,13.832831 5.3493525,15.066556 c -0.06452,0.02801 -0.1361082,0.03535 -0.2049613,0.02104 -0.068854,-0.01434 -0.1316073,-0.04949 -0.17967,-0.100876 -0.059058,-0.05218 -0.099502,-0.122203 -0.1152159,-0.1995 -0.015713,-0.07722 -0.00585,-0.157481 0.028129,-0.228674 l 1.2409776,-3.069763 0.058057,-0.108852 6.6838621,-6.6693635 c 0.05755,-0.059258 0.126349,-0.1063589 0.202403,-0.1385261 0.07598,-0.032167 0.157771,-0.048744 0.240287,-0.048744 0.08259,0 0.164303,0.016577 0.240357,0.048744 0.07606,0.032167 0.144854,0.079268 0.202332,0.1385261 z"
     id="path4229"
     inkscape:connector-curvature="0"
     style="fill:#bdbdbd" />
</svg>
