<svg width="25" height="25" viewBox="0 0 25 25" fill="none" xmlns="http://www.w3.org/2000/svg">
<path fill-rule="evenodd" clip-rule="evenodd" d="M12.297 6C16.2139 6 19.7185 7.54129 22.3984 9.90459C22.7077 10.2128 22.6046 10.6239 22.3984 10.6239L19.1 12.8844C18.997 12.9872 18.7908 12.9872 18.5846 12.8844C18.2374 12.6536 18.0201 12.4876 17.7685 12.2954C17.5721 12.1454 17.3549 11.9794 17.0385 11.7541L16.317 9.49358C15.0801 9.08257 13.7401 8.77431 12.297 8.77431C10.854 8.77431 9.51401 8.97982 8.38018 9.49358L7.65865 11.7541C7.21675 11.9744 6.86365 12.1651 6.5359 12.3422C6.25206 12.4955 5.98724 12.6386 5.70022 12.7817C5.49406 12.8844 5.28791 12.8844 5.18484 12.7817L2.19565 10.7266C1.9895 10.6239 1.88642 10.2128 2.19565 10.0073C4.77254 7.54129 8.38018 6 12.297 6ZM13.1216 16.3779H14.8739C15.1831 16.3779 15.3893 16.7889 15.2862 16.9944L12.8124 19.7687C12.6063 20.077 12.0909 20.077 11.8847 19.7687L9.41092 16.9944C9.20477 16.6862 9.41092 16.2752 9.72015 16.2752H11.4724V12.6788C11.4724 12.2678 11.7817 11.8568 12.297 11.8568C12.8124 11.8568 13.1216 12.2678 13.1216 12.6788V16.3779Z" fill="#333333"/>
</svg>
