<svg width="25" height="25" viewBox="0 0 25 25" fill="none" xmlns="http://www.w3.org/2000/svg">
<path fill-rule="evenodd" clip-rule="evenodd" d="M10.1848 12.8244C10.1848 12.6808 10.2806 12.4894 10.4241 12.3937L15.5446 8.66104C15.6881 8.51747 15.9274 8.51747 16.1188 8.61318C16.3102 8.70889 16.406 8.90031 16.406 9.09173V11.5323H19.7079C20.4257 11.5323 21 12.1066 21 12.8244C21 13.5422 20.4257 14.1165 19.7079 14.1165H16.406V16.5571C16.406 16.7485 16.3102 16.9399 16.1188 17.0356C15.9274 17.1313 15.736 17.1313 15.5446 16.9878L10.4241 13.2551C10.2806 13.1594 10.1848 13.0158 10.1848 12.8244ZM7.69692 18.4696H13.0566V20.7667H6.5484C5.92629 20.7667 5.39989 20.2403 5.39989 19.6181V6.07527C5.39989 5.45316 5.92629 4.92676 6.5484 4.92676H13.0566V7.17593L7.69692 7.17593V18.4696Z" fill="black"/>
</svg>
