<svg width="20" height="20" viewBox="0 0 20 20" fill="none" xmlns="http://www.w3.org/2000/svg">
<path fill-rule="evenodd" clip-rule="evenodd" d="M18.3147 15.5557C19.4135 13.9112 20 11.9778 20 10C20 7.34783 18.9464 4.8043 17.0711 2.92893C15.1957 1.05357 12.6522 0 10 0C8.02219 0 6.08879 0.586489 4.4443 1.6853C2.79981 2.78412 1.51809 4.3459 0.761209 6.17316C0.00433284 8.00042 -0.1937 10.0111 0.192152 11.9509C0.578004 13.8907 1.53041 15.6725 2.92894 17.0711C4.32746 18.4696 6.10929 19.422 8.0491 19.8078C9.98891 20.1937 11.9996 19.9957 13.8268 19.2388C15.6541 18.4819 17.2159 17.2002 18.3147 15.5557ZM10.124 5.147C10.0651 5.05865 9.94734 4.99976 9.859 4.99976C9.74121 4.99976 9.65286 5.05865 9.59397 5.147L7.29703 8.29792C7.20869 8.41571 7.20869 8.5335 7.26759 8.65129C7.32648 8.76908 7.44427 8.82798 7.56207 8.82798H9.06391V10.8599C9.06391 11.3016 9.41728 11.655 9.859 11.655C10.3007 11.655 10.6541 11.3016 10.6541 10.8599V8.82798H12.1559C12.2737 8.82798 12.3915 8.76908 12.4504 8.65129C12.5093 8.5335 12.5093 8.38626 12.421 8.29792L10.124 5.147ZM13.3337 9.88794V13.1861H6.38405V9.88794H5V13.8928C5 14.2757 5.32393 14.5996 5.70675 14.5996H14.0405C14.4233 14.5996 14.7472 14.2757 14.7472 13.8928V9.88794H13.3337Z" fill="#1B6EBE"/>
</svg>
