<svg width="20" height="20" viewBox="0 0 20 20" fill="none" xmlns="http://www.w3.org/2000/svg">
<path fill-rule="evenodd" clip-rule="evenodd" d="M18.3144 15.5557C19.4136 13.9111 20 11.978 20 10C20 7.34766 18.9463 4.8042 17.0713 2.92871C15.1958 1.05371 12.6523 0 9.99998 0C8.02195 0 6.08885 0.586426 4.44432 1.68555C2.79979 2.78418 1.51805 4.3457 0.761213 6.17334C0.00437683 8.00049 -0.193865 10.0112 0.192365 11.9507C0.578107 13.8906 1.53026 15.6724 2.92869 17.0713C4.32762 18.4697 6.10936 19.4219 8.0493 19.8076C9.98875 20.1938 11.9995 19.9956 13.8266 19.2388C15.6543 18.4819 17.2158 17.2002 18.3144 15.5557ZM4.99998 7.4165V6H15V7.4165C14.4165 8.6665 13.5 9.6665 12.25 10.25C11.4165 10.5835 10.9165 11.4165 10.9165 12.3335V14.5835L9.08348 16V12.3335C9.08348 11.4165 8.58348 10.6665 7.74998 10.25C6.49998 9.6665 5.49998 8.6665 4.99998 7.4165Z" fill="#1B6EBE"/>
</svg>
