<svg width="25" height="25" viewBox="0 0 25 25" fill="none" xmlns="http://www.w3.org/2000/svg">
<path fill-rule="evenodd" clip-rule="evenodd" d="M14.8085 4.10112L12.8437 11.2806C11.0858 11.2806 9.43123 11.584 7.98351 12.0896L6.32897 5.21343C8.29374 4.40448 10.4653 4 12.8437 4C13.2196 4 13.5676 4.02726 13.9022 4.05348C14.2119 4.07775 14.5102 4.10112 14.8085 4.10112ZM3.64049 4.20294C3.22686 4.30406 2.91663 4.60742 3.02004 5.01189L6.94957 22L8.39729 21.5955L4.57117 4.70854C4.46776 4.30406 4.05413 4.10182 3.64049 4.20294ZM21.53 14.6178C18.738 10.4719 15.1187 8.65173 15.1187 8.65173L14.0846 12.3932C14.0846 12.3932 12.3266 12.3932 10.9823 12.8987L11.4994 15.1234C11.4994 15.1234 15.3255 14.1122 21.4266 14.82C21.53 14.82 21.53 14.7189 21.53 14.6178Z" fill="#333333"/>
</svg>
