<svg width="25" height="25" viewBox="0 0 25 25" fill="none" xmlns="http://www.w3.org/2000/svg">
<path fill-rule="evenodd" clip-rule="evenodd" d="M15.1037 9.5344V15.0688H9.55185C6.43502 15.0688 4 12.5443 4 9.5344C4 6.42737 6.43502 4 9.55185 4C12.5713 4 15.1037 6.42737 15.1037 9.5344ZM6.53242 9.14603V10.4083H8.67524V12.5443H9.94146C10.2337 12.5443 10.4285 12.3502 10.4285 12.0589V10.4083H12.5713V9.14603C12.5713 8.85474 12.3765 8.66055 12.0843 8.66055H10.4285V7.00994C10.4285 6.71865 10.2337 6.52447 9.94146 6.52447H8.67524V8.66055H7.01943C6.72723 8.66055 6.53242 8.85474 6.53242 9.14603ZM20.4608 12.9341H17.5388C17.1492 12.9341 16.857 13.2254 16.857 13.6138V14.9731H21.1426V13.7109C21.1426 13.3225 20.8504 12.9341 20.4608 12.9341ZM20.461 16.9114H7.99365C7.60405 16.9114 7.31185 17.2027 7.31185 17.5911V18.9504H21.2402V17.5911C21.1428 17.2998 20.8506 16.9114 20.461 16.9114Z" fill="#333333"/>
</svg>
