<svg width="12" height="12" viewBox="0 0 12 12" fill="none" xmlns="http://www.w3.org/2000/svg">
<path d="M6.00013 0.181641C2.78635 0.181641 0.181641 2.78635 0.181641 5.99952C0.181641 9.21329 2.78635 11.818 6.00013 11.818C9.21269 11.818 11.818 9.21329 11.818 5.99952C11.818 2.78635 9.21269 0.181641 6.00013 0.181641ZM6.54313 2.28214C7.11037 2.28214 7.27703 2.61121 7.27703 2.98756C7.27703 3.45723 6.90129 3.89175 6.25951 3.89175C5.72256 3.89175 5.46682 3.62207 5.48258 3.17542C5.48258 2.79908 5.79711 2.28214 6.54313 2.28214ZM5.08987 9.48419C4.70201 9.48419 4.419 9.24844 4.68989 8.21516L5.13411 6.38192C5.21108 6.08861 5.2238 5.97104 5.13411 5.97104C5.01836 5.97104 4.51475 6.17345 4.21779 6.37344L4.02447 6.05649C4.96685 5.26925 6.05043 4.80746 6.51404 4.80746C6.9019 4.80746 6.96614 5.26562 6.77281 5.97104L6.26375 7.89821C6.17345 8.2388 6.21224 8.35637 6.30253 8.35637C6.41889 8.35637 6.79948 8.21577 7.174 7.92063L7.39339 8.21516C6.47646 9.13148 5.47712 9.48419 5.08987 9.48419Z" fill="white"/>
</svg>
