<svg width="20" height="20" viewBox="0 0 20 20" fill="none" xmlns="http://www.w3.org/2000/svg">
<path fill-rule="evenodd" clip-rule="evenodd" d="M3 15V3H13V17H5C4.46957 17 3.96086 16.7893 3.58579 16.4142C3.21071 16.0391 3 15.5304 3 15ZM6.08 12H10.13C10.3952 12 10.6496 11.8946 10.8371 11.7071C11.0246 11.5196 11.13 11.2652 11.13 11C11.13 10.7348 11.0246 10.4804 10.8371 10.2929C10.6496 10.1054 10.3952 10 10.13 10H6.08C5.81478 10 5.56043 10.1054 5.37289 10.2929C5.18536 10.4804 5.08 10.7348 5.08 11C5.08 11.2652 5.18536 11.5196 5.37289 11.7071C5.56043 11.8946 5.81478 12 6.08 12ZM6.08 8H10.13C10.3952 8 10.6496 7.89464 10.8371 7.70711C11.0246 7.51957 11.13 7.26522 11.13 7C11.13 6.73478 11.0246 6.48043 10.8371 6.29289C10.6496 6.10536 10.3952 6 10.13 6H6.08C5.81478 6 5.56043 6.10536 5.37289 6.29289C5.18536 6.48043 5.08 6.73478 5.08 7C5.08 7.26522 5.18536 7.51957 5.37289 7.70711C5.56043 7.89464 5.81478 8 6.08 8ZM17 12H15V17C15.5304 17 16.0391 16.7893 16.4142 16.4142C16.7893 16.0391 17 15.5304 17 15V12Z" fill="white"/>
</svg>
