<svg width="20" height="20" viewBox="0 0 20 20" fill="none" xmlns="http://www.w3.org/2000/svg">
<path d="M19 4H1V14C1 14.5304 1.21071 15.0391 1.58579 15.4142C1.96086 15.7893 2.46957 16 3 16H17C17.5304 16 18.0391 15.7893 18.4142 15.4142C18.7893 15.0391 19 14.5304 19 14V4ZM6.49 6.49C6.85753 6.49718 7.20861 6.64368 7.47223 6.89988C7.73585 7.15607 7.89232 7.50283 7.91 7.87C7.89479 8.23894 7.7394 8.58818 7.47553 8.84648C7.21166 9.10478 6.85918 9.25267 6.49 9.26C6.12181 9.25255 5.77046 9.10431 5.50821 8.84578C5.24595 8.58724 5.09271 8.23805 5.08 7.87C5.0952 7.50371 5.24954 7.15701 5.51153 6.90059C5.77353 6.64417 6.12347 6.49732 6.49 6.49ZM3 13C3.12696 12.1627 3.5499 11.3986 4.19207 10.8464C4.83425 10.2943 5.65309 9.99066 6.5 9.99066C7.34691 9.99066 8.16575 10.2943 8.80793 10.8464C9.4501 11.3986 9.87304 12.1627 10 13H3ZM15 13H12.08C11.8148 13 11.5604 12.8946 11.3729 12.7071C11.1854 12.5196 11.08 12.2652 11.08 12C11.08 11.7348 11.1854 11.4804 11.3729 11.2929C11.5604 11.1054 11.8148 11 12.08 11H15C15.2652 11 15.5196 11.1054 15.7071 11.2929C15.8946 11.4804 16 11.7348 16 12C16 12.2652 15.8946 12.5196 15.7071 12.7071C15.5196 12.8946 15.2652 13 15 13ZM16.13 9H12.13C11.8648 9 11.6104 8.89464 11.4229 8.70711C11.2354 8.51957 11.13 8.26522 11.13 8C11.13 7.73478 11.2354 7.48043 11.4229 7.29289C11.6104 7.10536 11.8648 7 12.13 7H16.13C16.3952 7 16.6496 7.10536 16.8371 7.29289C17.0246 7.48043 17.13 7.73478 17.13 8C17.13 8.26522 17.0246 8.51957 16.8371 8.70711C16.6496 8.89464 16.3952 9 16.13 9Z" fill="white"/>
</svg>
