<svg width="20" height="20" viewBox="0 0 20 20" fill="none" xmlns="http://www.w3.org/2000/svg">
<path d="M11.9997 6.49001V11H7.42969C6.23794 11 5.09486 10.5273 4.25124 9.68553C3.40761 8.84378 2.93234 7.70175 2.92969 6.51001C2.94287 5.30758 3.43048 4.15902 4.28638 3.31436C5.14228 2.46969 6.29718 1.9973 7.49969 2.00001C8.69143 2.00001 9.83451 2.47274 10.6781 3.31449C11.5218 4.15625 11.997 5.29827 11.9997 6.49001Z" fill="white"/>
<path d="M14.5605 4.17965V15.1796C14.5534 15.2914 14.5058 15.3967 14.4267 15.4758C14.3475 15.555 14.2422 15.6026 14.1305 15.6096H8.60047C8.49075 15.6049 8.38699 15.5584 8.31047 15.4796C8.22653 15.4017 8.1763 15.2941 8.17047 15.1796V12.6996H6.73047V15.1396C6.74077 15.6314 6.9414 16.1001 7.29016 16.447C7.63892 16.7939 8.10862 16.992 8.60047 16.9996H14.1305C14.6223 16.992 15.092 16.7939 15.4408 16.447C15.7895 16.1001 15.9902 15.6314 16.0005 15.1396V4.13965L14.5605 4.17965Z" fill="white"/>
<path d="M10.4004 13.71C10.4004 13.9077 10.459 14.1011 10.5689 14.2655C10.6788 14.43 10.835 14.5582 11.0177 14.6338C11.2004 14.7095 11.4015 14.7293 11.5955 14.6907C11.7895 14.6522 11.9676 14.5569 12.1075 14.4171C12.2474 14.2772 12.3426 14.099 12.3812 13.9051C12.4198 13.7111 12.4 13.51 12.3243 13.3273C12.2486 13.1446 12.1204 12.9884 11.956 12.8785C11.7915 12.7686 11.5982 12.71 11.4004 12.71C11.1352 12.71 10.8808 12.8153 10.6933 13.0029C10.5057 13.1904 10.4004 13.4447 10.4004 13.71Z" fill="white"/>
</svg>
