<svg width="20" height="20" viewBox="0 0 20 20" fill="none" xmlns="http://www.w3.org/2000/svg">
<path fill-rule="evenodd" clip-rule="evenodd" d="M18 2H2C2 2.53043 2.21071 3.03914 2.58579 3.41421C2.96086 3.78929 3.46957 4 4 4H16C16.5304 4 17.0391 3.78929 17.4142 3.41421C17.7893 3.03914 18 2.53043 18 2ZM4 18V6H16V18H4ZM11 13H13C13.2652 13 13.5196 12.8946 13.7071 12.7071C13.8946 12.5196 14 12.2652 14 12C14 11.7348 13.8946 11.4804 13.7071 11.2929C13.5196 11.1054 13.2652 11 13 11H11V9C11 8.73478 10.8946 8.48043 10.7071 8.29289C10.5196 8.10536 10.2652 8 10 8C9.73478 8 9.48043 8.10536 9.29289 8.29289C9.10536 8.48043 9 8.73478 9 9V11H7C6.73478 11 6.48043 11.1054 6.29289 11.2929C6.10536 11.4804 6 11.7348 6 12C6 12.2652 6.10536 12.5196 6.29289 12.7071C6.48043 12.8946 6.73478 13 7 13H9V15C9 15.2652 9.10536 15.5196 9.29289 15.7071C9.48043 15.8946 9.73478 16 10 16C10.2652 16 10.5196 15.8946 10.7071 15.7071C10.8946 15.5196 11 15.2652 11 15V13Z" fill="white"/>
</svg>