<svg width="20" height="20" viewBox="0 0 20 20" fill="none" xmlns="http://www.w3.org/2000/svg">
<path fill-rule="evenodd" clip-rule="evenodd" d="M6 2.87012H8C8.26522 2.87012 8.51957 2.97547 8.70711 3.16301C8.89464 3.35055 9 3.6049 9 3.87012V5.00012H5V3.87012C5 3.6049 5.10536 3.35055 5.29289 3.16301C5.48043 2.97547 5.73478 2.87012 6 2.87012ZM5 7C4.46957 7 3.96086 7.21071 3.58579 7.58579C3.21071 7.96086 3 8.46957 3 9V15C3 15.5304 3.21071 16.0391 3.58579 16.4142C3.96086 16.7893 4.46957 17 5 17H11V7H5ZM15 9H13V17H15C15.5304 17 16.0391 16.7893 16.4142 16.4142C16.7893 16.0391 17 15.5304 17 15V11C17 10.4696 16.7893 9.96086 16.4142 9.58579C16.0391 9.21071 15.5304 9 15 9ZM13 7.12988H16V5.99988C16 5.73467 15.8946 5.48031 15.7071 5.29278C15.5196 5.10524 15.2652 4.99988 15 4.99988H13V7.12988Z" fill="white"/>
</svg>
