<svg width="20" height="20" viewBox="0 0 20 20" fill="none" xmlns="http://www.w3.org/2000/svg">
<path d="M16 19H9C8.81429 19 8.63225 18.9483 8.47427 18.8507C8.31629 18.753 8.18863 18.6133 8.10557 18.4472C8.02252 18.2811 7.98736 18.0952 8.00404 17.9102C8.02072 17.7252 8.08857 17.5486 8.2 17.4L11 13V7H10V6H15V7H14V13L16.8 17.4C16.9114 17.5486 16.9793 17.7252 16.996 17.9102C17.0126 18.0952 16.9775 18.2811 16.8944 18.4472C16.8114 18.6133 16.6837 18.753 16.5257 18.8507C16.3678 18.9483 16.1857 19 16 19Z" fill="white"/>
<path d="M5 12.5V2H4V1H9V2H8V12.5C8 12.8978 7.84196 13.2794 7.56066 13.5607C7.27936 13.842 6.89782 14 6.5 14C6.10218 14 5.72064 13.842 5.43934 13.5607C5.15804 13.2794 5 12.8978 5 12.5Z" fill="white"/>
</svg>
