<svg width="20" height="20" viewBox="0 0 20 20" fill="none" xmlns="http://www.w3.org/2000/svg">
<path fill-rule="evenodd" clip-rule="evenodd" d="M3 7H8.89678C9.43732 7 9.87957 6.55 9.87957 6C9.87957 5.45 9.43732 5 8.89678 5H3V7ZM3 10.9983H4.96559C5.50613 10.9983 5.94839 10.5483 5.94839 9.99828C5.94839 9.44828 5.50613 8.99828 4.96559 8.99828H3V10.9983ZM9.4472 10.9975L15.1966 5.21999C15.4619 4.95011 15.9042 4.95011 16.1695 5.21999L17.801 6.87928C18.0663 7.14916 18.0663 7.59897 17.801 7.86885L12.1204 13.5964L9.4472 10.9975ZM9.22183 15.9375C9.5254 15.8028 9.81918 15.6725 10.4595 15.4063L7.90419 12.8574L6.26292 16.4359C6.20395 16.5958 6.23344 16.7557 6.35137 16.8757C6.48897 17.0156 6.68552 17.0256 6.7838 16.9657C8.32689 16.3343 8.78452 16.1314 9.22183 15.9375Z" fill="white"/>
</svg>