<svg width="20" height="20" viewBox="0 0 20 20" fill="none" xmlns="http://www.w3.org/2000/svg">
<path d="M16 2H4V16C4 16.5304 4.21071 17.0391 4.58579 17.4142C4.96086 17.7893 5.46957 18 6 18H14C14.5304 18 15.0391 17.7893 15.4142 17.4142C15.7893 17.0391 16 16.5304 16 16V2ZM7.5 15C7.20333 15 6.91332 14.912 6.66664 14.7472C6.41997 14.5824 6.22771 14.3481 6.11418 14.074C6.00065 13.7999 5.97094 13.4983 6.02882 13.2074C6.0867 12.9164 6.22956 12.6491 6.43934 12.4393C6.64912 12.2296 6.91639 12.0867 7.20736 12.0288C7.49834 11.9709 7.79994 12.0006 8.07403 12.1142C8.34811 12.2277 8.58238 12.42 8.7472 12.6666C8.91203 12.9133 9 13.2033 9 13.5C9 13.8978 8.84196 14.2794 8.56066 14.5607C8.27936 14.842 7.89782 15 7.5 15ZM7.5 11C7.20333 11 6.91332 10.912 6.66664 10.7472C6.41997 10.5824 6.22771 10.3481 6.11418 10.074C6.00065 9.79994 5.97094 9.49834 6.02882 9.20736C6.0867 8.91639 6.22956 8.64912 6.43934 8.43934C6.64912 8.22956 6.91639 8.0867 7.20736 8.02882C7.49834 7.97094 7.79994 8.00065 8.07403 8.11418C8.34811 8.22771 8.58238 8.41997 8.7472 8.66665C8.91203 8.91332 9 9.20333 9 9.5C9 9.89782 8.84196 10.2794 8.56066 10.5607C8.27936 10.842 7.89782 11 7.5 11ZM12.5 15C12.2033 15 11.9133 14.912 11.6666 14.7472C11.42 14.5824 11.2277 14.3481 11.1142 14.074C11.0006 13.7999 10.9709 13.4983 11.0288 13.2074C11.0867 12.9164 11.2296 12.6491 11.4393 12.4393C11.6491 12.2296 11.9164 12.0867 12.2074 12.0288C12.4983 11.9709 12.7999 12.0006 13.074 12.1142C13.3481 12.2277 13.5824 12.42 13.7472 12.6666C13.912 12.9133 14 13.2033 14 13.5C14 13.8978 13.842 14.2794 13.5607 14.5607C13.2794 14.842 12.8978 15 12.5 15ZM12.5 11C12.2033 11 11.9133 10.912 11.6666 10.7472C11.42 10.5824 11.2277 10.3481 11.1142 10.074C11.0006 9.79994 10.9709 9.49834 11.0288 9.20736C11.0867 8.91639 11.2296 8.64912 11.4393 8.43934C11.6491 8.22956 11.9164 8.0867 12.2074 8.02882C12.4983 7.97094 12.7999 8.00065 13.074 8.11418C13.3481 8.22771 13.5824 8.41997 13.7472 8.66665C13.912 8.91332 14 9.20333 14 9.5C14 9.89782 13.842 10.2794 13.5607 10.5607C13.2794 10.842 12.8978 11 12.5 11ZM13 7H7C6.73478 7 6.48043 6.89464 6.29289 6.70711C6.10536 6.51957 6 6.26522 6 6V5C6 4.73478 6.10536 4.48043 6.29289 4.29289C6.48043 4.10536 6.73478 4 7 4H13C13.2652 4 13.5196 4.10536 13.7071 4.29289C13.8946 4.48043 14 4.73478 14 5V6C14 6.26522 13.8946 6.51957 13.7071 6.70711C13.5196 6.89464 13.2652 7 13 7Z" fill="white"/>
</svg>