<svg width="20" height="20" viewBox="0 0 20 20" fill="none" xmlns="http://www.w3.org/2000/svg">
<path d="M18 10C18 9.05 15.89 8.53 15.55 7.7C15.21 6.87 16.3 4.99 15.66 4.34C15.02 3.69 13.15 4.81 12.3 4.45C11.45 4.09 11 2 10 2C9 2 8.53 4.11 7.7 4.45C6.87 4.79 5 3.7 4.34 4.34C3.68 4.98 4.81 6.85 4.45 7.7C4.09 8.55 2 9.05 2 10C2 10.95 4.11 11.47 4.45 12.3C4.79 13.13 3.7 15 4.34 15.66C4.98 16.32 6.85 15.19 7.7 15.55C8.55 15.91 9.05 18 10 18C10.95 18 11.47 15.89 12.3 15.55C13.13 15.21 15.01 16.3 15.66 15.66C16.31 15.02 15.19 13.15 15.55 12.3C15.91 11.45 18 11 18 10ZM10 14C9.80222 14 9.60888 13.9414 9.44443 13.8315C9.27998 13.7216 9.15181 13.5654 9.07612 13.3827C9.00043 13.2 8.98063 12.9989 9.01921 12.8049C9.0578 12.6109 9.15304 12.4327 9.29289 12.2929C9.43275 12.153 9.61093 12.0578 9.80491 12.0192C9.99889 11.9806 10.2 12.0004 10.3827 12.0761C10.5654 12.1518 10.7216 12.28 10.8315 12.4444C10.9414 12.6089 11 12.8022 11 13C11 13.2652 10.8946 13.5196 10.7071 13.7071C10.5196 13.8946 10.2652 14 10 14ZM11 9.88C11 10.1452 10.8946 10.3996 10.7071 10.5871C10.5196 10.7746 10.2652 10.88 10 10.88C9.73478 10.88 9.48043 10.7746 9.29289 10.5871C9.10536 10.3996 9 10.1452 9 9.88V6.88C9 6.61478 9.10536 6.36043 9.29289 6.17289C9.48043 5.98536 9.73478 5.88 10 5.88C10.2652 5.88 10.5196 5.98536 10.7071 6.17289C10.8946 6.36043 11 6.61478 11 6.88V9.88Z" fill="white"/>
</svg>
