<svg width="20" height="20" viewBox="0 0 20 20" fill="none" xmlns="http://www.w3.org/2000/svg">
<path fill-rule="evenodd" clip-rule="evenodd" d="M11 5.58958V6.99958H12.41L15.95 3.45958C16.1363 3.27222 16.2408 3.01877 16.2408 2.75458C16.2408 2.4904 16.1363 2.23694 15.95 2.04958C15.7626 1.86333 15.5092 1.75879 15.245 1.75879C14.9808 1.75879 14.7274 1.86333 14.54 2.04958L11 5.58958ZM13.24 9L13.83 8.41L15 7.24V15C15 15.5304 14.7893 16.0391 14.4142 16.4142C14.0391 16.7893 13.5304 17 13 17H7C6.46957 17 5.96086 16.7893 5.58579 16.4142C5.21071 16.0391 5 15.5304 5 15V3H10.76L9.59 4.17L9 4.76V8.31C9 8.493 9.0727 8.6685 9.2021 8.7979C9.3315 8.9273 9.507 9 9.69 9H13.24Z" fill="white"/>
</svg>