<svg width="25" height="25" viewBox="0 0 25 25" fill="none" xmlns="http://www.w3.org/2000/svg">
<path fill-rule="evenodd" clip-rule="evenodd" d="M14.7289 6.03648C14.7289 4.35948 13.3694 3 11.6924 3C10.0154 3 8.65593 4.35948 8.65593 6.03648V10.66C8.65593 12.337 10.0154 13.6965 11.6924 13.6965C13.3694 13.6965 14.7289 12.337 14.7289 10.66V6.03648ZM10.4777 18.2873C8.88848 18.0317 7.40804 17.2821 6.25542 16.1295C4.81328 14.6874 4.00214 12.732 4 10.6925C4 10.3704 4.12797 10.0615 4.35575 9.83368C4.58353 9.6059 4.89246 9.47793 5.21459 9.47793C5.53672 9.47793 5.84566 9.6059 6.07344 9.83368C6.30122 10.0615 6.42918 10.3704 6.42918 10.6925C6.42918 12.0884 6.9837 13.4271 7.97074 14.4142C8.95779 15.4012 10.2965 15.9557 11.6924 15.9557C13.0883 15.9557 14.427 15.4012 15.4141 14.4142C16.4011 13.4271 16.9556 12.0884 16.9556 10.6925C16.9556 10.3704 17.0836 10.0615 17.3114 9.83368C17.5392 9.6059 17.8481 9.47793 18.1702 9.47793C18.4923 9.47793 18.8013 9.6059 19.0291 9.83368C19.2568 10.0615 19.3848 10.3704 19.3848 10.6925C19.3827 12.732 18.5715 14.6874 17.1294 16.1295C15.9767 17.2822 14.4962 18.0317 12.9069 18.2873V21.7855C12.9069 22.1076 12.7789 22.4166 12.5511 22.6443C12.3234 22.8721 12.0144 23.0001 11.6923 23.0001C11.3702 23.0001 11.0612 22.8721 10.8334 22.6443C10.6057 22.4166 10.4777 22.1076 10.4777 21.7855V18.2873Z" fill="black"/>
</svg>
