<svg width="25" height="25" viewBox="0 0 25 25" fill="none" xmlns="http://www.w3.org/2000/svg">
<path d="M17.0578 8.34673L13.2958 4.62482C12.0951 3.43388 10.4725 2.76562 8.78136 2.76562C7.09022 2.76562 5.46759 3.43388 4.26691 4.62482V4.62482C3.07597 5.8255 2.40771 7.44813 2.40771 9.13927C2.40771 10.8304 3.07597 12.453 4.26691 13.6537L7.98882 17.3756C8.3193 17.7637 8.51385 18.2492 8.54282 18.7582C8.5718 19.2671 8.43362 19.7715 8.14934 20.1946C8.08459 20.3523 8.07307 20.5267 8.11653 20.6915C8.15998 20.8563 8.25604 21.0024 8.39011 21.1076L8.80142 21.5189C9.24341 21.96 9.84233 22.2077 10.4668 22.2077C11.0912 22.2077 11.6901 21.96 12.1321 21.5189L21.161 12.49C21.6021 12.048 21.8498 11.4491 21.8498 10.8247C21.8498 10.2002 21.6021 9.60132 21.161 9.15933L20.85 8.84834C20.7254 8.71151 20.557 8.62257 20.3737 8.59691C20.1905 8.57126 20.0041 8.61052 19.8468 8.70789C19.4048 8.95527 18.8949 9.05373 18.3926 8.98868C17.8902 8.92363 17.4222 8.69854 17.0578 8.34673V8.34673Z" fill="black"/>
<path d="M13.5967 22.3016C13.8533 22.7421 14.2076 23.1178 14.6323 23.3997C15.057 23.6817 15.5408 23.8624 16.0463 23.9279C16.5518 23.9934 17.0657 23.942 17.5482 23.7777C18.0308 23.6134 18.4691 23.3404 18.8296 22.98C19.1901 22.6195 19.463 22.1811 19.6273 21.6986C19.7916 21.2161 19.843 20.7022 19.7775 20.1967C19.712 19.6912 19.5313 19.2074 19.2493 18.7827C18.9674 18.358 18.5917 18.0037 18.1513 17.7471L13.5967 22.3016Z" fill="black"/>
</svg>
