<svg width="25" height="25" viewBox="0 0 25 25" fill="none" xmlns="http://www.w3.org/2000/svg">
<path d="M17.0002 8.32009L13.2502 4.61009C12.0534 3.42295 10.436 2.75684 8.75022 2.75684C7.06449 2.75684 5.44705 3.42295 4.25022 4.61009C3.06309 5.80692 2.39697 7.42436 2.39697 9.11009C2.39697 10.7958 3.06309 12.4133 4.25022 13.6101L7.96022 17.3201C8.28964 17.707 8.48357 18.1909 8.51245 18.6982C8.54134 19.2055 8.4036 19.7083 8.12022 20.1301C8.05568 20.2872 8.0442 20.4611 8.08752 20.6254C8.13084 20.7896 8.22659 20.9352 8.36022 21.0401L8.77022 21.4501C9.21079 21.8898 9.8078 22.1367 10.4302 22.1367C11.0526 22.1367 11.6497 21.8898 12.0902 21.4501L21.0902 12.4501C21.5299 12.0095 21.7768 11.4125 21.7768 10.7901C21.7768 10.1677 21.5299 9.57066 21.0902 9.13009L20.7802 8.82009C20.6561 8.6837 20.4881 8.59504 20.3055 8.56947C20.1229 8.5439 19.937 8.58303 19.7802 8.68009C19.3397 8.92668 18.8314 9.02482 18.3307 8.95998C17.83 8.89514 17.3635 8.67077 17.0002 8.32009Z" fill="black"/>
<path d="M13.5498 22.2299C13.8056 22.669 14.1588 23.0434 14.5821 23.3245C15.0055 23.6055 15.4877 23.7857 15.9916 23.851C16.4955 23.9163 17.0077 23.8651 17.4887 23.7013C17.9697 23.5375 18.4067 23.2654 18.766 22.9061C19.1253 22.5468 19.3973 22.1098 19.5611 21.6288C19.7249 21.1478 19.7762 20.6356 19.7108 20.1317C19.6455 19.6278 19.4654 19.1456 19.1844 18.7223C18.9033 18.2989 18.5288 17.9458 18.0898 17.6899L13.5498 22.2299Z" fill="black"/>
<path d="M14.3801 7.49021C16.3186 7.49021 17.8901 5.91873 17.8901 3.98021C17.8901 2.0417 16.3186 0.470215 14.3801 0.470215C12.4416 0.470215 10.8701 2.0417 10.8701 3.98021C10.8701 5.91873 12.4416 7.49021 14.3801 7.49021Z" fill="#B7B308"/>
</svg>
