<svg width="25" height="25" viewBox="0 0 25 25" fill="none" xmlns="http://www.w3.org/2000/svg">
<path fill-rule="evenodd" clip-rule="evenodd" d="M4 5.30233C4 4.55814 4.5701 4 5.33024 4H16.4473V10.0465V20H5.33024C4.5701 20 4 19.4419 4 18.6977V5.30233ZM11.9814 9.48839C11.9814 8.65117 11.2213 7.90699 10.3662 7.90699C9.511 7.90699 8.75086 8.65117 8.75086 9.48839C8.75086 10.3256 9.511 11.0698 10.3662 11.0698C11.2213 11.0698 11.9814 10.3256 11.9814 9.48839ZM10.3662 12C8.37079 12 6.66048 13.4884 6.37543 15.3489H14.3569C14.0718 13.4884 12.3615 12 10.3662 12ZM18.3479 5.58125V18.6045C19.2031 18.6045 19.9632 17.8603 19.9632 17.0231V7.16265C19.9632 6.32544 19.2031 5.58125 18.3479 5.58125Z" fill="#333333"/>
</svg>
