<?xml version="1.0" encoding="UTF-8" standalone="no"?>
<svg
   xmlns:dc="http://purl.org/dc/elements/1.1/"
   xmlns:cc="http://creativecommons.org/ns#"
   xmlns:rdf="http://www.w3.org/1999/02/22-rdf-syntax-ns#"
   xmlns:svg="http://www.w3.org/2000/svg"
   xmlns="http://www.w3.org/2000/svg"
   xmlns:sodipodi="http://sodipodi.sourceforge.net/DTD/sodipodi-0.dtd"
   xmlns:inkscape="http://www.inkscape.org/namespaces/inkscape"
   width="18"
   height="18"
   viewBox="0 0 18 18"
   fill="none"
   version="1.1"
   id="svg22"
   sodipodi:docname="plus.svg"
   inkscape:version="1.0.1 (3bc2e813f5, 2020-09-07)">
  <metadata
     id="metadata28">
    <rdf:RDF>
      <cc:Work
         rdf:about="">
        <dc:format>image/svg+xml</dc:format>
        <dc:type
           rdf:resource="http://purl.org/dc/dcmitype/StillImage" />
      </cc:Work>
    </rdf:RDF>
  </metadata>
  <defs
     id="defs26" />
  <sodipodi:namedview
     pagecolor="#ffffff"
     bordercolor="#666666"
     borderopacity="1"
     objecttolerance="10"
     gridtolerance="10"
     guidetolerance="10"
     inkscape:pageopacity="0"
     inkscape:pageshadow="2"
     inkscape:window-width="1920"
     inkscape:window-height="1017"
     id="namedview24"
     showgrid="false"
     inkscape:zoom="47.222222"
     inkscape:cx="9"
     inkscape:cy="7.3058824"
     inkscape:window-x="-8"
     inkscape:window-y="-8"
     inkscape:window-maximized="1"
     inkscape:current-layer="svg22" />
  <path
     d="m 10.093582,10.107102 3.960039,-7.88e-4 c 0.144742,0.0031 0.288547,-0.02355 0.422839,-0.07805 0.134291,-0.054578 0.256339,-0.1359334 0.358656,-0.2393407 0.102396,-0.1033838 0.182955,-0.2265905 0.236999,-0.3622172 0.05404,-0.1356345 0.08033,-0.2808853 0.07728,-0.427018 0.0031,-0.1472906 -0.02347,-0.2936754 -0.07822,-0.4301999 C 15.016355,8.4329637 14.934622,8.3091584 14.830901,8.2056329 14.727102,8.1020995 14.603573,8.0210275 14.467721,7.9673549 14.33187,7.9136819 14.186661,7.8885349 14.040827,7.8934579 L 10.080793,7.8942 10.081495,3.8950285 c 0.0022,-0.1450066 -0.02457,-0.2889657 -0.07853,-0.423348 C 9.9490748,3.3372982 9.8689055,3.2152334 9.7673992,3.1127002 9.6658774,3.0101671 9.5449995,2.9292605 9.4119324,2.8747688 9.2788731,2.820285 9.1363229,2.7933109 8.9927278,2.7954688 8.8491326,2.793366 8.7065746,2.8203874 8.5734919,2.8749263 8.4404093,2.9294731 8.3195001,3.010427 8.2179393,3.1129916 8.1163707,3.2155642 8.0362091,3.3376605 7.982204,3.4720585 7.928199,3.6064645 7.901442,3.7504315 7.903516,3.8954381 L 7.902783,7.8946095 3.9427522,7.8953577 C 3.7980422,7.8923256 3.654213,7.9188823 3.519906,7.9734291 3.3856067,8.0279759 3.2636058,8.1093865 3.1612417,8.2127624 3.0588698,8.3161382 2.9782637,8.4393529 2.9242508,8.5749796 2.8702379,8.7106141 2.8439411,8.8558648 2.8469357,9.0019976 2.8453448,9.2961612 2.959204,9.5789367 3.1635969,9.7884527 3.3731758,9.9899908 3.6529341,10.100092 3.942347,10.094895 l 3.9600307,-7.09e-4 -7.408e-4,3.999179 c -0.00175,0.145778 0.025377,0.290375 0.079803,0.425443 0.054418,0.134989 0.1350323,0.257613 0.2371001,0.360705 0.1020599,0.103092 0.223515,0.184527 0.3572059,0.23942 0.1336988,0.05497 0.2769352,0.08238 0.4212947,0.08065 0.1436029,0.0012 0.2860049,-0.0267 0.4187679,-0.08207 0.1327551,-0.05537 0.2531729,-0.137036 0.3541255,-0.240207 0.1009213,-0.103171 0.1803888,-0.225795 0.233575,-0.360548 0.05319,-0.134673 0.07908,-0.278877 0.07611,-0.423867 z"
     fill="#333333"
     id="path20"
     style="stroke-width:0.783702" />
</svg>
