<svg width="20" height="20" viewBox="0 0 20 20" fill="none" xmlns="http://www.w3.org/2000/svg">
<path fill-rule="evenodd" clip-rule="evenodd" d="M18.3147 15.5557C19.4135 13.9112 20 11.9778 20 10C20 7.34783 18.9464 4.8043 17.0711 2.92893C15.1957 1.05357 12.6522 0 10 0C8.02219 0 6.08879 0.586489 4.4443 1.6853C2.79981 2.78412 1.51809 4.3459 0.761209 6.17316C0.00433285 8.00042 -0.1937 10.0111 0.192152 11.9509C0.578004 13.8907 1.53041 15.6725 2.92894 17.0711C4.32746 18.4696 6.10929 19.422 8.0491 19.8078C9.98891 20.1937 11.9996 19.9957 13.8268 19.2388C15.6541 18.4819 17.2159 17.2002 18.3147 15.5557ZM10.6483 6.39675L10.6483 9.35308L13.6046 9.36224C13.7671 9.37481 13.9189 9.44825 14.0297 9.56787C14.1404 9.6875 14.2019 9.8445 14.2019 10.0075C14.2019 10.1705 14.1404 10.3275 14.0297 10.4471C13.9189 10.5668 13.7671 10.6402 13.6046 10.6528H10.6483L10.6483 13.6091C10.6552 13.698 10.6436 13.7874 10.6143 13.8717C10.585 13.9559 10.5386 14.0332 10.478 14.0987C10.4174 14.1641 10.3439 14.2164 10.2622 14.2521C10.1805 14.2878 10.0922 14.3062 10.003 14.3062C9.91382 14.3062 9.82559 14.2878 9.74385 14.2521C9.66212 14.2164 9.58865 14.1641 9.52806 14.0987C9.46747 14.0332 9.42106 13.9559 9.39175 13.8717C9.36245 13.7874 9.35087 13.698 9.35775 13.6091L9.35317 10.6482L6.40141 10.6528C6.31638 10.6531 6.23211 10.6366 6.15343 10.6044C6.07475 10.5721 6.0032 10.5246 5.94285 10.4647C5.88251 10.4048 5.83456 10.3336 5.80174 10.2551C5.76892 10.1767 5.75187 10.0925 5.75157 10.0075C5.75127 9.92247 5.76772 9.8382 5.79999 9.75952C5.83225 9.68084 5.8797 9.60929 5.93962 9.54894C5.99953 9.4886 6.07075 9.44065 6.1492 9.40783C6.22765 9.37501 6.3118 9.35796 6.39684 9.35766H9.35317L9.35775 6.39675C9.35087 6.30782 9.36245 6.21842 9.39175 6.13418C9.42106 6.04993 9.46747 5.97265 9.52806 5.90719C9.58865 5.84173 9.66212 5.7895 9.74385 5.75379C9.82559 5.71807 9.91382 5.69963 10.003 5.69963C10.0922 5.69963 10.1805 5.71807 10.2622 5.75379C10.3439 5.7895 10.4174 5.84173 10.478 5.90719C10.5386 5.97265 10.585 6.04993 10.6143 6.13418C10.6436 6.21842 10.6552 6.30782 10.6483 6.39675Z" fill="#1B6EBE"/>
</svg>
