<svg width="16" height="16" viewBox="0 0 16 16" fill="none" xmlns="http://www.w3.org/2000/svg">
<path fill-rule="evenodd" clip-rule="evenodd" d="M14.592 3.33333H12.16V0H3.84V3.33333H1.408C0.64 3.33333 0 3.92857 0 4.64286V5H16V4.64286C16 3.92857 15.488 3.33333 14.592 3.33333ZM4.06154 13L3.2 15.7857C3.2 15.8929 3.32308 16 3.44615 16H12.5538C12.6769 16 12.8 15.8929 12.8 15.7857L11.6923 13H4.06154ZM0.387097 7H15.6122C15.7412 7 16 7.13151 16 7.40133V12.04C16 12.52 15.6129 13 14.9677 13H14.4516L13.8065 11.2C13.8065 11.08 13.6774 10.96 13.5484 10.96H2.58065C2.45161 10.96 2.32258 11.08 2.32258 11.2L1.67742 13H1.03226C0.516129 13 0 12.64 0 12.04V7.36C0 7.24 0.129032 7 0.387097 7ZM7 9C7 9.48 7.35484 10 8 10C8.64516 10 9 9.48 9 9C9 8.4 8.64516 8 8 8C7.35484 8 7 8.4 7 9Z" fill="#1B6EBE"/>
</svg>
