<svg width="20" height="20" viewBox="0 0 20 20" fill="none" xmlns="http://www.w3.org/2000/svg">
<path fill-rule="evenodd" clip-rule="evenodd" d="M18.3147 15.5557C19.4135 13.9112 20 11.9778 20 10C20 7.34783 18.9464 4.8043 17.0711 2.92893C15.1957 1.05357 12.6522 0 10 0C8.02219 0 6.08879 0.586489 4.4443 1.6853C2.79981 2.78412 1.51809 4.3459 0.761209 6.17316C0.00433285 8.00042 -0.1937 10.0111 0.192152 11.9509C0.578004 13.8907 1.53041 15.6725 2.92894 17.0711C4.32746 18.4696 6.10929 19.422 8.0491 19.8078C9.98891 20.1937 11.9996 19.9957 13.8268 19.2388C15.6541 18.4819 17.2159 17.2002 18.3147 15.5557ZM9.20382 10.2755C9.06369 10.6519 8.99363 11.1671 8.99363 11.8212H10.8153C10.8238 11.4807 10.8684 11.2007 10.949 10.9812C11.0297 10.7572 11.1741 10.5399 11.3822 10.3293L12.1146 9.61022C12.4246 9.29212 12.6497 8.98073 12.7898 8.67607C12.9299 8.37142 13 8.03315 13 7.66129C13 6.81004 12.7389 6.15367 12.2166 5.6922C11.6985 5.23073 10.966 5 10.0191 5C9.06794 5 8.32909 5.2509 7.80255 5.75269C7.27601 6.25 7.00849 6.94668 7 7.84274H9.15287C9.16136 7.50672 9.24416 7.24014 9.40127 7.04301C9.55839 6.84588 9.76433 6.74731 10.0191 6.74731C10.5711 6.74731 10.8471 7.08557 10.8471 7.7621C10.8471 8.03988 10.7643 8.29525 10.5987 8.52823C10.4374 8.75672 10.1996 9.00986 9.88535 9.28763C9.57113 9.56541 9.34395 9.89471 9.20382 10.2755ZM9.07006 13.0511C8.84501 13.2616 8.73248 13.5327 8.73248 13.8642C8.73248 14.1958 8.84501 14.4691 9.07006 14.6841C9.29936 14.8947 9.58386 15 9.92357 15C10.2633 15 10.5456 14.8947 10.7707 14.6841C11 14.4691 11.1146 14.1958 11.1146 13.8642C11.1146 13.5327 11 13.2616 10.7707 13.0511C10.5456 12.836 10.2633 12.7285 9.92357 12.7285C9.58386 12.7285 9.29936 12.836 9.07006 13.0511Z" fill="#1B6EBE"/>
</svg>
