<?xml version="1.0" standalone="no"?>
<!DOCTYPE svg PUBLIC "-//W3C//DTD SVG 20010904//EN"
 "http://www.w3.org/TR/2001/REC-SVG-20010904/DTD/svg10.dtd">
<svg version="1.0" xmlns="http://www.w3.org/2000/svg"
 width="1280.000000pt" height="1280.000000pt" viewBox="0 0 1280.000000 1280.000000"
 preserveAspectRatio="xMidYMid meet">
<metadata>
Created by potrace 1.16, written by Peter Selinger 2001-2019
</metadata>
<g transform="translate(0.000000,1280.000000) scale(0.100000,-0.100000)"
fill="#000000" stroke="none">
<path d="M6000 12794 c-932 -65 -1791 -311 -2613 -750 -593 -316 -1044 -650
-1513 -1118 -468 -469 -802 -920 -1118 -1513 -404 -757 -642 -1536 -733 -2398
-26 -245 -26 -985 0 -1230 52 -489 143 -923 286 -1355 265 -799 668 -1525
1204 -2170 156 -186 561 -591 747 -747 900 -748 1982 -1248 3102 -1433 382
-63 536 -74 1033 -75 482 0 598 7 960 61 897 131 1794 472 2555 969 367 240
646 464 964 775 210 206 451 478 482 545 31 66 33 179 4 243 -14 31 -179 204
-602 633 -321 324 -599 600 -618 614 -20 14 -66 32 -103 41 -63 16 -71 16
-134 -1 -78 -21 -114 -54 -253 -225 -218 -269 -542 -567 -843 -773 -630 -433
-1336 -680 -2107 -738 -192 -14 -595 -6 -775 15 -744 91 -1437 363 -2045 805
-865 627 -1478 1609 -1674 2681 -50 275 -61 402 -61 750 0 348 11 474 61 750
115 633 386 1258 777 1790 274 373 647 729 1032 987 495 331 1073 566 1635
667 234 42 389 57 650 63 533 12 985 -57 1485 -227 514 -175 994 -454 1406
-815 l99 -87 -608 -617 c-584 -591 -610 -619 -647 -695 -35 -70 -40 -88 -43
-170 -5 -112 13 -189 70 -299 70 -135 161 -216 291 -261 l62 -21 1940 -3
c1412 -2 1959 0 2008 9 183 30 362 187 417 366 20 64 20 90 20 2032 0 1289 -4
1981 -11 2010 -31 136 -139 263 -280 331 -147 70 -255 86 -374 55 -119 -32
-132 -42 -741 -642 -320 -315 -585 -573 -589 -573 -3 0 -48 38 -98 84 -537
494 -1229 926 -1942 1211 -584 234 -1129 366 -1795 436 -101 10 -857 20 -970
13z"/>
</g>
</svg>
