<svg width="20" height="20" viewBox="0 0 20 20" fill="none" xmlns="http://www.w3.org/2000/svg">
<path fill-rule="evenodd" clip-rule="evenodd" d="M18.3147 15.5557C19.4135 13.9112 20 11.9778 20 10C20 7.34783 18.9464 4.8043 17.0711 2.92893C15.1957 1.05357 12.6522 0 10 0C8.02219 0 6.08879 0.586489 4.4443 1.6853C2.79981 2.78412 1.51809 4.3459 0.761209 6.17316C0.00433285 8.00042 -0.1937 10.0111 0.192152 11.9509C0.578004 13.8907 1.53041 15.6725 2.92894 17.0711C4.32746 18.4696 6.10929 19.422 8.0491 19.8078C9.98891 20.1937 11.9996 19.9957 13.8268 19.2388C15.6541 18.4819 17.2159 17.2002 18.3147 15.5557ZM6.54248 5.47363H11.7714C12.3387 5.99365 12.6675 6.35467 13.1254 6.85749C13.2121 6.95269 13.3035 7.05297 13.4019 7.16038V13.7949C13.4019 14.2447 13.0646 14.5821 12.6148 14.5821H7.32963C6.87983 14.5821 6.54248 14.2447 6.54248 13.7949V5.47363ZM7.9481 11.1082H12.1087V10.2648H7.9481V11.1082ZM7.9481 9.42142H12.1087V8.57805H7.9481V9.42142Z" fill="#1B6EBE"/>
</svg>
