<svg width="20" height="20" viewBox="0 0 20 20" fill="none" xmlns="http://www.w3.org/2000/svg">
<path fill-rule="evenodd" clip-rule="evenodd" d="M18.3147 15.5557C19.4135 13.9112 20 11.9778 20 10C20 7.34783 18.9464 4.8043 17.0711 2.92893C15.1957 1.05357 12.6522 0 10 0C8.02219 0 6.08879 0.586489 4.4443 1.6853C2.79981 2.78412 1.51809 4.3459 0.761209 6.17316C0.00433285 8.00042 -0.1937 10.0111 0.192152 11.9509C0.578004 13.8907 1.53041 15.6725 2.92894 17.0711C4.32746 18.4696 6.10929 19.422 8.0491 19.8078C9.98891 20.1937 11.9996 19.9957 13.8268 19.2388C15.6541 18.4819 17.2159 17.2002 18.3147 15.5557ZM6.54248 5.47363H11.7714C12.3387 5.99365 12.6675 6.35467 13.1254 6.85749C13.2121 6.95269 13.3035 7.05297 13.4019 7.16038V13.7949C13.4019 14.2447 13.0646 14.5821 12.6148 14.5821H7.32963C6.87983 14.5821 6.54248 14.2447 6.54248 13.7949V5.47363ZM7.9481 11.1082H12.1087V10.2648H7.9481V11.1082ZM7.9481 9.42142H12.1087V8.57805H7.9481V9.42142Z" fill="#1B6EBE"/>
<path d="M15.933 7.29891L16.7046 8.06778C16.7658 8.12903 16.8002 8.21197 16.8002 8.29844C16.8002 8.38491 16.7658 8.46786 16.7046 8.5291L13.1671 12.0659L13.0938 12.1313L11.4698 12.7848C11.4355 12.7996 11.3974 12.8035 11.3608 12.7959C11.3242 12.7884 11.2909 12.7697 11.2653 12.7425C11.2339 12.7149 11.2124 12.6778 11.2041 12.6368C11.1957 12.5959 11.201 12.5534 11.219 12.5157L11.8787 10.8895L11.9095 10.8319L15.4624 7.29891C15.493 7.26752 15.5295 7.24257 15.57 7.22553C15.6104 7.20849 15.6538 7.19971 15.6977 7.19971C15.7416 7.19971 15.785 7.20849 15.8255 7.22553C15.8659 7.24257 15.9025 7.26752 15.933 7.29891Z" fill="#BDBDBD"/>
</svg>
