<svg width="14" height="14" viewBox="0 0 14 14" fill="none" xmlns="http://www.w3.org/2000/svg">
<path d="M6.06758 1.60595C6.3976 0.754465 7.6024 0.754467 7.93241 1.60596L8.99115 4.33763C9.13303 4.70371 9.476 4.95289 9.868 4.9747L12.7931 5.13748C13.7049 5.18823 14.0772 6.33406 13.3694 6.91105L11.0986 8.7621C10.7943 9.01016 10.6633 9.41334 10.7637 9.7929L11.5128 12.6252C11.7463 13.508 10.7716 14.2162 10.0041 13.7213L7.54192 12.1336C7.21196 11.9209 6.78803 11.9209 6.45807 12.1336L3.9959 13.7213C3.22841 14.2162 2.25371 13.508 2.48722 12.6252L3.23632 9.7929C3.33671 9.41334 3.20571 9.01016 2.90139 8.7621L0.630579 6.91105C-0.0772539 6.33406 0.295052 5.18823 1.20685 5.13748L4.13199 4.9747C4.52399 4.95289 4.86696 4.70371 5.00884 4.33763L6.06758 1.60595Z"/>
</svg>