<svg width="20" height="20" viewBox="0 0 20 20" fill="none" xmlns="http://www.w3.org/2000/svg">
<path fill-rule="evenodd" clip-rule="evenodd" d="M18.3147 15.5557C19.4135 13.9112 20 11.9778 20 10C20 7.34783 18.9464 4.8043 17.0711 2.92893C15.1957 1.05357 12.6522 0 10 0C8.02219 0 6.08879 0.586489 4.4443 1.6853C2.79981 2.78412 1.51809 4.3459 0.761209 6.17316C0.00433285 8.00042 -0.1937 10.0111 0.192152 11.9509C0.578004 13.8907 1.53041 15.6725 2.92894 17.0711C4.32746 18.4696 6.10929 19.422 8.0491 19.8078C9.98891 20.1937 11.9996 19.9957 13.8268 19.2388C15.6541 18.4819 17.2159 17.2002 18.3147 15.5557ZM14.86 10.089C14.86 8.43311 14.045 6.97001 12.7926 6.07546C12.562 5.91046 12.2399 5.98401 12.1008 6.23051L11.7867 6.78911C11.6694 6.99585 11.7231 7.26025 11.9159 7.40337C12.7787 8.04348 13.2637 9.03743 13.2697 10.0672C13.2816 11.9537 11.7509 13.4287 9.93 13.4287C8.07131 13.4287 6.58834 11.9219 6.59033 10.087C6.59033 8.98773 7.11712 8.01764 7.9421 7.40536C8.13492 7.26223 8.19059 6.99784 8.0733 6.78911L7.75921 6.23051C7.62006 5.98202 7.29603 5.91245 7.06345 6.07744C5.81306 6.97399 4.99802 8.44106 5 10.097C5.00398 12.8125 7.22645 15.025 9.93994 15.019C12.6574 15.0131 14.86 12.8085 14.86 10.089ZM10.7252 5.4771V10.2481C10.7252 10.5125 10.5125 10.7252 10.2481 10.7252H9.61194C9.34755 10.7252 9.13484 10.5125 9.13484 10.2481V5.4771C9.13484 5.21271 9.34755 5 9.61194 5H10.2481C10.5125 5 10.7252 5.21271 10.7252 5.4771Z" fill="#1B6EBE"/>
</svg>
