<svg width="20" height="20" viewBox="0 0 20 20" fill="none" xmlns="http://www.w3.org/2000/svg">
<path fill-rule="evenodd" clip-rule="evenodd" d="M18.3147 15.5557C19.4135 13.9112 20 11.9778 20 10C20 7.34783 18.9464 4.8043 17.0711 2.92893C15.1957 1.05357 12.6522 0 10 0C8.02219 0 6.08879 0.586489 4.4443 1.6853C2.79981 2.78412 1.51809 4.3459 0.761209 6.17316C0.00433285 8.00042 -0.1937 10.0111 0.192152 11.9509C0.578004 13.8907 1.53041 15.6725 2.92894 17.0711C4.32746 18.4696 6.10929 19.422 8.0491 19.8078C9.98891 20.1937 11.9996 19.9957 13.8268 19.2388C15.6541 18.4819 17.2159 17.2002 18.3147 15.5557ZM5 10C5 7.23854 7.23854 5 10 5C12.7609 5 15 7.23854 15 9.99948C15 12.7615 12.7609 15 10 15C7.23854 15 5 12.7615 5 10ZM6.04167 9.99948C6.04167 12.1859 7.81406 13.9578 10 13.9578C12.1859 13.9578 13.9583 12.1859 13.9583 10C13.9583 9.36302 13.8047 8.76406 13.5375 8.23125L10 10V6.04115C7.81354 6.04115 6.04167 7.81354 6.04167 9.99948Z" fill="#1B6EBE"/>
</svg>
