<?xml version="1.0" encoding="UTF-8" standalone="no"?>
<svg
   xmlns:dc="http://purl.org/dc/elements/1.1/"
   xmlns:cc="http://creativecommons.org/ns#"
   xmlns:rdf="http://www.w3.org/1999/02/22-rdf-syntax-ns#"
   xmlns:svg="http://www.w3.org/2000/svg"
   xmlns="http://www.w3.org/2000/svg"
   xmlns:sodipodi="http://sodipodi.sourceforge.net/DTD/sodipodi-0.dtd"
   xmlns:inkscape="http://www.inkscape.org/namespaces/inkscape"
   width="25"
   height="25"
   viewBox="0 0 25 25"
   fill="none"
   id="svg2"
   version="1.1"
   inkscape:version="0.91 r13725"
   sodipodi:docname="user-alt.svg">
  <metadata
     id="metadata10">
    <rdf:RDF>
      <cc:Work
         rdf:about="">
        <dc:format>image/svg+xml</dc:format>
        <dc:type
           rdf:resource="http://purl.org/dc/dcmitype/StillImage" />
      </cc:Work>
    </rdf:RDF>
  </metadata>
  <defs
     id="defs8" />
  <sodipodi:namedview
     pagecolor="#ffffff"
     bordercolor="#666666"
     borderopacity="1"
     objecttolerance="10"
     gridtolerance="10"
     guidetolerance="10"
     inkscape:pageopacity="0"
     inkscape:pageshadow="2"
     inkscape:window-width="1317"
     inkscape:window-height="744"
     id="namedview6"
     showgrid="false"
     inkscape:zoom="9.44"
     inkscape:cx="-3.834995"
     inkscape:cy="2.1434629"
     inkscape:window-x="49"
     inkscape:window-y="24"
     inkscape:window-maximized="1"
     inkscape:current-layer="svg2" />
  <path
     d="M 12.500001,-2.4506916e-7 C 10.027739,-2.4506916e-7 7.6109898,0.73310679 5.5553828,2.1066304 3.4997638,3.480142 1.8976091,5.4323798 0.95151383,7.7164508 0.00541866,10.000474 -0.24212901,12.513807 0.24019243,14.938568 c 0.48230954,2.424761 1.67282137,4.652142 3.42097607,6.400237 1.7481548,1.748215 3.9754403,2.93869 6.4002615,3.420951 2.424762,0.482382 4.938095,0.234882 7.222143,-0.711308 2.284047,-0.946072 4.236308,-2.548214 5.609762,-4.603809 C 24.266905,17.389044 25,14.972259 25,12.499998 25,9.1847839 23.683096,6.0053677 21.338811,3.6611658 18.994644,1.3169639 15.815239,-2.4506916e-7 12.500001,-2.4506916e-7 Z M 18.26131,17.431782 c 0,0.500357 -0.198691,0.980119 -0.552499,1.333928 -0.353691,0.353691 -0.833572,0.552501 -1.33381,0.552501 l -7.8068089,0 C 8.0777991,19.303449 7.6124779,19.098092 7.2709065,18.745949 6.9293469,18.393806 6.7384185,17.922378 6.7386446,17.431782 l 0,-0.329524 c 8.452e-4,-0.102024 0.032869,-0.201309 0.091775,-0.284523 0.058905,-0.08334 0.1418691,-0.146667 0.2377738,-0.181429 1.5541076,-0.464404 2.8916902,-1.467619 3.7727616,-2.829523 l 0,-0.409047 C 10.350001,12.86714 9.998573,12.222735 9.8182157,11.522736 9.6964304,11.432143 9.5940492,11.318211 9.5169896,11.187498 9.4399726,11.056665 9.3899424,10.911902 9.3698117,10.761426 9.3496907,10.611069 9.3598517,10.458093 9.3998197,10.311783 9.4397357,10.165355 9.5085816,10.02845 9.60226,9.9090454 l 0,-1.5454161 C 9.5779731,7.9851888 9.6384466,7.6060937 9.7795223,7.2540461 9.9204749,6.9019986 10.138332,6.5859154 10.417142,6.3288678 10.69595,6.0718321 11.028689,5.8803321 11.391069,5.7683916 c 0.362262,-0.1119523 0.745119,-0.1415357 1.120238,-0.086572 2.022739,0 2.909168,1.1363569 2.909168,2.6818091 l 0,1.545416 c 0.09369,0.1194041 0.162499,0.2563091 0.20238,0.4027371 0.04,0.14631 0.05024,0.299286 0.03,0.449643 -0.02013,0.150476 -0.07012,0.295239 -0.147143,0.426072 -0.07703,0.130713 -0.179404,0.244643 -0.301191,0.335238 -0.180356,0.699999 -0.531784,1.344404 -1.022737,1.875 l 0,0.409047 c 0.878214,1.359761 2.211428,2.362737 3.761428,2.829523 0.09584,0.03476 0.17881,0.0981 0.237737,0.181429 0.05893,0.08322 0.09095,0.182499 0.09179,0.284523 l -0.01144,0.329524 z"
     id="path4"
     inkscape:connector-curvature="0"
     style="fill:#000000" />
</svg>
