<svg width="14" height="12" viewBox="0 0 14 12" fill="none" xmlns="http://www.w3.org/2000/svg">
<path fill-rule="evenodd" clip-rule="evenodd" d="M7.66915 7.35311C7.65195 7.68444 7.35934 7.94519 7.00415 7.94519C6.64952 7.94519 6.35719 7.6855 6.33915 7.35442L6.15986 4.06528C6.13562 3.61621 6.51872 3.23956 6.99992 3.23956C7.48056 3.23956 7.86338 3.61489 7.83998 4.06343L7.66915 7.35311ZM7.0033 10.396C6.561 10.396 6.26642 10.0978 6.26642 9.69986C6.26642 9.2953 6.56974 9.00453 7.0033 9.00453C7.43714 9.00453 7.72299 9.2953 7.73173 9.69986C7.73173 10.0978 7.44532 10.396 7.0033 10.396ZM13.8777 10.7463L7.76922 0.413448C7.42587 -0.137289 6.57397 -0.138079 6.23061 0.412658L0.12242 10.7466C-0.223471 11.3012 0.204734 12 0.891723 12H13.1084C13.7954 12 14.2233 11.301 13.8777 10.7463Z" fill="white"/>
</svg>
