<?xml version="1.0" encoding="UTF-8" standalone="no"?>
<svg
   xmlns:dc="http://purl.org/dc/elements/1.1/"
   xmlns:cc="http://creativecommons.org/ns#"
   xmlns:rdf="http://www.w3.org/1999/02/22-rdf-syntax-ns#"
   xmlns:svg="http://www.w3.org/2000/svg"
   xmlns="http://www.w3.org/2000/svg"
   xmlns:sodipodi="http://sodipodi.sourceforge.net/DTD/sodipodi-0.dtd"
   xmlns:inkscape="http://www.inkscape.org/namespaces/inkscape"
   width="25"
   height="25"
   viewBox="0 0 25 25"
   fill="none"
   id="svg2"
   version="1.1"
   inkscape:version="0.91 r13725"
   sodipodi:docname="zoom-in.svg">
  <metadata
     id="metadata10">
    <rdf:RDF>
      <cc:Work
         rdf:about="">
        <dc:format>image/svg+xml</dc:format>
        <dc:type
           rdf:resource="http://purl.org/dc/dcmitype/StillImage" />
        <dc:title></dc:title>
      </cc:Work>
    </rdf:RDF>
  </metadata>
  <defs
     id="defs8" />
  <sodipodi:namedview
     pagecolor="#ffffff"
     bordercolor="#666666"
     borderopacity="1"
     objecttolerance="10"
     gridtolerance="10"
     guidetolerance="10"
     inkscape:pageopacity="0"
     inkscape:pageshadow="2"
     inkscape:window-width="1317"
     inkscape:window-height="744"
     id="namedview6"
     showgrid="false"
     inkscape:zoom="13.350176"
     inkscape:cx="-6.4764891"
     inkscape:cy="6.1183722"
     inkscape:window-x="49"
     inkscape:window-y="24"
     inkscape:window-maximized="1"
     inkscape:current-layer="svg2" />
  <path
     fill-rule="evenodd"
     clip-rule="evenodd"
     d="M13.0702 6.81932C14.9571 8.716 14.9571 11.7911 13.0702 13.6878C11.1834 15.5845 8.12432 15.5845 6.23752 13.6878C4.35071 11.7911 4.35071 8.716 6.23752 6.81932C8.12432 4.92264 11.1834 4.92264 13.0702 6.81932ZM14.4808 15.1057C17.1466 12.4259 17.1466 8.08118 14.4808 5.40142C11.815 2.72166 7.49281 2.72166 4.827 5.40142C2.16118 8.08118 2.16118 12.4259 4.827 15.1057C7.49281 17.7855 11.815 17.7855 14.4808 15.1057ZM19.4715 22.0707C19.7599 22.3347 20.1395 22.4751 20.5293 22.462V22.5121C20.8252 22.5119 21.1144 22.4235 21.3603 22.2581C21.6062 22.0927 21.7979 21.8578 21.9111 21.583C22.0243 21.3082 22.0539 21.0058 21.9963 20.7141C21.9386 20.4224 21.7963 20.1544 21.5872 19.9439L18.4834 16.8239C18.1997 16.5581 17.8243 16.4134 17.4365 16.4203C17.0487 16.4272 16.6787 16.5851 16.4044 16.8608C16.1301 17.1365 15.973 17.5085 15.9662 17.8983C15.9593 18.2882 16.1033 18.6655 16.3677 18.9507L19.4715 22.0707Z"
     fill="black"
     id="path4" />
  <path
     style="opacity:1;fill:#000000;fill-opacity:1;stroke:#000000;stroke-width:1;stroke-linecap:round;stroke-linejoin:round;stroke-miterlimit:4;stroke-dasharray:none;stroke-opacity:1"
     d="M 8.9511719 7.2480469 L 8.9511719 9.6816406 L 6.5175781 9.6816406 L 6.5175781 11.068359 L 8.9511719 11.068359 L 8.9511719 13.501953 L 10.337891 13.501953 L 10.337891 11.068359 L 12.771484 11.068359 L 12.771484 9.6816406 L 10.337891 9.6816406 L 10.337891 7.2480469 L 8.9511719 7.2480469 z "
     id="rect4138" />
</svg>
