<svg width="25" height="25" viewBox="0 0 25 25" fill="none" xmlns="http://www.w3.org/2000/svg">
    <path fill-rule="evenodd" clip-rule="evenodd" d="M17.5211 5.19164V3.43936C17.5211 3.13013 17.9321 2.92398 18.1376 3.02706L20.9119 5.50087C21.2202 5.70702 21.2202 6.2224 20.9119 6.42855L18.1376 8.90236C17.8294 9.10851 17.4184 8.90236 17.4184 8.59313V6.84085H13.822C13.411 6.84085 13 6.53162 13 6.01625C13 5.50087 13.411 5.19164 13.822 5.19164H17.5211ZM4.01716 4.67846C3.90759 4.2403 4.34586 3.91168 4.67456 4.02122L9.05723 4.89754C9.27636 4.89754 9.4955 5.11662 9.4955 5.33571C9.53534 5.61454 9.57518 5.83543 9.61502 6.05632C9.68475 6.44288 9.75447 6.82944 9.8242 7.52651L8.5094 9.9364C9.1668 11.3604 10.0433 12.6749 11.139 13.7703C12.2347 14.8657 13.5495 15.742 14.9738 16.3993L17.4939 15.1943C18.2334 15.3587 18.7881 15.523 19.3428 15.6873C19.5277 15.742 19.7126 15.7968 19.9043 15.8516C19.9302 15.8774 19.9622 15.9033 19.9959 15.9306C20.1051 16.0189 20.233 16.1224 20.233 16.2897L21 20.3427C21 20.6714 20.6713 21 20.3426 21C16.1791 20.8904 12.1251 19.2473 8.94766 16.0707C5.87979 12.894 4.12673 8.841 4.01716 4.67846Z" fill="white"/>
</svg>
