<svg width="25" height="25" viewBox="0 0 25 25" fill="none" xmlns="http://www.w3.org/2000/svg">
    <path fill-rule="evenodd" clip-rule="evenodd" d="M4.80971 4.00005H20.1903C20.2977 3.99882 20.4043 4.01922 20.5036 4.06006C20.603 4.10089 20.6931 4.16131 20.7687 4.23773C20.8442 4.31415 20.9036 4.40499 20.9433 4.50485C20.983 4.60471 21.0022 4.71155 20.9998 4.819V20.199C20.9998 20.3049 20.9788 20.4098 20.938 20.5076C20.8972 20.6054 20.8375 20.6941 20.7622 20.7686C20.6869 20.8431 20.5976 20.9019 20.4994 20.9416C20.4012 20.9813 20.2962 21.0011 20.1903 20.9999H4.80071C4.5884 20.9999 4.38479 20.9156 4.23467 20.7654C4.08454 20.6152 4.0002 20.4114 4.0002 20.199V4.819C3.99778 4.71155 4.017 4.60471 4.05671 4.50485C4.09642 4.40499 4.15581 4.31415 4.23135 4.23773C4.30688 4.16131 4.39701 4.10089 4.49638 4.06006C4.59574 4.01922 4.7023 3.99882 4.80971 4.00005ZM18.1386 18.4791C18.2313 18.3863 18.2835 18.2604 18.2835 18.1291V15.2943C18.2835 15.163 18.2313 15.0371 18.1386 14.9443C18.0458 14.8515 17.92 14.7994 17.7888 14.7994H7.22023C7.15452 14.7957 7.08875 14.8052 7.02676 14.8274C6.96477 14.8495 6.90782 14.8838 6.85924 14.9282C6.81066 14.9726 6.77142 15.0263 6.74383 15.086C6.71624 15.1458 6.70084 15.2105 6.69855 15.2763V18.1291C6.69845 18.1965 6.71208 18.2631 6.73861 18.325C6.76515 18.3869 6.80402 18.4427 6.85285 18.489C6.90168 18.5354 6.95945 18.5712 7.02262 18.5945C7.08579 18.6177 7.15303 18.6278 7.22023 18.6241H17.7888C17.92 18.6241 18.0458 18.572 18.1386 18.4791ZM18.1386 12.9715C18.2313 12.8787 18.2835 12.7528 18.2835 12.6215V6.89786C18.2835 6.76659 18.2313 6.64069 18.1386 6.54787C18.0458 6.45505 17.92 6.4029 17.7888 6.4029H7.19325C7.06205 6.4029 6.93622 6.45505 6.84344 6.54787C6.75067 6.64069 6.69855 6.76659 6.69855 6.89786V12.6215C6.69845 12.6888 6.71208 12.7555 6.73861 12.8174C6.76515 12.8792 6.80402 12.9351 6.85285 12.9814C6.90168 13.0277 6.95945 13.0636 7.02262 13.0868C7.08579 13.11 7.15303 13.1201 7.22023 13.1165H17.7888C17.92 13.1165 18.0458 13.0643 18.1386 12.9715ZM10.377 8.00147H14.5847C14.6601 7.99421 14.7357 8.0139 14.8019 8.05809C14.8681 8.10228 14.922 8.169 14.9568 8.2499C14.9917 8.33079 15.0059 8.42226 14.9978 8.51285C14.9896 8.60345 14.9595 8.68913 14.9111 8.75918L13.862 10.5693C13.4374 10.8518 12.9602 11 12.475 11C11.9899 11 11.5126 10.8518 11.088 10.5693L10.0623 8.71709C10.0249 8.64786 10.0035 8.56784 10.0004 8.48532C9.9973 8.4028 10.0126 8.32078 10.0447 8.24777C10.0768 8.17477 10.1245 8.11343 10.183 8.07012C10.2414 8.02681 10.3084 8.00311 10.377 8.00147Z" fill="white"/>
</svg>
