<svg width="25" height="25" viewBox="0 0 25 25" fill="none" xmlns="http://www.w3.org/2000/svg">
    <path fill-rule="evenodd" clip-rule="evenodd" d="M11.8078 7.46263C11.6371 7.3162 11.5266 7.11325 11.4972 6.89205L10.6817 3.95912C10.649 3.82293 10.6484 3.68115 10.6801 3.54472C10.7118 3.40829 10.7748 3.28086 10.8644 3.17227C10.9539 3.06367 11.0676 2.97681 11.1966 2.91838C11.3256 2.85995 11.4665 2.83153 11.6084 2.83529H13.1375C13.2774 2.83221 13.4163 2.86042 13.5436 2.91782C13.6709 2.97521 13.7833 3.0603 13.8725 3.16669C13.9617 3.27308 14.0253 3.398 14.0585 3.53208C14.0917 3.66616 14.0936 3.80592 14.0642 3.94085L13.3506 6.89205C13.3212 7.11325 13.2107 7.3162 13.04 7.46263C12.8693 7.60906 12.6502 7.68885 12.4239 7.68696C12.1976 7.68885 11.9785 7.60906 11.8078 7.46263ZM15.9363 6.68213H22.201C22.2995 6.68206 22.397 6.7016 22.4877 6.73957C22.5784 6.77755 22.6604 6.83318 22.7287 6.90314C22.7971 6.9731 22.8504 7.05594 22.8855 7.1467C22.9206 7.23746 22.9368 7.33428 22.9331 7.43135V20.1133C22.9331 20.3047 22.8559 20.4883 22.7186 20.6237C22.5813 20.7591 22.3951 20.8351 22.201 20.8351H2.6657C2.47154 20.8351 2.28532 20.7591 2.14802 20.6237C2.01073 20.4883 1.93359 20.3047 1.93359 20.1133V7.40394C1.93359 7.2125 2.01073 7.02891 2.14802 6.89354C2.28532 6.75818 2.47154 6.68213 2.6657 6.68213H8.46697C8.64906 6.68457 8.82557 6.74444 8.97065 6.85295C9.11574 6.96147 9.22177 7.11293 9.27321 7.28516C9.59757 8.28108 10.1999 9.27699 11.1267 9.27699H13.4064C14.3128 9.27699 14.6959 8.41507 15.0575 7.60153C15.1395 7.41695 15.2205 7.23485 15.3062 7.06588C15.3655 6.95118 15.4557 6.85474 15.5668 6.78708C15.6779 6.71941 15.8057 6.68311 15.9363 6.68213ZM10.994 18.4046C11.0494 18.3483 11.0804 18.273 11.0803 18.1946L11.0618 17.1804C11.0623 17.1193 11.0439 17.0595 11.0092 17.0089C10.9744 16.9583 10.9249 16.9193 10.8672 16.8971C9.89861 16.6119 9.06435 15.9966 8.5133 15.1611V14.9053C8.85708 14.5911 9.11249 14.1945 9.25468 13.754C9.33242 13.6992 9.39786 13.6292 9.4469 13.5483C9.49595 13.4674 9.52755 13.3774 9.53972 13.284C9.5519 13.1905 9.54439 13.0956 9.51767 13.0051C9.49095 12.9146 9.44559 12.8305 9.38442 12.7581V11.8444C9.38442 10.8668 8.79132 10.1998 7.53098 10.1998C7.29436 10.1591 7.05145 10.172 6.82061 10.2374C6.58978 10.3029 6.37705 10.4192 6.19851 10.5776C6.01998 10.7361 5.88031 10.9324 5.79005 11.1519C5.6998 11.3714 5.66133 11.6082 5.67754 11.8444V12.7581C5.61638 12.8305 5.57101 12.9146 5.54429 13.0051C5.51757 13.0956 5.51006 13.1905 5.52224 13.284C5.53442 13.3774 5.56601 13.4674 5.61506 13.5483C5.6641 13.6292 5.72954 13.6992 5.80728 13.754C5.92023 14.1842 6.13998 14.5798 6.44672 14.9053V15.1154C5.89508 15.9504 5.06105 16.5655 4.09285 16.8514C4.03513 16.8737 3.98561 16.9126 3.95086 16.9632C3.9161 17.0138 3.89775 17.0736 3.89824 17.1347V18.1946C3.8982 18.273 3.92915 18.3483 3.98451 18.4046C4.03987 18.4609 4.1153 18.4937 4.19479 18.4961H10.7838C10.8633 18.4937 10.9387 18.4609 10.994 18.4046ZM13.9439 16.1205H19.4208C19.5352 16.1205 19.6485 16.0983 19.7542 16.0551C19.8598 16.012 19.9559 15.9487 20.0368 15.8689C20.1177 15.7892 20.1818 15.6945 20.2256 15.5903C20.2694 15.4861 20.2919 15.3744 20.2919 15.2616C20.2919 15.1488 20.2694 15.0372 20.2256 14.933C20.1818 14.8288 20.1177 14.7341 20.0368 14.6543C19.9559 14.5746 19.8598 14.5113 19.7542 14.4681C19.6485 14.425 19.5352 14.4028 19.4208 14.4028H13.9439C13.7128 14.4028 13.4913 14.4933 13.3279 14.6543C13.1645 14.8154 13.0728 15.0338 13.0728 15.2616C13.0728 15.4894 13.1645 15.7079 13.3279 15.8689C13.4913 16.03 13.7128 16.1205 13.9439 16.1205ZM13.9439 13.1693H19.4208C19.5352 13.1693 19.6485 13.1471 19.7542 13.1039C19.8598 13.0608 19.9559 12.9975 20.0368 12.9177C20.1177 12.838 20.1818 12.7433 20.2256 12.6391C20.2694 12.5349 20.2919 12.4232 20.2919 12.3104C20.2919 12.1976 20.2694 12.086 20.2256 11.9818C20.1818 11.8776 20.1177 11.7829 20.0368 11.7031C19.9559 11.6234 19.8598 11.5601 19.7542 11.5169C19.6485 11.4738 19.5352 11.4516 19.4208 11.4516H13.9439C13.7128 11.4516 13.4913 11.5421 13.3279 11.7031C13.1645 11.8642 13.0728 12.0826 13.0728 12.3104C13.0728 12.5382 13.1645 12.7567 13.3279 12.9177C13.4913 13.0788 13.7128 13.1693 13.9439 13.1693Z" fill="white"/>
</svg>
