<svg width="25" height="25" viewBox="0 0 25 25" fill="none" xmlns="http://www.w3.org/2000/svg">
    <path fill-rule="evenodd" clip-rule="evenodd" d="M10.1848 12.8241C10.1848 12.6806 10.2806 12.4892 10.4241 12.3935L15.5446 8.66079C15.6881 8.51723 15.9274 8.51723 16.1188 8.61294C16.3102 8.70865 16.406 8.90007 16.406 9.09148V11.5321H19.7079C20.4257 11.5321 21 12.1063 21 12.8241C21 13.542 20.4257 14.1162 19.7079 14.1162H16.406V16.5568C16.406 16.7482 16.3102 16.9397 16.1188 17.0354C15.9274 17.1311 15.736 17.1311 15.5446 16.9875L10.4241 13.2548C10.2806 13.1591 10.1848 13.0156 10.1848 12.8241ZM7.69692 18.4694H13.0566V20.7664H6.5484C5.92629 20.7664 5.39989 20.24 5.39989 19.6179V6.07503C5.39989 5.45292 5.92629 4.92651 6.5484 4.92651H13.0566V7.17568L7.69692 7.17568V18.4694Z" fill="white"/>
</svg>
