<svg width="25" height="25" viewBox="0 0 25 25" fill="none" xmlns="http://www.w3.org/2000/svg">
    <path d="M12.5 2C10.4233 2 8.39323 2.61581 6.66652 3.76957C4.9398 4.92332 3.59399 6.5632 2.79927 8.48182C2.00455 10.4004 1.79661 12.5116 2.20176 14.5484C2.6069 16.5852 3.60693 18.4562 5.07538 19.9246C6.54383 21.3931 8.41475 22.3931 10.4516 22.7982C12.4884 23.2034 14.5996 22.9955 16.5182 22.2007C18.4368 21.406 20.0767 20.0602 21.2304 18.3335C22.3842 16.6068 23 14.5767 23 12.5C23 9.71522 21.8938 7.04451 19.9246 5.07538C17.9555 3.10625 15.2848 2 12.5 2ZM17.3395 16.6427C17.3395 17.063 17.1726 17.466 16.8754 17.7632C16.5783 18.0603 16.1752 18.2273 15.755 18.2273H9.19728C8.78535 18.2149 8.39448 18.0424 8.10756 17.7466C7.82065 17.4508 7.66027 17.0548 7.66046 16.6427V16.3659C7.66117 16.2802 7.68807 16.1968 7.73755 16.1269C7.78703 16.0569 7.85672 16.0037 7.93728 15.9745C9.24273 15.5844 10.3663 14.7417 11.1064 13.5977V13.2541C10.694 12.8084 10.3988 12.2671 10.2473 11.6791C10.145 11.603 10.059 11.5073 9.99427 11.3975C9.92958 11.2876 9.88755 11.166 9.87064 11.0396C9.85374 10.9133 9.86231 10.7848 9.89585 10.6619C9.92938 10.5389 9.98721 10.4239 10.0659 10.3236V9.02545C10.0455 8.70756 10.0963 8.38912 10.2148 8.0934C10.3332 7.79768 10.5162 7.53217 10.7504 7.31625C10.9846 7.10034 11.2641 6.93948 11.5685 6.84545C11.8728 6.75141 12.1944 6.72656 12.5095 6.77273C14.2086 6.77273 14.9532 7.72727 14.9532 9.02545V10.3236C15.0319 10.4239 15.0897 10.5389 15.1232 10.6619C15.1568 10.7848 15.1654 10.9133 15.1484 11.0396C15.1315 11.166 15.0895 11.2876 15.0248 11.3975C14.9601 11.5073 14.8741 11.603 14.7718 11.6791C14.6203 12.2671 14.3251 12.8084 13.9127 13.2541V13.5977C14.6504 14.7399 15.7703 15.5824 17.0723 15.9745C17.1528 16.0037 17.2225 16.0569 17.272 16.1269C17.3215 16.1968 17.3484 16.2802 17.3491 16.3659L17.3395 16.6427Z" fill="white"/>
</svg>
