<svg width="25" height="25" viewBox="0 0 25 25" fill="none" xmlns="http://www.w3.org/2000/svg">
    <path fill-rule="evenodd" clip-rule="evenodd" d="M4.81068 4.00005H20.1896C20.297 3.99883 20.4044 4.01922 20.504 4.06005C20.6036 4.10088 20.6935 4.16131 20.7697 4.23772C20.8439 4.31414 20.9044 4.40496 20.9435 4.50481C20.9611 4.55199 20.9767 4.6007 20.9865 4.65032C20.9962 4.70574 21.0021 4.76226 21.0001 4.81896V20.199C21.0001 20.2537 20.9943 20.3082 20.9826 20.3616C20.9728 20.4114 20.9572 20.4604 20.9376 20.5076C20.8966 20.6053 20.838 20.6941 20.7619 20.7685C20.6876 20.8431 20.5978 20.9018 20.5001 20.9416C20.4005 20.9813 20.297 21.0012 20.1896 20.9999H4.80091C4.58802 20.9999 4.3849 20.9156 4.23451 20.7654C4.13881 20.6696 4.07045 20.5521 4.03334 20.4243C4.01185 20.3517 4.00013 20.2759 4.00013 20.199V4.81896C3.99818 4.71154 4.01771 4.60473 4.05677 4.50481C4.09584 4.40496 4.15638 4.31414 4.2306 4.23772C4.30677 4.16131 4.39662 4.10088 4.49623 4.06005C4.59584 4.01922 4.70326 3.99883 4.81068 4.00005ZM18.1388 18.4791C18.2306 18.3863 18.2833 18.2604 18.2833 18.1291V15.2943C18.2833 15.163 18.2306 15.0372 18.1388 14.9443C18.0841 14.8902 18.0197 14.85 17.9494 14.8258C17.8986 14.8085 17.8439 14.7994 17.7892 14.7994H7.22084C7.15443 14.7957 7.08802 14.8052 7.02748 14.8274C6.96498 14.8495 6.90834 14.8837 6.85951 14.9282C6.81068 14.9726 6.77162 15.0262 6.74427 15.0861C6.71693 15.1458 6.70131 15.2105 6.69935 15.2763V18.1291C6.69935 18.1683 6.70326 18.2073 6.71302 18.2453L6.73841 18.325C6.76576 18.3869 6.80482 18.4427 6.85365 18.489C6.90248 18.5353 6.95912 18.5712 7.02357 18.5945C7.08607 18.6177 7.15248 18.6277 7.22084 18.6241H17.7892C17.9201 18.6241 18.0451 18.572 18.1388 18.4791ZM18.1388 12.9715C18.2306 12.8787 18.2833 12.7527 18.2833 12.6215V6.89788C18.2833 6.76659 18.2306 6.64068 18.1388 6.54784C18.0451 6.45501 17.9201 6.40288 17.7892 6.40288H7.19349C7.06263 6.40288 6.93568 6.45501 6.84388 6.54784C6.75013 6.64068 6.69935 6.76659 6.69935 6.89788V12.6215C6.69935 12.6888 6.71302 12.7555 6.73841 12.8174C6.76576 12.8793 6.80482 12.935 6.85365 12.9814C6.90248 13.0277 6.95912 13.0636 7.02357 13.0868C7.08607 13.11 7.15248 13.1201 7.22084 13.1164H17.7892C17.9201 13.1164 18.0451 13.0643 18.1388 12.9715ZM10.3771 8.00146H14.5841C14.6603 7.99419 14.7365 8.01391 14.8029 8.0581C14.8673 8.10229 14.922 8.169 14.9572 8.24987C14.9923 8.3308 15.006 8.42223 14.9982 8.51287C14.9904 8.60345 14.9591 8.68914 14.9103 8.75915L13.8615 10.5693C13.4376 10.8518 12.9611 11 12.4747 11C11.9904 11 11.5119 10.8518 11.088 10.5693L10.0626 8.71709C10.0431 8.68004 10.0275 8.63988 10.0177 8.59789C10.0079 8.56145 10.0021 8.52361 10.0001 8.48528C9.99818 8.40276 10.0119 8.32079 10.0451 8.24779C10.0763 8.17473 10.1251 8.11339 10.1837 8.07012C10.213 8.04839 10.2443 8.03167 10.2775 8.02013C10.3107 8.0086 10.3439 8.00225 10.3771 8.00146Z" fill="white"/>
</svg>
