<svg width="23" height="15" viewBox="0 0 23 15" fill="none" xmlns="http://www.w3.org/2000/svg">
    <path fill-rule="evenodd" clip-rule="evenodd" d="M11.3336 14.1001C14.6883 14.1001 16.955 13.0154 16.955 12.7443V11.2077C16.955 11.027 16.8644 10.8462 16.683 10.7558C15.8454 10.4427 15.1287 10.2501 14.5536 10.0955C13.6346 9.8486 13.0771 9.6988 12.9656 9.30965V8.31542C15.1417 8.31542 15.9577 7.59234 15.9577 7.59234C15.051 7.14041 14.779 3.6154 14.779 3.6154C14.779 1.71731 13.419 0 11.3336 0C9.33884 0 7.88813 1.71731 7.88813 3.6154C7.88813 3.6154 7.61613 7.05003 6.70944 7.50195C6.70944 7.50195 7.52546 8.22503 9.70152 8.22503V9.21926C9.58998 9.60842 9.03253 9.75821 8.11356 10.0052C7.53844 10.1597 6.82172 10.3523 5.98408 10.6654C5.80274 10.7558 5.71208 10.9366 5.71208 11.1173V12.7443C5.71208 12.925 7.61613 14.1001 11.3336 14.1001ZM22.5767 9.12856C21.9803 8.90558 21.4758 8.77429 21.0821 8.67184C20.5184 8.52513 20.1821 8.4376 20.1287 8.22471V7.50163C21.5794 7.50163 22.1234 7.0497 22.1234 7.0497C21.4887 6.68816 21.3074 4.33816 21.3074 4.33816C21.3074 3.16315 20.4007 1.98815 19.0407 1.98815C17.9526 1.98815 17.1366 2.71123 16.8646 3.70546C16.5926 5.78431 17.9526 7.50163 17.9526 7.50163V8.13432C17.862 8.40548 17.4993 8.49586 16.7739 8.67663C16.6833 8.67663 16.7739 8.8574 16.7739 8.8574L18.2246 9.4901C18.678 9.67087 18.95 10.1228 18.95 10.6651L19.1313 10.8459H21.126C22.7581 10.8459 22.7581 9.39971 22.7581 9.39971C22.8488 9.21894 22.7581 9.12856 22.5767 9.12856ZM3.98944 10.7557C3.98944 10.3038 4.35212 9.94226 4.80546 9.85187C4.80546 9.85187 5.53082 9.6711 6.52818 9.21918C6.61885 9.12879 6.61885 8.94802 6.43751 8.85764C5.53082 8.31533 4.89613 7.77302 4.80546 7.41148V7.14033C5.07747 6.86917 5.34948 6.41725 5.44015 5.96532C5.62149 5.87494 5.71215 5.60378 5.71215 5.33263C5.71215 5.15186 5.62149 4.97109 5.53082 4.8807V3.88647C5.53082 2.89224 4.9868 2.16916 3.62676 2.16916C2.44807 2.16916 1.81338 2.89224 1.81338 3.88647V4.8807C1.72271 5.06147 1.72271 5.15186 1.72271 5.33263C1.72271 5.60378 1.81338 5.78455 1.99472 5.96532L1.99472 5.96533C2.17606 6.41725 2.3574 6.86917 2.6294 7.14033V7.41148C2.53874 7.86341 1.63204 8.67687 0.181338 9.21918C0.0906691 9.30956 0 9.39995 0 9.58072V9.76149C0 10.3942 0.544015 10.9365 1.1787 10.9365H3.8081L3.98944 10.7557Z" fill="white"/>
</svg>
