<svg width="129" height="92" viewBox="0 0 129 92" fill="none" xmlns="http://www.w3.org/2000/svg">
<path fill-rule="evenodd" clip-rule="evenodd" d="M4.97496 0.00028423H88.0301C88.6101 -0.0063686 89.1856 0.10383 89.7221 0.32432C90.2587 0.544809 90.7454 0.871103 91.1533 1.28376C91.5612 1.69639 91.8819 2.18696 92.0963 2.72621C92.3107 3.26545 92.4145 3.84239 92.4014 4.42262V87.4746C92.4015 88.0467 92.2881 88.6131 92.0678 89.1411C91.8475 89.669 91.5248 90.148 91.1182 90.5502C90.7117 90.9525 90.2294 91.2701 89.6993 91.4845C89.1692 91.699 88.6019 91.8062 88.0301 91.7997H4.92639C3.77993 91.7997 2.68042 91.3441 1.86974 90.5329C1.05907 89.7218 0.603637 88.6217 0.603637 87.4746V4.42262C0.590564 3.84239 0.694336 3.26545 0.90877 2.72621C1.12321 2.18696 1.44392 1.69639 1.8518 1.28376C2.25969 0.871103 2.74641 0.544809 3.28297 0.32432C3.81952 0.10383 4.39495 -0.0063686 4.97496 0.00028423ZM76.9508 78.1873C77.4518 77.686 77.7332 77.0062 77.7332 76.2973V60.9893C77.7332 60.2805 77.4518 59.6006 76.9508 59.0993C76.4498 58.5981 75.7703 58.3165 75.0619 58.3165H17.9918C17.637 58.2969 17.2818 58.3483 16.947 58.4678C16.6123 58.5872 16.3048 58.7723 16.0424 59.0122C15.7801 59.252 15.5682 59.5419 15.4192 59.8647C15.2702 60.1875 15.1871 60.5368 15.1747 60.8921V76.2973C15.1742 76.661 15.2478 77.0209 15.3911 77.355C15.5343 77.6892 15.7442 77.9906 16.0079 78.2408C16.2716 78.491 16.5836 78.6847 16.9247 78.8101C17.2658 78.9356 17.6289 78.99 17.9918 78.9702H75.0619C75.7703 78.9702 76.4498 78.6886 76.9508 78.1873ZM76.9508 48.4461C77.4518 47.9448 77.7332 47.2649 77.7332 46.5561V15.6485C77.7332 14.9396 77.4518 14.2597 76.9508 13.7585C76.4498 13.2572 75.7703 12.9757 75.0619 12.9757H17.8461C17.1376 12.9757 16.4581 13.2572 15.9571 13.7585C15.4562 14.2597 15.1747 14.9396 15.1747 15.6485V46.5561C15.1742 46.9197 15.2478 47.2796 15.3911 47.6138C15.5343 47.9479 15.7442 48.2493 16.0079 48.4995C16.2716 48.7497 16.5836 48.9435 16.9247 49.0689C17.2658 49.1943 17.6289 49.2487 17.9918 49.2289H75.0619C75.7703 49.2289 76.4498 48.9473 76.9508 48.4461ZM35.0384 21.6086H57.7599C58.1674 21.5693 58.5753 21.6757 58.9328 21.9143C59.2902 22.1529 59.5813 22.5132 59.7694 22.9501C59.9576 23.3869 60.0345 23.8808 59.9905 24.37C59.9465 24.8592 59.7837 25.3219 59.5223 25.7002L53.8576 35.4746C51.5646 37.0003 48.9876 37.8006 46.3677 37.8006C43.7478 37.8006 41.1707 37.0003 38.8778 35.4746L33.339 25.4728C33.1368 25.099 33.0214 24.6669 33.0047 24.2213C32.988 23.7757 33.0706 23.3328 33.2439 22.9386C33.4173 22.5444 33.6751 22.2131 33.9907 21.9793C34.3062 21.7454 34.6679 21.6174 35.0384 21.6086Z" fill="#BDBDBD"/>
<path fill-rule="evenodd" clip-rule="evenodd" d="M124.787 58.8892C127.534 54.778 129 49.9445 129 45C129 38.3696 126.366 32.0107 121.678 27.3223C116.989 22.6339 110.63 20 104 20C99.0555 20 94.222 21.4662 90.1108 24.2133C85.9995 26.9603 82.7952 30.8648 80.903 35.4329C79.0108 40.0011 78.5157 45.0277 79.4804 49.8773C80.445 54.7268 82.826 59.1814 86.3223 62.6777C89.8187 66.174 94.2732 68.555 99.1227 69.5196C103.972 70.4842 108.999 69.9892 113.567 68.097C118.135 66.2048 122.04 63.0005 124.787 58.8892ZM105.621 35.9924L105.621 43.3832L113.012 43.4061C113.418 43.4375 113.797 43.6211 114.074 43.9202C114.351 44.2192 114.505 44.6117 114.505 45.0193C114.505 45.4268 114.351 45.8193 114.074 46.1183C113.797 46.4174 113.418 46.601 113.012 46.6324H105.621L105.621 54.0233C105.638 54.2456 105.609 54.4691 105.536 54.6797C105.462 54.8903 105.346 55.0835 105.195 55.2472C105.043 55.4108 104.86 55.5414 104.655 55.6307C104.451 55.72 104.231 55.7661 104.008 55.7661C103.785 55.7661 103.564 55.72 103.36 55.6307C103.155 55.5414 102.972 55.4108 102.82 55.2472C102.669 55.0835 102.553 54.8903 102.479 54.6797C102.406 54.4691 102.377 54.2456 102.394 54.0233L102.383 46.621L95.0035 46.6324C94.7909 46.6332 94.5803 46.592 94.3836 46.5114C94.1869 46.4307 94.008 46.3121 93.8571 46.1623C93.7063 46.0125 93.5864 45.8345 93.5043 45.6383C93.4223 45.4422 93.3797 45.2318 93.3789 45.0193C93.3782 44.8067 93.4193 44.596 93.5 44.3993C93.5806 44.2026 93.6992 44.0237 93.849 43.8728C93.9988 43.722 94.1769 43.6021 94.373 43.5201C94.5691 43.438 94.7795 43.3954 94.9921 43.3946L102.383 43.3946L102.394 35.9924C102.377 35.77 102.406 35.5465 102.479 35.3359C102.553 35.1253 102.669 34.9321 102.82 34.7685C102.972 34.6048 103.155 34.4742 103.36 34.385C103.564 34.2957 103.785 34.2496 104.008 34.2496C104.231 34.2496 104.451 34.2957 104.655 34.385C104.86 34.4742 105.043 34.6048 105.195 34.7685C105.346 34.9321 105.462 35.1253 105.536 35.3359C105.609 35.5465 105.638 35.77 105.621 35.9924Z" fill="#E0E0E0"/>
</svg>
