<svg width="110" height="110" viewBox="0 0 110 110" fill="none" xmlns="http://www.w3.org/2000/svg">
<circle cx="55" cy="55" r="55" fill="#F2F2F2"/>
<path fill-rule="evenodd" clip-rule="evenodd" d="M52.7212 38.6614C52.169 38.1824 51.8116 37.5185 51.7165 36.7948L49.0787 27.2001C48.9729 26.7546 48.9712 26.2907 49.0737 25.8444C49.1761 25.3981 49.3801 24.9813 49.6697 24.626C49.9594 24.2707 50.327 23.9866 50.7443 23.7954C51.1615 23.6043 51.6172 23.5113 52.0762 23.5236H57.0222C57.4749 23.5135 57.924 23.6058 58.3358 23.7936C58.7475 23.9814 59.1113 24.2597 59.3998 24.6078C59.6882 24.9558 59.8939 25.3645 60.0012 25.8031C60.1086 26.2417 60.1149 26.6989 60.0197 27.1403L57.7116 36.7948C57.6165 37.5185 57.2592 38.1824 56.707 38.6614C56.1548 39.1404 55.4459 39.4015 54.7141 39.3953C53.9822 39.4015 53.2733 39.1404 52.7212 38.6614ZM66.0821 36.1074H86.3456C86.6643 36.1071 86.9797 36.1711 87.2731 36.2953C87.5664 36.4195 87.8316 36.6015 88.0527 36.8304C88.2738 37.0592 88.4463 37.3302 88.5599 37.6271C88.6734 37.9241 88.7258 38.2408 88.7137 38.5583V80.0458C88.7137 80.672 88.4642 81.2726 88.0201 81.7155C87.576 82.1583 86.9736 82.4071 86.3456 82.4071H23.1571C22.5291 82.4071 21.9268 82.1583 21.4827 81.7155C21.0386 81.2726 20.7891 80.672 20.7891 80.0458V38.4687C20.7891 37.8424 21.0386 37.2418 21.4827 36.799C21.9268 36.3561 22.5291 36.1074 23.1571 36.1074H41.9218C42.5108 36.1154 43.0818 36.3112 43.551 36.6662C44.0203 37.0212 44.3633 37.5167 44.5297 38.0801C45.5788 41.3381 47.5272 44.5961 50.5248 44.5961H57.8988C60.8306 44.5961 62.0698 41.7765 63.2394 39.1151C63.5048 38.5112 63.7666 37.9155 64.0438 37.3627C64.2358 36.9875 64.5274 36.6721 64.8868 36.4507C65.2462 36.2293 65.6597 36.1106 66.0821 36.1074ZM50.0959 74.456C50.275 74.2718 50.375 74.0254 50.3749 73.7689L50.315 70.4511C50.3165 70.2512 50.2572 70.0556 50.1448 69.8901C50.0324 69.7246 49.8722 69.5971 49.6855 69.5245C46.5526 68.5914 43.8541 66.5787 42.0717 63.8453V63.0084C43.1837 61.9805 44.0098 60.683 44.4697 59.2423C44.7212 59.0629 44.9329 58.8338 45.0915 58.5692C45.2501 58.3046 45.3524 58.0102 45.3917 57.7045C45.4311 57.3987 45.4068 57.0881 45.3204 56.7922C45.234 56.4962 45.0872 56.2211 44.8894 55.9843V52.9953C44.8894 49.797 42.971 47.615 38.8943 47.615C38.1289 47.4819 37.3432 47.524 36.5965 47.7381C35.8499 47.9522 35.1618 48.3328 34.5843 48.8511C34.0068 49.3693 33.555 50.0117 33.2631 50.7296C32.9712 51.4476 32.8467 52.2223 32.8992 52.9953V55.9843C32.7013 56.2211 32.5546 56.4962 32.4682 56.7922C32.3817 57.0881 32.3575 57.3987 32.3968 57.7045C32.4362 58.0102 32.5384 58.3046 32.6971 58.5692C32.8557 58.8338 33.0674 59.0629 33.3188 59.2423C33.6842 60.6494 34.395 61.9436 35.3872 63.0084V63.6959C33.6028 66.4274 30.9051 68.4396 27.7734 69.375C27.5867 69.4477 27.4265 69.5752 27.3141 69.7407C27.2017 69.9061 27.1423 70.1018 27.1439 70.3016V73.7689C27.1438 74.0254 27.2439 74.2718 27.4229 74.456C27.602 74.6401 27.846 74.7475 28.1031 74.7552H49.4157C49.6728 74.7475 49.9168 74.6401 50.0959 74.456ZM59.6374 66.9838H77.3529C77.7229 66.9838 78.0893 66.9111 78.4312 66.7699C78.7731 66.6287 79.0837 66.4218 79.3453 66.1609C79.607 65.9 79.8145 65.5902 79.9561 65.2494C80.0977 64.9085 80.1706 64.5431 80.1706 64.1741C80.1706 63.8052 80.0977 63.4398 79.9561 63.0989C79.8145 62.758 79.607 62.4483 79.3453 62.1874C79.0837 61.9265 78.7731 61.7195 78.4312 61.5783C78.0893 61.4371 77.7229 61.3645 77.3529 61.3645H59.6374C58.8901 61.3645 58.1734 61.6605 57.645 62.1874C57.1165 62.7143 56.8197 63.429 56.8197 64.1741C56.8197 64.9193 57.1165 65.634 57.645 66.1609C58.1734 66.6878 58.8901 66.9838 59.6374 66.9838ZM59.6374 57.3293H77.3529C77.7229 57.3293 78.0893 57.2566 78.4312 57.1154C78.7731 56.9742 79.0837 56.7673 79.3453 56.5064C79.607 56.2455 79.8145 55.9357 79.9561 55.5949C80.0977 55.254 80.1706 54.8886 80.1706 54.5196C80.1706 54.1507 80.0977 53.7853 79.9561 53.4444C79.8145 53.1035 79.607 52.7938 79.3453 52.5329C79.0837 52.272 78.7731 52.0651 78.4312 51.9239C78.0893 51.7827 77.7229 51.71 77.3529 51.71H59.6374C58.8901 51.71 58.1734 52.006 57.645 52.5329C57.1165 53.0598 56.8197 53.7745 56.8197 54.5196C56.8197 55.2648 57.1165 55.9795 57.645 56.5064C58.1734 57.0333 58.8901 57.3293 59.6374 57.3293Z" fill="white"/>
</svg>
