<?xml version="1.0" encoding="UTF-8" standalone="no"?>
<svg
   xmlns:dc="http://purl.org/dc/elements/1.1/"
   xmlns:cc="http://creativecommons.org/ns#"
   xmlns:rdf="http://www.w3.org/1999/02/22-rdf-syntax-ns#"
   xmlns:svg="http://www.w3.org/2000/svg"
   xmlns="http://www.w3.org/2000/svg"
   xmlns:sodipodi="http://sodipodi.sourceforge.net/DTD/sodipodi-0.dtd"
   xmlns:inkscape="http://www.inkscape.org/namespaces/inkscape"
   width="310"
   height="150"
   viewBox="0 0 310 150"
   id="svg2"
   version="1.1"
   inkscape:version="0.91 r13725"
   sodipodi:docname="img-wait-search.svg"
   style="fill:none">
  <metadata
     id="metadata22">
    <rdf:RDF>
      <cc:Work
         rdf:about="">
        <dc:format>image/svg+xml</dc:format>
        <dc:type
           rdf:resource="http://purl.org/dc/dcmitype/StillImage" />
        <dc:title></dc:title>
      </cc:Work>
    </rdf:RDF>
  </metadata>
  <defs
     id="defs20" />
  <sodipodi:namedview
     pagecolor="#ffffff"
     bordercolor="#666666"
     borderopacity="1"
     objecttolerance="10"
     gridtolerance="10"
     guidetolerance="10"
     inkscape:pageopacity="0"
     inkscape:pageshadow="2"
     inkscape:window-width="1317"
     inkscape:window-height="744"
     id="namedview18"
     showgrid="false"
     inkscape:zoom="1.0766271"
     inkscape:cx="30.090001"
     inkscape:cy="171.38538"
     inkscape:window-x="49"
     inkscape:window-y="24"
     inkscape:window-maximized="1"
     inkscape:current-layer="svg2" />
  <path
     d="m 157,50.865 c -1.089,-0.945 -1.794,-2.255 -1.982,-3.682 l -5.204,-18.928 c -0.209,-0.879 -0.212,-1.794 -0.01,-2.675 0.202,-0.88 0.605,-1.702 1.176,-2.403 0.572,-0.701 1.297,-1.2616 2.12,-1.6386 0.823,-0.3771 1.722,-0.5606 2.628,-0.5363 l 9.757,0 c 0.893,-0.0199 1.779,0.1622 2.591,0.5326 0.812,0.3704 1.53,0.9193 2.099,1.6063 0.569,0.686 0.975,1.493 1.186,2.358 0.212,0.865 0.225,1.767 0.037,2.638 l -4.553,19.046 c -0.188,1.427 -0.893,2.737 -1.982,3.682 -1.09,0.945 -2.488,1.46 -3.932,1.448 -1.444,0.012 -2.842,-0.503 -3.931,-1.448 z m 26.343,-5.039 39.974,0 c 0.629,0 1.251,0.126 1.83,0.371 0.579,0.245 1.102,0.604 1.538,1.056 0.436,0.451 0.776,0.986 1.001,1.572 0.224,0.585 0.327,1.21 0.303,1.837 l 0,81.843 c 0,1.235 -0.492,2.42 -1.368,3.294 -0.876,0.873 -2.065,1.364 -3.304,1.364 l -124.6533,0 c -1.2389,0 -2.4272,-0.491 -3.3032,-1.364 -0.8761,-0.874 -1.3683,-2.059 -1.3683,-3.294 l 0,-82.02 c 0,-1.236 0.4922,-2.421 1.3683,-3.294 0.876,-0.874 2.0643,-1.365 3.3032,-1.365 l 37.0173,0 c 1.162,0.016 2.289,0.402 3.214,1.103 0.926,0.7 1.603,1.678 1.931,2.789 2.07,6.427 5.913,12.854 11.827,12.854 l 14.547,0 c 5.783,0 8.228,-5.562 10.535,-10.812 0.524,-1.191 1.04,-2.367 1.587,-3.457 0.379,-0.74 0.954,-1.363 1.663,-1.799 0.709,-0.437 1.525,-0.671 2.358,-0.678 z m -31.536,75.652 c 0.353,-0.364 0.55,-0.85 0.55,-1.356 l -0.118,-6.545 c 0.003,-0.394 -0.114,-0.78 -0.336,-1.106 -0.222,-0.327 -0.538,-0.578 -0.906,-0.722 -6.18,-1.84 -11.504,-5.811 -15.02,-11.203 l 0,-1.651 c 2.194,-2.028 3.823,-4.588 4.731,-7.43 0.496,-0.354 0.913,-0.806 1.226,-1.327 0.313,-0.522 0.515,-1.103 0.593,-1.706 0.077,-0.604 0.029,-1.216 -0.141,-1.8 -0.171,-0.584 -0.46,-1.127 -0.85,-1.594 l 0,-5.896 c 0,-6.31 -3.785,-10.614 -11.827,-10.614 -1.51,-0.263 -3.06,-0.18 -4.533,0.243 -1.473,0.422 -2.83,1.173 -3.97,2.195 -1.139,1.023 -2.03,2.29 -2.606,3.706 -0.576,1.416 -0.821,2.945 -0.718,4.47 l 0,5.896 c -0.39,0.467 -0.68,1.01 -0.85,1.594 -0.171,0.584 -0.219,1.196 -0.141,1.8 0.078,0.603 0.279,1.184 0.592,1.706 0.313,0.521 0.731,0.973 1.227,1.327 0.721,2.776 2.123,5.329 4.08,7.43 l 0,1.356 c -3.52,5.389 -8.842,9.358 -15.02,11.203 -0.368,0.144 -0.684,0.395 -0.906,0.722 -0.222,0.326 -0.339,0.712 -0.335,1.106 l 0,6.84 c -10e-4,0.506 0.197,0.992 0.55,1.356 0.353,0.363 0.835,0.575 1.342,0.59 l 42.044,0 c 0.507,-0.015 0.988,-0.227 1.342,-0.59 z m 18.822,-14.741 34.948,0 c 0.73,0 1.453,-0.143 2.127,-0.422 0.675,-0.278 1.288,-0.687 1.804,-1.201 0.516,-0.515 0.925,-1.126 1.205,-1.798 0.279,-0.673 0.423,-1.394 0.423,-2.122 0,-0.727 -0.144,-1.448 -0.423,-2.121 -0.28,-0.672 -0.689,-1.283 -1.205,-1.798 -0.516,-0.514 -1.129,-0.923 -1.804,-1.201 -0.674,-0.279 -1.397,-0.422 -2.127,-0.422 l -34.948,0 c -1.474,0 -2.888,0.584 -3.93,1.623 -1.043,1.04 -1.628,2.449 -1.628,3.919 0,1.471 0.585,2.88 1.628,3.92 1.042,1.039 2.456,1.623 3.93,1.623 z m 0,-19.045 34.948,0 c 0.73,0 1.453,-0.144 2.127,-0.422 0.675,-0.279 1.288,-0.687 1.804,-1.202 0.516,-0.515 0.925,-1.126 1.205,-1.798 0.279,-0.673 0.423,-1.393 0.423,-2.121 0,-0.728 -0.144,-1.449 -0.423,-2.121 -0.28,-0.673 -0.689,-1.284 -1.205,-1.798 -0.516,-0.515 -1.129,-0.923 -1.804,-1.202 -0.674,-0.279 -1.397,-0.422 -2.127,-0.422 l -34.948,0 c -1.474,0 -2.888,0.584 -3.93,1.624 -1.043,1.039 -1.628,2.449 -1.628,3.919 0,1.47 0.585,2.88 1.628,3.919 1.042,1.04 2.456,1.624 3.93,1.624 z"
     id="path8"
     inkscape:connector-curvature="0"
     style="clip-rule:evenodd;fill:#ffffff;fill-opacity:1;fill-rule:evenodd;stroke:none;stroke-opacity:1" />
  <g
     style="mix-blend-mode:multiply"
     id="g10"
     transform="translate(0,-78)">
    <path
       d="m 267.641,149.779 10.59,10.054 c 1.025,0.951 2.343,1.559 3.757,1.735 1.414,0.175 2.849,-0.091 4.093,-0.759 0.443,-0.263 0.968,-0.369 1.484,-0.3 0.515,0.07 0.99,0.31 1.34,0.679 l 0.876,0.841 c 1.241,1.194 1.938,2.812 1.938,4.499 0,1.686 -0.697,3.304 -1.938,4.498 l -25.416,24.392 c -1.244,1.192 -2.93,1.861 -4.687,1.861 -1.758,0 -3.444,-0.669 -4.688,-1.861 l -1.158,-1.111 c -0.377,-0.284 -0.648,-0.679 -0.77,-1.124 -0.122,-0.445 -0.09,-0.917 0.092,-1.342 0.8,-1.144 1.189,-2.506 1.108,-3.881 -0.082,-1.375 -0.629,-2.687 -1.56,-3.735 L 242.226,174.17 c -3.353,-3.243 -5.234,-7.627 -5.234,-12.196 0,-4.568 1.881,-8.952 5.234,-12.195 3.379,-3.218 7.947,-5.023 12.707,-5.023 4.761,0 9.328,1.805 12.708,5.023 z m 3.759,50.719 c -1.196,-0.761 -2.193,-1.776 -2.916,-2.966 l 12.821,-12.304 c 1.24,0.693 2.297,1.65 3.091,2.798 0.794,1.147 1.302,2.454 1.487,3.82 0.184,1.365 0.039,2.753 -0.423,4.057 -0.463,1.304 -1.231,2.488 -2.246,3.462 -1.014,0.973 -2.248,1.711 -3.607,2.155 -1.358,0.444 -2.804,0.582 -4.227,0.405 -1.423,-0.177 -2.785,-0.665 -3.98,-1.427 z"
       id="path12"
       inkscape:connector-curvature="0"
       style="clip-rule:evenodd;fill:#f2f2f2;fill-rule:evenodd" />
  </g>
  <g
     style="mix-blend-mode:multiply"
     id="g14"
     transform="translate(0,-78)">
    <path
       d="m 45.2079,105.567 c -1.8099,0 -3.2908,-1.482 -3.2908,-3.293 l 0,-14.9813 c 0,-1.811 1.4809,-3.2927 3.2908,-3.2927 1.8098,0 3.2907,1.4817 3.2907,3.2927 l 0,14.9813 c 0,1.811 -1.4809,3.293 -3.2907,3.293 z m -4.1117,9.714 60.7138,0 c 1.481,0 2.797,1.317 2.797,2.799 l 0,31.28 c 0,1.482 -1.316,2.799 -2.797,2.799 l -51.3353,0 c -0.8226,0 -1.8098,0.494 -2.3035,1.152 l -4.7715,6.421 c -1.6454,2.14 -5.1006,1.153 -5.1006,-1.646 l 0,-40.171 c 0,-1.482 1.3163,-2.634 2.7971,-2.634 z M 22.0106,86.14 c -1.1518,-1.317 -3.2908,-1.6463 -4.607,-0.4939 -1.4809,1.1525 -1.6454,3.2927 -0.4936,4.6098 l 15.4663,19.2621 c 0.6582,0.659 1.6454,1.153 2.6326,1.153 0.6581,0 1.3163,-0.165 1.9744,-0.659 1.4808,-1.152 1.6454,-3.128 0.4936,-4.61 L 22.0106,86.14 Z m -9.5421,27.001 14.1501,0.494 c 1.8099,0 3.2907,1.646 3.1262,3.457 0,1.811 -1.4808,3.128 -3.2907,3.128 l -0.1646,0 -14.15,-0.494 c -1.8099,0 -3.29075,-1.646 -3.12621,-3.457 0.32907,-1.811 1.64531,-3.128 3.45521,-3.128 z M 67.752,91.4085 c -1.4808,0 -2.7971,1.3171 -2.7971,2.7988 l 0.1645,0 0,13.4997 40.4756,0 c 2.962,0 5.43,2.47 5.43,5.433 l 0,16.628 18.428,0 c 1.481,0 2.797,-1.317 2.797,-2.798 l 0,-32.7627 c 0,-1.6464 -1.316,-2.7988 -2.797,-2.7988 l -61.701,0 z"
       id="path16"
       inkscape:connector-curvature="0"
       style="clip-rule:evenodd;fill:#f2f2f2;fill-rule:evenodd" />
  </g>
</svg>
