<?xml version="1.0" encoding="UTF-8" standalone="no"?>
<svg
   xmlns:dc="http://purl.org/dc/elements/1.1/"
   xmlns:cc="http://creativecommons.org/ns#"
   xmlns:rdf="http://www.w3.org/1999/02/22-rdf-syntax-ns#"
   xmlns:svg="http://www.w3.org/2000/svg"
   xmlns="http://www.w3.org/2000/svg"
   xmlns:sodipodi="http://sodipodi.sourceforge.net/DTD/sodipodi-0.dtd"
   xmlns:inkscape="http://www.inkscape.org/namespaces/inkscape"
   width="310"
   height="310"
   viewBox="0 0 310 310"
   fill="none"
   id="svg2"
   version="1.1"
   inkscape:version="0.91 r13725"
   sodipodi:docname="img-null-notes.svg">
  <metadata
     id="metadata22">
    <rdf:RDF>
      <cc:Work
         rdf:about="">
        <dc:format>image/svg+xml</dc:format>
        <dc:type
           rdf:resource="http://purl.org/dc/dcmitype/StillImage" />
      </cc:Work>
    </rdf:RDF>
  </metadata>
  <defs
     id="defs20" />
  <sodipodi:namedview
     pagecolor="#ffffff"
     bordercolor="#666666"
     borderopacity="1"
     objecttolerance="10"
     gridtolerance="10"
     guidetolerance="10"
     inkscape:pageopacity="0"
     inkscape:pageshadow="2"
     inkscape:window-width="992"
     inkscape:window-height="480"
     id="namedview18"
     showgrid="false"
     inkscape:zoom="0.76129032"
     inkscape:cx="-38.09322"
     inkscape:cy="155"
     inkscape:window-x="49"
     inkscape:window-y="24"
     inkscape:window-maximized="0"
     inkscape:current-layer="svg2" />
  <rect
     width="310"
     height="310"
     fill="white"
     id="rect4"
     style="fill:none" />
  <circle
     cx="161.492"
     cy="154.5"
     r="108.5"
     fill="#F2F2F2"
     id="circle6" />
  <path
     fill-rule="evenodd"
     clip-rule="evenodd"
     d="M157 128.865C155.911 127.92 155.206 126.61 155.018 125.183L149.814 106.255C149.605 105.376 149.602 104.461 149.804 103.58C150.006 102.7 150.409 101.878 150.98 101.177C151.552 100.476 152.277 99.9154 153.1 99.5384C153.923 99.1613 154.822 98.9778 155.728 99.0021H165.485C166.378 98.9822 167.264 99.1643 168.076 99.5347C168.888 99.9051 169.606 100.454 170.175 101.141C170.744 101.827 171.15 102.634 171.361 103.499C171.573 104.364 171.586 105.266 171.398 106.137L166.845 125.183C166.657 126.61 165.952 127.92 164.863 128.865C163.773 129.81 162.375 130.325 160.931 130.313C159.487 130.325 158.089 129.81 157 128.865ZM183.343 123.826H223.317C223.946 123.826 224.568 123.952 225.147 124.197C225.726 124.442 226.249 124.801 226.685 125.253C227.121 125.704 227.461 126.239 227.686 126.825C227.91 127.41 228.013 128.035 227.989 128.662V210.505C227.989 211.74 227.497 212.925 226.621 213.799C225.745 214.672 224.556 215.163 223.317 215.163H98.6637C97.4248 215.163 96.2365 214.672 95.3605 213.799C94.4844 212.925 93.9922 211.74 93.9922 210.505V128.485C93.9922 127.249 94.4844 126.064 95.3605 125.191C96.2365 124.317 97.4248 123.826 98.6637 123.826H135.681C136.843 123.842 137.97 124.228 138.895 124.929C139.821 125.629 140.498 126.607 140.826 127.718C142.896 134.145 146.739 140.572 152.653 140.572H167.2C172.983 140.572 175.428 135.01 177.735 129.76C178.259 128.569 178.775 127.393 179.322 126.303C179.701 125.563 180.276 124.94 180.985 124.504C181.694 124.067 182.51 123.833 183.343 123.826ZM151.807 199.478C152.16 199.114 152.357 198.628 152.357 198.122L152.239 191.577C152.242 191.183 152.125 190.797 151.903 190.471C151.681 190.144 151.365 189.893 150.997 189.749C144.817 187.909 139.493 183.938 135.977 178.546V176.895C138.171 174.867 139.8 172.307 140.708 169.465C141.204 169.111 141.621 168.659 141.934 168.138C142.247 167.616 142.449 167.035 142.527 166.432C142.604 165.828 142.556 165.216 142.386 164.632C142.215 164.048 141.926 163.505 141.536 163.038V157.142C141.536 150.832 137.751 146.528 129.709 146.528C128.199 146.265 126.649 146.348 125.176 146.771C123.703 147.193 122.346 147.944 121.206 148.966C120.067 149.989 119.176 151.256 118.6 152.672C118.024 154.088 117.779 155.617 117.882 157.142V163.038C117.492 163.505 117.202 164.048 117.032 164.632C116.861 165.216 116.813 165.828 116.891 166.432C116.969 167.035 117.17 167.616 117.483 168.138C117.796 168.659 118.214 169.111 118.71 169.465C119.431 172.241 120.833 174.794 122.79 176.895V178.251C119.27 183.64 113.948 187.609 107.77 189.454C107.402 189.598 107.086 189.849 106.864 190.176C106.642 190.502 106.525 190.888 106.529 191.282V198.122C106.528 198.628 106.726 199.114 107.079 199.478C107.432 199.841 107.914 200.053 108.421 200.068H150.465C150.972 200.053 151.453 199.841 151.807 199.478ZM170.629 184.737H205.577C206.307 184.737 207.03 184.594 207.704 184.315C208.379 184.037 208.992 183.628 209.508 183.114C210.024 182.599 210.433 181.988 210.713 181.316C210.992 180.643 211.136 179.922 211.136 179.194C211.136 178.467 210.992 177.746 210.713 177.073C210.433 176.401 210.024 175.79 209.508 175.275C208.992 174.761 208.379 174.352 207.704 174.074C207.03 173.795 206.307 173.652 205.577 173.652H170.629C169.155 173.652 167.741 174.236 166.699 175.275C165.656 176.315 165.071 177.724 165.071 179.194C165.071 180.665 165.656 182.074 166.699 183.114C167.741 184.153 169.155 184.737 170.629 184.737ZM170.629 165.692H205.577C206.307 165.692 207.03 165.548 207.704 165.27C208.379 164.991 208.992 164.583 209.508 164.068C210.024 163.553 210.433 162.942 210.713 162.27C210.992 161.597 211.136 160.877 211.136 160.149C211.136 159.421 210.992 158.7 210.713 158.028C210.433 157.355 210.024 156.744 209.508 156.23C208.992 155.715 208.379 155.307 207.704 155.028C207.03 154.749 206.307 154.606 205.577 154.606H170.629C169.155 154.606 167.741 155.19 166.699 156.23C165.656 157.269 165.071 158.679 165.071 160.149C165.071 161.619 165.656 163.029 166.699 164.068C167.741 165.108 169.155 165.692 170.629 165.692Z"
     fill="white"
     id="path8" />
  <g
     style="mix-blend-mode:multiply"
     id="g10">
    <path
       fill-rule="evenodd"
       clip-rule="evenodd"
       d="M267.641 149.779L278.231 159.833C279.256 160.784 280.574 161.392 281.988 161.568C283.402 161.743 284.837 161.477 286.081 160.809C286.524 160.546 287.049 160.44 287.565 160.509C288.08 160.579 288.555 160.819 288.905 161.188L289.781 162.029C291.022 163.223 291.719 164.841 291.719 166.528C291.719 168.214 291.022 169.832 289.781 171.026L264.365 195.418C263.121 196.61 261.435 197.279 259.678 197.279C257.92 197.279 256.234 196.61 254.99 195.418L253.832 194.307C253.455 194.023 253.184 193.628 253.062 193.183C252.94 192.738 252.972 192.266 253.154 191.841C253.954 190.697 254.343 189.335 254.262 187.96C254.18 186.585 253.633 185.273 252.702 184.225L242.226 174.17C238.873 170.927 236.992 166.543 236.992 161.974C236.992 157.406 238.873 153.022 242.226 149.779C245.605 146.561 250.173 144.756 254.933 144.756C259.694 144.756 264.261 146.561 267.641 149.779ZM271.4 200.498C270.204 199.737 269.207 198.722 268.484 197.532L281.305 185.228C282.545 185.921 283.602 186.878 284.396 188.026C285.19 189.173 285.698 190.48 285.883 191.846C286.067 193.211 285.922 194.599 285.46 195.903C284.997 197.207 284.229 198.391 283.214 199.365C282.2 200.338 280.966 201.076 279.607 201.52C278.249 201.964 276.803 202.102 275.38 201.925C273.957 201.748 272.595 201.26 271.4 200.498Z"
       fill="#F2F2F2"
       id="path12" />
  </g>
  <g
     style="mix-blend-mode:multiply"
     id="g14">
    <path
       fill-rule="evenodd"
       clip-rule="evenodd"
       d="M45.2079 105.567C43.398 105.567 41.9171 104.085 41.9171 102.274V87.2927C41.9171 85.4817 43.398 84 45.2079 84C47.0177 84 48.4986 85.4817 48.4986 87.2927V102.274C48.4986 104.085 47.0177 105.567 45.2079 105.567ZM41.0962 115.281H101.81C103.291 115.281 104.607 116.598 104.607 118.08V149.36C104.607 150.842 103.291 152.159 101.81 152.159H50.4747C49.6521 152.159 48.6649 152.653 48.1712 153.311L43.3997 159.732C41.7543 161.872 38.2991 160.885 38.2991 158.086V117.915C38.2991 116.433 39.6154 115.281 41.0962 115.281ZM22.0106 86.14C20.8588 84.823 18.7198 84.4937 17.4036 85.6461C15.9227 86.7986 15.7582 88.9388 16.91 90.2559L32.3763 109.518C33.0345 110.177 34.0217 110.671 35.0089 110.671C35.667 110.671 36.3252 110.506 36.9833 110.012C38.4641 108.86 38.6287 106.884 37.4769 105.402L22.0106 86.14ZM12.4685 113.141L26.6186 113.635C28.4285 113.635 29.9093 115.281 29.7448 117.092C29.7448 118.903 28.264 120.22 26.4541 120.22H26.2895L12.1395 119.726C10.3296 119.726 8.84875 118.08 9.01329 116.269C9.34236 114.458 10.6586 113.141 12.4685 113.141ZM67.752 91.4085C66.2712 91.4085 64.9549 92.7256 64.9549 94.2073H65.1194V107.707H105.595C108.557 107.707 111.025 110.177 111.025 113.14V129.768H129.453C130.934 129.768 132.25 128.451 132.25 126.97V94.2073C132.25 92.5609 130.934 91.4085 129.453 91.4085H67.752Z"
       fill="#F2F2F2"
       id="path16" />
  </g>
</svg>
