<svg width="501" height="501" viewBox="0 0 501 501" fill="none" xmlns="http://www.w3.org/2000/svg">
<circle cx="250.5" cy="250.5" r="250.5" fill="#F2F2F2"/>
<path d="M126.641 392.953H124.109V387H108.234V392.953H105.703V384.594H107.469C109.073 381.896 110.443 378.615 111.578 374.75C112.724 370.885 113.359 367.354 113.484 364.156H123.75V384.594H126.641V392.953ZM121.094 384.594V366.547H115.891C115.703 369.068 115.073 372.099 114 375.641C112.927 379.172 111.677 382.156 110.25 384.594H121.094ZM144.891 378.422C144.891 381.214 144.188 383.396 142.781 384.969C141.375 386.531 139.432 387.312 136.953 387.312C135.422 387.312 134.062 386.953 132.875 386.234C131.688 385.516 130.771 384.484 130.125 383.141C129.479 381.797 129.156 380.224 129.156 378.422C129.156 375.63 129.854 373.458 131.25 371.906C132.646 370.344 134.583 369.562 137.062 369.562C139.458 369.562 141.359 370.359 142.766 371.953C144.182 373.547 144.891 375.703 144.891 378.422ZM131.844 378.422C131.844 380.609 132.281 382.276 133.156 383.422C134.031 384.568 135.318 385.141 137.016 385.141C138.714 385.141 140 384.573 140.875 383.438C141.76 382.292 142.203 380.62 142.203 378.422C142.203 376.245 141.76 374.594 140.875 373.469C140 372.333 138.703 371.766 136.984 371.766C135.286 371.766 134.005 372.323 133.141 373.438C132.276 374.552 131.844 376.214 131.844 378.422ZM148.562 376.734C148.562 372.984 149.115 370.062 150.219 367.969C151.323 365.865 153.073 364.552 155.469 364.031C158.448 363.396 161.073 362.88 163.344 362.484L163.828 364.766C160.214 365.37 157.63 365.849 156.078 366.203C154.568 366.547 153.432 367.359 152.672 368.641C151.922 369.922 151.51 371.667 151.438 373.875H151.625C152.271 373 153.104 372.312 154.125 371.812C155.146 371.312 156.214 371.062 157.328 371.062C159.432 371.062 161.073 371.745 162.25 373.109C163.427 374.474 164.016 376.365 164.016 378.781C164.016 381.458 163.333 383.552 161.969 385.062C160.604 386.562 158.703 387.312 156.266 387.312C153.859 387.312 151.974 386.391 150.609 384.547C149.245 382.703 148.562 380.099 148.562 376.734ZM156.5 385.141C159.677 385.141 161.266 383.115 161.266 379.062C161.266 375.198 159.823 373.266 156.938 373.266C156.146 373.266 155.38 373.432 154.641 373.766C153.911 374.089 153.24 374.521 152.625 375.062C152.021 375.604 151.552 376.161 151.219 376.734C151.219 379.474 151.651 381.562 152.516 383C153.38 384.427 154.708 385.141 156.5 385.141ZM176.516 387.312C175.401 387.312 174.38 387.109 173.453 386.703C172.536 386.286 171.766 385.651 171.141 384.797H170.953C171.078 385.797 171.141 386.745 171.141 387.641V394.688H168.547V369.875H170.656L171.016 372.219H171.141C171.807 371.281 172.583 370.604 173.469 370.188C174.354 369.771 175.37 369.562 176.516 369.562C178.786 369.562 180.536 370.339 181.766 371.891C183.005 373.443 183.625 375.62 183.625 378.422C183.625 381.234 182.995 383.422 181.734 384.984C180.484 386.536 178.745 387.312 176.516 387.312ZM176.141 371.766C174.391 371.766 173.125 372.25 172.344 373.219C171.562 374.188 171.161 375.729 171.141 377.844V378.422C171.141 380.828 171.542 382.552 172.344 383.594C173.146 384.625 174.432 385.141 176.203 385.141C177.682 385.141 178.839 384.542 179.672 383.344C180.516 382.146 180.938 380.495 180.938 378.391C180.938 376.255 180.516 374.62 179.672 373.484C178.839 372.339 177.661 371.766 176.141 371.766ZM202.953 378.422C202.953 381.214 202.25 383.396 200.844 384.969C199.438 386.531 197.495 387.312 195.016 387.312C193.484 387.312 192.125 386.953 190.938 386.234C189.75 385.516 188.833 384.484 188.188 383.141C187.542 381.797 187.219 380.224 187.219 378.422C187.219 375.63 187.917 373.458 189.312 371.906C190.708 370.344 192.646 369.562 195.125 369.562C197.521 369.562 199.422 370.359 200.828 371.953C202.245 373.547 202.953 375.703 202.953 378.422ZM189.906 378.422C189.906 380.609 190.344 382.276 191.219 383.422C192.094 384.568 193.38 385.141 195.078 385.141C196.776 385.141 198.062 384.573 198.938 383.438C199.823 382.292 200.266 380.62 200.266 378.422C200.266 376.245 199.823 374.594 198.938 373.469C198.062 372.333 196.766 371.766 195.047 371.766C193.349 371.766 192.068 372.323 191.203 373.438C190.339 374.552 189.906 376.214 189.906 378.422ZM218.422 387H215.828V369.875H230.203V387H227.578V372.125H218.422V387ZM250.484 378.422C250.484 381.214 249.781 383.396 248.375 384.969C246.969 386.531 245.026 387.312 242.547 387.312C241.016 387.312 239.656 386.953 238.469 386.234C237.281 385.516 236.365 384.484 235.719 383.141C235.073 381.797 234.75 380.224 234.75 378.422C234.75 375.63 235.448 373.458 236.844 371.906C238.24 370.344 240.177 369.562 242.656 369.562C245.052 369.562 246.953 370.359 248.359 371.953C249.776 373.547 250.484 375.703 250.484 378.422ZM237.438 378.422C237.438 380.609 237.875 382.276 238.75 383.422C239.625 384.568 240.911 385.141 242.609 385.141C244.307 385.141 245.594 384.573 246.469 383.438C247.354 382.292 247.797 380.62 247.797 378.422C247.797 376.245 247.354 374.594 246.469 373.469C245.594 372.333 244.297 371.766 242.578 371.766C240.88 371.766 239.599 372.323 238.734 373.438C237.87 374.552 237.438 376.214 237.438 378.422ZM262.859 369.906H265.25V378.203L272.328 369.906H275.172L268.016 378.203L275.781 387H272.781L265.25 378.328V387H262.859V378.328L255.344 387H252.359L260.109 378.203L252.969 369.906H255.812L262.859 378.203V369.906ZM289.141 387L288.625 384.562H288.5C287.646 385.635 286.792 386.365 285.938 386.75C285.094 387.125 284.036 387.312 282.766 387.312C281.068 387.312 279.734 386.875 278.766 386C277.807 385.125 277.328 383.88 277.328 382.266C277.328 378.807 280.094 376.995 285.625 376.828L288.531 376.734V375.672C288.531 374.328 288.24 373.339 287.656 372.703C287.083 372.057 286.161 371.734 284.891 371.734C283.464 371.734 281.849 372.172 280.047 373.047L279.25 371.062C280.094 370.604 281.016 370.245 282.016 369.984C283.026 369.724 284.036 369.594 285.047 369.594C287.089 369.594 288.599 370.047 289.578 370.953C290.568 371.859 291.062 373.312 291.062 375.312V387H289.141ZM283.281 385.172C284.896 385.172 286.161 384.729 287.078 383.844C288.005 382.958 288.469 381.719 288.469 380.125V378.578L285.875 378.688C283.812 378.76 282.323 379.083 281.406 379.656C280.5 380.219 280.047 381.099 280.047 382.297C280.047 383.234 280.328 383.948 280.891 384.438C281.464 384.927 282.26 385.172 283.281 385.172ZM309.188 387H306.562V372.094H301.422C301.141 375.802 300.75 378.745 300.25 380.922C299.75 383.099 299.099 384.693 298.297 385.703C297.505 386.714 296.495 387.219 295.266 387.219C294.703 387.219 294.255 387.156 293.922 387.031V385.109C294.151 385.172 294.411 385.203 294.703 385.203C295.901 385.203 296.854 383.938 297.562 381.406C298.271 378.875 298.807 375.031 299.172 369.875H309.188V387ZM329.484 378.422C329.484 381.214 328.781 383.396 327.375 384.969C325.969 386.531 324.026 387.312 321.547 387.312C320.016 387.312 318.656 386.953 317.469 386.234C316.281 385.516 315.365 384.484 314.719 383.141C314.073 381.797 313.75 380.224 313.75 378.422C313.75 375.63 314.448 373.458 315.844 371.906C317.24 370.344 319.177 369.562 321.656 369.562C324.052 369.562 325.953 370.359 327.359 371.953C328.776 373.547 329.484 375.703 329.484 378.422ZM316.438 378.422C316.438 380.609 316.875 382.276 317.75 383.422C318.625 384.568 319.911 385.141 321.609 385.141C323.307 385.141 324.594 384.573 325.469 383.438C326.354 382.292 326.797 380.62 326.797 378.422C326.797 376.245 326.354 374.594 325.469 373.469C324.594 372.333 323.297 371.766 321.578 371.766C319.88 371.766 318.599 372.323 317.734 373.438C316.87 374.552 316.438 376.214 316.438 378.422ZM347.938 374.172C347.938 375.286 347.615 376.135 346.969 376.719C346.333 377.292 345.438 377.677 344.281 377.875V378.016C345.74 378.214 346.802 378.641 347.469 379.297C348.146 379.953 348.484 380.859 348.484 382.016C348.484 383.609 347.896 384.839 346.719 385.703C345.552 386.568 343.844 387 341.594 387H334.047V369.875H341.562C345.812 369.875 347.938 371.307 347.938 374.172ZM345.891 381.844C345.891 380.917 345.536 380.245 344.828 379.828C344.13 379.401 342.969 379.188 341.344 379.188H336.641V384.828H341.406C344.396 384.828 345.891 383.833 345.891 381.844ZM345.406 374.422C345.406 373.589 345.083 373 344.438 372.656C343.802 372.302 342.833 372.125 341.531 372.125H336.641V376.953H341.031C342.635 376.953 343.766 376.755 344.422 376.359C345.078 375.964 345.406 375.318 345.406 374.422ZM362.797 387L362.281 384.562H362.156C361.302 385.635 360.448 386.365 359.594 386.75C358.75 387.125 357.693 387.312 356.422 387.312C354.724 387.312 353.391 386.875 352.422 386C351.464 385.125 350.984 383.88 350.984 382.266C350.984 378.807 353.75 376.995 359.281 376.828L362.188 376.734V375.672C362.188 374.328 361.896 373.339 361.312 372.703C360.74 372.057 359.818 371.734 358.547 371.734C357.12 371.734 355.505 372.172 353.703 373.047L352.906 371.062C353.75 370.604 354.672 370.245 355.672 369.984C356.682 369.724 357.693 369.594 358.703 369.594C360.745 369.594 362.255 370.047 363.234 370.953C364.224 371.859 364.719 373.312 364.719 375.312V387H362.797ZM356.938 385.172C358.552 385.172 359.818 384.729 360.734 383.844C361.661 382.958 362.125 381.719 362.125 380.125V378.578L359.531 378.688C357.469 378.76 355.979 379.083 355.062 379.656C354.156 380.219 353.703 381.099 353.703 382.297C353.703 383.234 353.984 383.948 354.547 384.438C355.12 384.927 355.917 385.172 356.938 385.172ZM381.625 372.094H376.062V387H373.469V372.094H367.969V369.875H381.625V372.094ZM387.609 376.953H392.891C397.266 376.953 399.453 378.562 399.453 381.781C399.453 383.469 398.88 384.76 397.734 385.656C396.599 386.552 394.932 387 392.734 387H385.016V369.875H387.609V376.953ZM387.609 379.188V384.828H392.609C393.984 384.828 395.036 384.589 395.766 384.109C396.495 383.63 396.859 382.906 396.859 381.938C396.859 380.99 396.521 380.297 395.844 379.859C395.177 379.411 394.073 379.188 392.531 379.188H387.609ZM170.859 418.172C170.859 419.286 170.536 420.135 169.891 420.719C169.255 421.292 168.359 421.677 167.203 421.875V422.016C168.661 422.214 169.724 422.641 170.391 423.297C171.068 423.953 171.406 424.859 171.406 426.016C171.406 427.609 170.818 428.839 169.641 429.703C168.474 430.568 166.766 431 164.516 431H156.969V413.875H164.484C168.734 413.875 170.859 415.307 170.859 418.172ZM168.812 425.844C168.812 424.917 168.458 424.245 167.75 423.828C167.052 423.401 165.891 423.188 164.266 423.188H159.562V428.828H164.328C167.318 428.828 168.812 427.833 168.812 425.844ZM168.328 418.422C168.328 417.589 168.005 417 167.359 416.656C166.724 416.302 165.755 416.125 164.453 416.125H159.562V420.953H163.953C165.557 420.953 166.688 420.755 167.344 420.359C168 419.964 168.328 419.318 168.328 418.422ZM194 431L186.25 410.75H186.125C186.271 412.354 186.344 414.26 186.344 416.469V431H183.891V408.156H187.891L195.125 427H195.25L202.547 408.156H206.516V431H203.859V416.281C203.859 414.594 203.932 412.76 204.078 410.781H203.953L196.141 431H194ZM219.641 431.312C217.109 431.312 215.109 430.542 213.641 429C212.182 427.458 211.453 425.318 211.453 422.578C211.453 419.818 212.13 417.625 213.484 416C214.849 414.375 216.677 413.562 218.969 413.562C221.115 413.562 222.812 414.271 224.062 415.688C225.312 417.094 225.938 418.953 225.938 421.266V422.906H214.141C214.193 424.917 214.698 426.443 215.656 427.484C216.625 428.526 217.984 429.047 219.734 429.047C221.578 429.047 223.401 428.661 225.203 427.891V430.203C224.286 430.599 223.417 430.88 222.594 431.047C221.781 431.224 220.797 431.312 219.641 431.312ZM218.938 415.734C217.562 415.734 216.464 416.182 215.641 417.078C214.828 417.974 214.349 419.214 214.203 420.797H223.156C223.156 419.161 222.792 417.911 222.062 417.047C221.333 416.172 220.292 415.734 218.938 415.734ZM242.031 428.703H241.891C240.693 430.443 238.901 431.312 236.516 431.312C234.276 431.312 232.531 430.547 231.281 429.016C230.042 427.484 229.422 425.307 229.422 422.484C229.422 419.661 230.047 417.469 231.297 415.906C232.547 414.344 234.286 413.562 236.516 413.562C238.839 413.562 240.62 414.406 241.859 416.094H242.062L241.953 414.859L241.891 413.656V406.688H244.484V431H242.375L242.031 428.703ZM236.844 429.141C238.615 429.141 239.896 428.661 240.688 427.703C241.49 426.734 241.891 425.177 241.891 423.031V422.484C241.891 420.057 241.484 418.328 240.672 417.297C239.87 416.255 238.583 415.734 236.812 415.734C235.292 415.734 234.125 416.328 233.312 417.516C232.51 418.693 232.109 420.359 232.109 422.516C232.109 424.703 232.51 426.354 233.312 427.469C234.115 428.583 235.292 429.141 236.844 429.141ZM256.844 431.312C254.365 431.312 252.443 430.552 251.078 429.031C249.724 427.5 249.047 425.339 249.047 422.547C249.047 419.682 249.734 417.469 251.109 415.906C252.495 414.344 254.464 413.562 257.016 413.562C257.839 413.562 258.661 413.651 259.484 413.828C260.307 414.005 260.953 414.214 261.422 414.453L260.625 416.656C260.052 416.427 259.427 416.24 258.75 416.094C258.073 415.938 257.474 415.859 256.953 415.859C253.474 415.859 251.734 418.078 251.734 422.516C251.734 424.62 252.156 426.234 253 427.359C253.854 428.484 255.115 429.047 256.781 429.047C258.208 429.047 259.672 428.74 261.172 428.125V430.422C260.026 431.016 258.583 431.312 256.844 431.312ZM272.484 431.312C269.953 431.312 267.953 430.542 266.484 429C265.026 427.458 264.297 425.318 264.297 422.578C264.297 419.818 264.974 417.625 266.328 416C267.693 414.375 269.521 413.562 271.812 413.562C273.958 413.562 275.656 414.271 276.906 415.688C278.156 417.094 278.781 418.953 278.781 421.266V422.906H266.984C267.036 424.917 267.542 426.443 268.5 427.484C269.469 428.526 270.828 429.047 272.578 429.047C274.422 429.047 276.245 428.661 278.047 427.891V430.203C277.13 430.599 276.26 430.88 275.438 431.047C274.625 431.224 273.641 431.312 272.484 431.312ZM271.781 415.734C270.406 415.734 269.307 416.182 268.484 417.078C267.672 417.974 267.193 419.214 267.047 420.797H276C276 419.161 275.635 417.911 274.906 417.047C274.177 416.172 273.135 415.734 271.781 415.734ZM294.938 431V419.922C294.938 418.526 294.62 417.484 293.984 416.797C293.349 416.109 292.354 415.766 291 415.766C289.208 415.766 287.896 416.25 287.062 417.219C286.229 418.188 285.812 419.786 285.812 422.016V431H283.219V413.875H285.328L285.75 416.219H285.875C286.406 415.375 287.151 414.724 288.109 414.266C289.068 413.797 290.135 413.562 291.312 413.562C293.375 413.562 294.927 414.062 295.969 415.062C297.01 416.052 297.531 417.641 297.531 419.828V431H294.938ZM308.406 429.172C308.865 429.172 309.307 429.141 309.734 429.078C310.161 429.005 310.5 428.932 310.75 428.859V430.844C310.469 430.979 310.052 431.089 309.5 431.172C308.958 431.266 308.469 431.312 308.031 431.312C304.719 431.312 303.062 429.568 303.062 426.078V415.891H300.609V414.641L303.062 413.562L304.156 409.906H305.656V413.875H310.625V415.891H305.656V425.969C305.656 427 305.901 427.792 306.391 428.344C306.88 428.896 307.552 429.172 308.406 429.172ZM321.422 431.312C318.891 431.312 316.891 430.542 315.422 429C313.964 427.458 313.234 425.318 313.234 422.578C313.234 419.818 313.911 417.625 315.266 416C316.63 414.375 318.458 413.562 320.75 413.562C322.896 413.562 324.594 414.271 325.844 415.688C327.094 417.094 327.719 418.953 327.719 421.266V422.906H315.922C315.974 424.917 316.479 426.443 317.438 427.484C318.406 428.526 319.766 429.047 321.516 429.047C323.359 429.047 325.182 428.661 326.984 427.891V430.203C326.068 430.599 325.198 430.88 324.375 431.047C323.562 431.224 322.578 431.312 321.422 431.312ZM320.719 415.734C319.344 415.734 318.245 416.182 317.422 417.078C316.609 417.974 316.13 419.214 315.984 420.797H324.938C324.938 419.161 324.573 417.911 323.844 417.047C323.115 416.172 322.073 415.734 320.719 415.734ZM339.969 413.562C340.729 413.562 341.411 413.625 342.016 413.75L341.656 416.156C340.948 416 340.323 415.922 339.781 415.922C338.396 415.922 337.208 416.484 336.219 417.609C335.24 418.734 334.75 420.135 334.75 421.812V431H332.156V413.875H334.297L334.594 417.047H334.719C335.354 415.932 336.12 415.073 337.016 414.469C337.911 413.865 338.896 413.562 339.969 413.562ZM352.672 418.641H359.109V420.797H352.672V427.453H350.5V420.797H344.094V418.641H350.5V411.953H352.672V418.641Z" fill="#BDBDBD"/>
<path d="M150.959 230.832C152.812 240.168 151.453 257.221 151.453 295.436" stroke="#BDBDBD" stroke-width="3" stroke-miterlimit="10" stroke-linecap="square" stroke-linejoin="bevel"/>
<path d="M147.132 191.123C147.132 191.123 165.034 203.447 155.28 206.683C145.527 209.92 142.07 192.991 135.156 197.472C129.971 200.833 138.983 216.268 145.897 225.231C147.009 226.724 148.12 228.093 149.107 229.089" stroke="#BDBDBD" stroke-width="3" stroke-miterlimit="10" stroke-linecap="square" stroke-linejoin="bevel"/>
<path d="M121.699 239.919C121.699 239.919 125.156 233.571 130.835 234.566C136.514 235.562 142.07 221.621 149.725 229.463" stroke="#BDBDBD" stroke-width="3" stroke-miterlimit="10" stroke-linecap="square" stroke-linejoin="bevel"/>
<path d="M151.083 230.21C151.083 230.21 150.959 221.123 162.194 217.513C173.429 213.903 171.207 191.123 171.207 191.123" stroke="#BDBDBD" stroke-width="3" stroke-miterlimit="10" stroke-linecap="square" stroke-linejoin="bevel"/>
<path d="M115.525 166.477C105.278 172.825 131.452 167.472 144.909 173.074C174.787 185.522 189.232 177.929 174.293 168.219C159.355 158.51 128.119 158.634 115.525 166.477Z" fill="white"/>
<path d="M110.463 237.305C106.759 241.537 104.784 259.587 119.106 255.852C133.427 252.118 139.724 238.052 131.699 232.948C122.686 227.347 115.896 231.081 110.463 237.305Z" fill="white"/>
<path d="M116.76 194.236C116.76 194.236 65.5232 199.339 91.2033 222.119C122.686 250.251 110.216 206.061 142.07 208.177C173.923 210.169 152.441 237.181 182.071 230.583C222.073 221.621 217.876 163.987 196.023 178.054C174.17 192.12 183.923 198.095 151.082 186.02C118.242 173.946 100.833 177.182 116.76 194.236Z" fill="white"/>
<path d="M184.294 160.128C184.294 160.128 189.109 172.825 196.517 170.46C203.801 167.97 196.023 158.635 184.294 160.128Z" fill="white"/>
<path d="M173.306 243.529C173.553 249.255 188.862 255.976 195.9 247.138C202.937 238.176 172.812 232.823 173.306 243.529Z" fill="white"/>
<path d="M213.925 132.992H330.226V145.44H209.357L213.925 132.992Z" fill="white"/>
<path d="M329.485 300.042H221.579V156.643H329.485V300.042Z" fill="#E0E0E0"/>
<path d="M380 321H313V213H380V321Z" fill="#BDBDBD"/>
<circle cx="333" cy="131" r="34" fill="#E0E0E0"/>
<path d="M337.829 146.78H328.199V135.701H317.334V125.992H328.199V115.038H337.829V125.992H348.817V135.701H337.829V146.78Z" fill="white"/>
<path d="M256.025 184.402H241.333V215.646H256.025V184.402Z" fill="white"/>
<path d="M319.238 233.944H304.546V285.229H319.238V233.944Z" fill="white"/>
<path d="M368 251H353V286H368V251Z" fill="white"/>
<path d="M191.198 100.033C193.585 100.033 195.52 98.0824 195.52 95.6763C195.52 93.2701 193.585 91.3195 191.198 91.3195C188.812 91.3195 186.877 93.2701 186.877 95.6763C186.877 98.0824 188.812 100.033 191.198 100.033Z" fill="white"/>
<path d="M211.076 100.033C213.462 100.033 215.397 98.0824 215.397 95.6763C215.397 93.2701 213.462 91.3195 211.076 91.3195C208.689 91.3195 206.755 93.2701 206.755 95.6763C206.755 98.0824 208.689 100.033 211.076 100.033Z" fill="white"/>
<path d="M181.321 113.352C183.708 113.352 185.642 111.401 185.642 108.995C185.642 106.589 183.708 104.638 181.321 104.638C178.935 104.638 177 106.589 177 108.995C177 111.401 178.935 113.352 181.321 113.352Z" fill="white"/>
<path d="M201.199 113.352C203.586 113.352 205.52 111.401 205.52 108.995C205.52 106.589 203.586 104.638 201.199 104.638C198.813 104.638 196.878 106.589 196.878 108.995C196.878 111.401 198.813 113.352 201.199 113.352Z" fill="white"/>
<path d="M221.076 113.352C223.462 113.352 225.397 111.401 225.397 108.995C225.397 106.589 223.462 104.638 221.076 104.638C218.689 104.638 216.755 106.589 216.755 108.995C216.755 111.401 218.689 113.352 221.076 113.352Z" fill="white"/>
<path d="M181.321 86.7136C183.708 86.7136 185.642 84.763 185.642 82.3569C185.642 79.9507 183.708 78.0001 181.321 78.0001C178.935 78.0001 177 79.9507 177 82.3569C177 84.763 178.935 86.7136 181.321 86.7136Z" fill="white"/>
<path d="M201.199 86.7135C203.586 86.7135 205.52 84.7629 205.52 82.3567C205.52 79.9506 203.586 78 201.199 78C198.813 78 196.878 79.9506 196.878 82.3567C196.878 84.7629 198.813 86.7135 201.199 86.7135Z" fill="white"/>
<path d="M221.076 86.7135C223.463 86.7135 225.397 84.7629 225.397 82.3567C225.397 79.9506 223.463 78 221.076 78C218.69 78 216.755 79.9506 216.755 82.3567C216.755 84.7629 218.69 86.7135 221.076 86.7135Z" fill="white"/>
<path d="M202.322 278.033C204.708 278.033 206.643 276.082 206.643 273.676C206.643 271.27 204.708 269.32 202.322 269.32C199.935 269.32 198 271.27 198 273.676C198 276.082 199.935 278.033 202.322 278.033Z" fill="white"/>
<path d="M222.076 278.033C224.462 278.033 226.397 276.082 226.397 273.676C226.397 271.27 224.462 269.319 222.076 269.319C219.689 269.319 217.755 271.27 217.755 273.676C217.755 276.082 219.689 278.033 222.076 278.033Z" fill="white"/>
<path d="M192.321 291.352C194.708 291.352 196.642 289.401 196.642 286.995C196.642 284.589 194.708 282.638 192.321 282.638C189.935 282.638 188 284.589 188 286.995C188 289.401 189.935 291.352 192.321 291.352Z" fill="white"/>
<path d="M212.199 291.352C214.585 291.352 216.52 289.401 216.52 286.995C216.52 284.589 214.585 282.638 212.199 282.638C209.812 282.638 207.878 284.589 207.878 286.995C207.878 289.401 209.812 291.352 212.199 291.352Z" fill="white"/>
<path d="M232.076 291.352C234.462 291.352 236.397 289.401 236.397 286.995C236.397 284.589 234.462 282.638 232.076 282.638C229.689 282.638 227.755 284.589 227.755 286.995C227.755 289.401 229.689 291.352 232.076 291.352Z" fill="white"/>
<path d="M212.199 264.714C214.585 264.714 216.52 262.763 216.52 260.357C216.52 257.951 214.585 256 212.199 256C209.812 256 207.878 257.951 207.878 260.357C207.878 262.763 209.812 264.714 212.199 264.714Z" fill="white"/>
<path d="M232.076 264.713C234.463 264.713 236.397 262.763 236.397 260.357C236.397 257.951 234.463 256 232.076 256C229.69 256 227.755 257.951 227.755 260.357C227.755 262.763 229.69 264.713 232.076 264.713Z" fill="white"/>
<path d="M292.323 245.396C292.323 252.616 279.36 273.901 279.36 273.901C279.36 273.901 265.532 255.23 264.668 248.134C263.557 238.176 272.199 231.579 279.36 231.579C286.521 231.454 292.323 238.176 292.323 245.396Z" fill="white"/>
</svg>
