<svg width="140" height="92" viewBox="0 0 140 92" fill="none" xmlns="http://www.w3.org/2000/svg">
<path fill-rule="evenodd" clip-rule="evenodd" d="M4.97496 0.00175038H88.0301C88.6101 -0.00491805 89.1856 0.105278 89.7221 0.325775C90.2587 0.546273 90.7454 0.872562 91.1533 1.28521C91.5612 1.69785 91.8819 2.18841 92.0963 2.72767C92.3107 3.26692 92.4145 3.84384 92.4014 4.42406V87.4761C92.4015 88.0482 92.2881 88.6146 92.0678 89.1425C91.8475 89.6705 91.5248 90.1494 91.1182 90.5517C90.7117 90.954 90.2294 91.2715 89.6993 91.486C89.1692 91.7005 88.6019 91.8076 88.0301 91.8012H4.92639C3.77993 91.8012 2.68042 91.3455 1.86974 90.5344C1.05907 89.7233 0.603637 88.6232 0.603637 87.4761V4.42406C0.590564 3.84384 0.694336 3.26692 0.90877 2.72767C1.12321 2.18841 1.44392 1.69785 1.8518 1.28521C2.25969 0.872562 2.74641 0.546273 3.28297 0.325775C3.81952 0.105278 4.39495 -0.00491805 4.97496 0.00175038ZM76.9508 78.1888C77.4518 77.6875 77.7332 77.0077 77.7332 76.2988V60.9908C77.7332 60.2819 77.4518 59.6021 76.9508 59.1008C76.4498 58.5996 75.7703 58.318 75.0619 58.318H17.9918C17.637 58.2983 17.2818 58.3498 16.947 58.4692C16.6123 58.5887 16.3048 58.7738 16.0424 59.0136C15.7801 59.2535 15.5682 59.5433 15.4192 59.8661C15.2702 60.1889 15.1871 60.5382 15.1747 60.8936V76.2988C15.1742 76.6624 15.2478 77.0223 15.3911 77.3565C15.5343 77.6906 15.7442 77.992 16.0079 78.2422C16.2716 78.4924 16.5836 78.6862 16.9247 78.8116C17.2658 78.937 17.6289 78.9914 17.9918 78.9716H75.0619C75.7703 78.9716 76.4498 78.69 76.9508 78.1888ZM76.9508 48.4475C77.4518 47.9462 77.7332 47.2664 77.7332 46.5575V15.6499C77.7332 14.9411 77.4518 14.2612 76.9508 13.76C76.4498 13.2587 75.7703 12.9771 75.0619 12.9771H17.8461C17.1376 12.9771 16.4581 13.2587 15.9571 13.76C15.4562 14.2612 15.1747 14.9411 15.1747 15.6499V46.5575C15.1742 46.9211 15.2478 47.281 15.3911 47.6152C15.5343 47.9494 15.7442 48.2508 16.0079 48.501C16.2716 48.7512 16.5836 48.9449 16.9247 49.0703C17.2658 49.1957 17.6289 49.2502 17.9918 49.2304H75.0619C75.7703 49.2304 76.4498 48.9487 76.9508 48.4475ZM35.0383 21.609H57.7598C58.1672 21.5698 58.5752 21.6762 58.9327 21.9148C59.2901 22.1534 59.5812 22.5137 59.7693 22.9505C59.9575 23.3873 60.0344 23.8813 59.9904 24.3705C59.9464 24.8597 59.7835 25.3224 59.5221 25.7007L53.8575 35.4751C51.5645 37.0008 48.9875 37.8011 46.3676 37.8011C43.7477 37.8011 41.1706 37.0008 38.8777 35.4751L33.3389 25.4733C33.1367 25.0995 33.0213 24.6674 33.0046 24.2218C32.9878 23.7762 33.0704 23.3333 33.2438 22.9391C33.4172 22.5448 33.675 22.2136 33.9905 21.9797C34.3061 21.7459 34.6678 21.6179 35.0383 21.609Z" fill="#BDBDBD"/>
<path fill-rule="evenodd" clip-rule="evenodd" d="M128.519 40.1227C127.555 35.2732 125.174 30.8186 121.677 27.3223C116.989 22.6339 110.63 19.9999 104 19.9999C97.3694 19.9999 91.0106 22.6339 86.3222 27.3223C82.8259 30.8186 80.4448 35.2732 79.4802 40.1227C78.5156 44.9723 79.0107 49.9989 80.9029 54.5671C82.795 59.1353 85.9993 63.0397 90.1106 65.7868C94.2218 68.5338 99.0553 70.0001 104 70.0001C108.944 70.0001 113.778 68.5338 117.889 65.7868C122 63.0397 125.205 59.1353 127.097 54.5671C128.989 49.9989 129.484 44.9723 128.519 40.1227ZM98.7764 37.4846L104.003 42.7107L109.245 37.5008C109.554 37.2357 109.953 37.0972 110.36 37.1129C110.767 37.1287 111.153 37.2975 111.441 37.5856C111.73 37.8738 111.898 38.2601 111.914 38.6673C111.93 39.0745 111.791 39.4726 111.526 39.7821L106.3 45.0083L111.526 50.2344C111.696 50.3795 111.833 50.5579 111.93 50.7587C112.027 50.9594 112.082 51.1781 112.091 51.4009C112.099 51.6237 112.062 51.8459 111.98 52.0536C111.899 52.2612 111.776 52.4498 111.618 52.6074C111.46 52.7651 111.272 52.8885 111.064 52.9699C110.856 53.0512 110.634 53.0887 110.411 53.0801C110.188 53.0715 109.97 53.017 109.769 52.9198C109.568 52.8227 109.39 52.6852 109.245 52.5158L104.003 47.2897L98.7926 52.5158C98.6428 52.6666 98.4648 52.7865 98.2687 52.8686C98.0725 52.9506 97.8622 52.9932 97.6496 52.994C97.437 52.9947 97.2263 52.9536 97.0296 52.8729C96.8329 52.7923 96.654 52.6737 96.5032 52.5239C96.3523 52.3741 96.2324 52.196 96.1504 51.9999C96.0683 51.8038 96.0257 51.5934 96.025 51.3808C96.0242 51.1682 96.0653 50.9576 96.146 50.7609C96.2267 50.5642 96.3453 50.3853 96.4951 50.2344L101.721 45.0083L96.4951 39.766C96.3257 39.6209 96.1881 39.4424 96.091 39.2417C95.9939 39.041 95.9393 38.8223 95.9307 38.5995C95.9221 38.3767 95.9597 38.1544 96.041 37.9468C96.1224 37.7392 96.2457 37.5506 96.4034 37.3929C96.5611 37.2353 96.7497 37.1119 96.9573 37.0305C97.1649 36.9492 97.3871 36.9116 97.61 36.9202C97.8328 36.9288 98.0514 36.9834 98.2522 37.0805C98.4529 37.1777 98.6314 37.3152 98.7764 37.4846Z" fill="#E0E0E0"/>
</svg>