<?xml version="1.0" encoding="UTF-8" standalone="no"?>
<svg
   xmlns:dc="http://purl.org/dc/elements/1.1/"
   xmlns:cc="http://creativecommons.org/ns#"
   xmlns:rdf="http://www.w3.org/1999/02/22-rdf-syntax-ns#"
   xmlns:svg="http://www.w3.org/2000/svg"
   xmlns="http://www.w3.org/2000/svg"
   xmlns:sodipodi="http://sodipodi.sourceforge.net/DTD/sodipodi-0.dtd"
   xmlns:inkscape="http://www.inkscape.org/namespaces/inkscape"
   width="165"
   height="92"
   viewBox="0 0 165 92"
   id="svg2"
   version="1.1"
   inkscape:version="0.91 r13725"
   sodipodi:docname="table-no-data.svg"
   style="fill:none">
  <metadata
     id="metadata12">
    <rdf:RDF>
      <cc:Work
         rdf:about="">
        <dc:format>image/svg+xml</dc:format>
        <dc:type
           rdf:resource="http://purl.org/dc/dcmitype/StillImage" />
        <dc:title></dc:title>
      </cc:Work>
    </rdf:RDF>
  </metadata>
  <defs
     id="defs10" />
  <sodipodi:namedview
     pagecolor="#ffffff"
     bordercolor="#666666"
     borderopacity="1"
     objecttolerance="10"
     gridtolerance="10"
     guidetolerance="10"
     inkscape:pageopacity="0"
     inkscape:pageshadow="2"
     inkscape:window-width="1317"
     inkscape:window-height="744"
     id="namedview8"
     showgrid="false"
     inkscape:zoom="2.5652174"
     inkscape:cx="83.601695"
     inkscape:cy="46"
     inkscape:window-x="49"
     inkscape:window-y="24"
     inkscape:window-maximized="1"
     inkscape:current-layer="svg2" />
  <path
     d="m 38.890214,2.8423e-4 83.055136,0 c 0.58,-0.00665283 1.1555,0.10354577 1.692,0.32403577 0.5366,0.220489 1.0233,0.546783 1.4312,0.95944 0.4079,0.41263 0.7286,0.9032 0.943,1.44245 0.2144,0.53924 0.3182,1.11618 0.3051,1.69641 l 0,83.05198 c 1e-4,0.5721 -0.1133,1.1385 -0.3336,1.6665 -0.2203,0.5279 -0.543,1.0069 -0.9496,1.4091 -0.4065,0.4023 -0.8888,0.7199 -1.4189,0.9343 -0.5301,0.2145 -1.0974,0.3217 -1.6692,0.3152 l -83.103706,0 c -1.14646,0 -2.24597,-0.4556 -3.05665,-1.2668 -0.81067,-0.8111 -1.266103,-1.9112 -1.266103,-3.0583 l 0,-83.05198 c -0.01307,-0.58023 0.0907,-1.15717 0.305133,-1.69641 0.21444,-0.53925 0.53515,-1.02982 0.94303,-1.44245 0.40789,-0.412657 0.89461,-0.738951 1.43117,-0.95944 0.53655,-0.22049 1.11198,-0.3306886 1.69199,-0.32403577 z M 110.86605,78.1873 c 0.501,-0.5013 0.7824,-1.1811 0.7824,-1.89 l 0,-15.308 c 0,-0.7088 -0.2814,-1.3887 -0.7824,-1.89 -0.501,-0.5012 -1.1805,-0.7828 -1.8889,-0.7828 l -57.070096,0 c -0.3548,-0.0196 -0.71,0.0318 -1.0448,0.1513 -0.3347,0.1194 -0.6422,0.3045 -0.9046,0.5444 -0.2623,0.2398 -0.4742,0.5297 -0.6232,0.8525 -0.149,0.3228 -0.2321,0.6721 -0.2445,1.0274 l 0,15.4052 c -5e-4,0.3637 0.0731,0.7236 0.2164,1.0577 0.1432,0.3342 0.3531,0.6356 0.6168,0.8858 0.2637,0.2502 0.5757,0.4439 0.9168,0.5693 0.3411,0.1255 0.7042,0.1799 1.0671,0.1601 l 57.070096,0 c 0.7084,0 1.3879,-0.2816 1.8889,-0.7829 z m 0,-29.7412 c 0.501,-0.5013 0.7824,-1.1812 0.7824,-1.89 l 0,-30.9076 c 0,-0.7089 -0.2814,-1.3888 -0.7824,-1.89 -0.501,-0.5013 -1.1805,-0.7828 -1.8889,-0.7828 l -57.215796,0 c -0.7085,0 -1.388,0.2815 -1.889,0.7828 -0.5009,0.5012 -0.7824,1.1811 -0.7824,1.89 l 0,30.9076 c -5e-4,0.3636 0.0731,0.7235 0.2164,1.0577 0.1432,0.3341 0.3531,0.6355 0.6168,0.8857 0.2637,0.2502 0.5757,0.444 0.9168,0.5694 0.3411,0.1254 0.7042,0.1798 1.0671,0.16 l 57.070096,0 c 0.7084,0 1.3879,-0.2816 1.8889,-0.7828 z m -41.912396,-26.8375 22.7215,0 c 0.4075,-0.0393 0.8154,0.0671 1.1729,0.3057 0.3574,0.2386 0.6485,0.5989 0.8366,1.0358 0.1882,0.4368 0.2651,0.9307 0.2211,1.4199 -0.044,0.4892 -0.2068,0.9519 -0.4682,1.3302 l -5.6647,9.7744 c -2.293,1.5257 -4.87,2.326 -7.4899,2.326 -2.6199,0 -5.197,-0.8003 -7.4899,-2.326 l -5.5388,-10.0018 c -0.2022,-0.3738 -0.3176,-0.8059 -0.3343,-1.2515 -0.0167,-0.4456 0.0659,-0.8885 0.2392,-1.2827 0.1734,-0.3942 0.4312,-0.7255 0.7468,-0.9593 0.3155,-0.2339 0.6772,-0.3619 1.0477,-0.3707 z"
     id="path4"
     inkscape:connector-curvature="0"
     style="clip-rule:evenodd;fill:#bdbdbd;fill-rule:evenodd" />
  <path
     d="m 162.43503,40.122507 c -0.96463,-4.849479 -3.34582,-9.303898 -6.84211,-12.800188 -4.6884,-4.688401 -11.04734,-7.322303 -17.67745,-7.322586 -6.63082,4.25e-4 -12.98976,2.634468 -17.67788,7.322586 -3.49629,3.49629 -5.87733,7.95085 -6.8419,12.800401 -0.9647,4.84955 -0.46959,9.876231 1.42256,14.444353 1.89222,4.568192 5.09647,8.472624 9.2078,11.219663 4.11119,2.747039 8.94469,4.213296 13.8892,4.213296 4.94459,-7.1e-5 9.77802,-1.466257 13.88921,-4.213296 4.11105,-2.746898 7.31565,-6.651541 9.20773,-11.219593 1.89208,-4.568051 2.38755,-9.595085 1.42284,-14.444636 z m -29.74289,-2.638073 5.22608,5.226084 5.24242,-5.210033 c 0.30929,-0.264882 0.70711,-0.403051 1.11447,-0.387424 0.4073,0.01556 0.79373,0.184201 1.08195,0.472418 0.28814,0.288146 0.45679,0.67458 0.47235,1.081873 0.0156,0.407365 -0.12255,0.805183 -0.38743,1.114471 l -5.22622,5.226227 5.22615,5.226155 c 0.16921,0.145169 0.30674,0.323714 0.40404,0.524249 0.0966,0.201243 0.15118,0.41988 0.16016,0.642407 0.008,0.223163 -0.0289,0.444911 -0.11066,0.653013 -0.0811,0.207394 -0.20407,0.395555 -0.36176,0.55324 -0.15768,0.157685 -0.34655,0.281358 -0.55394,0.362463 -0.20811,0.08181 -0.42985,0.118865 -0.65302,0.110662 -0.22252,-0.009 -0.44116,-0.06357 -0.6424,-0.160159 -0.20054,-0.0973 -0.37908,-0.234831 -0.52425,-0.404041 l -5.242,-5.226439 -5.21003,5.226156 c -0.14976,0.150896 -0.32781,0.27068 -0.52389,0.352775 -0.19615,0.08203 -0.40652,0.124663 -0.61914,0.125441 -0.21256,7.07e-4 -0.42321,-0.04038 -0.62,-0.121056 -0.19664,-0.08068 -0.37554,-0.199334 -0.52637,-0.349028 -0.15082,-0.149836 -0.27075,-0.327886 -0.35277,-0.524037 -0.0821,-0.196081 -0.12474,-0.406445 -0.12551,-0.619072 -7.1e-4,-0.212556 0.0404,-0.423274 0.12112,-0.619921 0.0806,-0.196717 0.19927,-0.375615 0.34903,-0.526511 l 5.22615,-5.226156 -5.22636,-5.241924 c -0.16928,-0.14524 -0.30681,-0.323784 -0.40411,-0.52432 -0.0966,-0.201242 -0.15118,-0.41988 -0.16009,-0.642335 -0.008,-0.223234 0.0288,-0.444983 0.11066,-0.653014 0.0811,-0.207394 0.20478,-0.396262 0.36246,-0.553947 0.15769,-0.157685 0.34585,-0.280651 0.55324,-0.361756 0.20804,-0.08188 0.42978,-0.118935 0.65302,-0.110662 0.22245,0.0089 0.44109,0.0635 0.64233,0.160089 0.20054,0.0973 0.37908,0.23483 0.52432,0.404112 z"
     id="path6"
     inkscape:connector-curvature="0"
     style="clip-rule:evenodd;fill:#e0e0e0;fill-rule:evenodd" />
</svg>
