<svg width="60" height="60" viewBox="0 0 60 60" fill="none" xmlns="http://www.w3.org/2000/svg">
<circle cx="30" cy="30" r="30" fill="#F2F2F2"/>
<path fill-rule="evenodd" clip-rule="evenodd" d="M28.7554 21.0869C28.4542 20.8256 28.2593 20.4635 28.2074 20.0688L26.7686 14.8353C26.7109 14.5923 26.71 14.3393 26.7659 14.0958C26.8218 13.8524 26.933 13.625 27.091 13.4312C27.249 13.2374 27.4495 13.0825 27.6771 12.9782C27.9047 12.8739 28.1532 12.8232 28.4036 12.8299H31.1014C31.3483 12.8244 31.5933 12.8748 31.8179 12.9772C32.0425 13.0796 32.2409 13.2314 32.3983 13.4213C32.5556 13.6111 32.6678 13.834 32.7264 14.0733C32.7849 14.3125 32.7884 14.5619 32.7364 14.8027L31.4775 20.0688C31.4256 20.4635 31.2307 20.8256 30.9295 21.0869C30.6283 21.3482 30.2416 21.4906 29.8424 21.4872C29.4432 21.4906 29.0566 21.3482 28.7554 21.0869ZM36.0432 19.694H47.096C47.2698 19.6939 47.4419 19.7288 47.6019 19.7965C47.7619 19.8643 47.9065 19.9636 48.0271 20.0884C48.1477 20.2132 48.2418 20.361 48.3038 20.523C48.3657 20.685 48.3943 20.8577 48.3877 21.0309V43.6604C48.3877 44.002 48.2516 44.3296 48.0093 44.5712C47.7671 44.8127 47.4386 44.9484 47.096 44.9484H12.6296C12.287 44.9484 11.9584 44.8127 11.7162 44.5712C11.474 44.3296 11.3379 44.002 11.3379 43.6604V20.982C11.3379 20.6404 11.474 20.3128 11.7162 20.0713C11.9584 19.8297 12.287 19.694 12.6296 19.694H22.8649C23.1861 19.6984 23.4975 19.8052 23.7535 19.9988C24.0095 20.1925 24.1966 20.4627 24.2873 20.7701C24.8596 22.5472 25.9224 24.3243 27.5574 24.3243H31.5796C33.1787 24.3243 33.8547 22.7863 34.4926 21.3346C34.6374 21.0052 34.7802 20.6803 34.9314 20.3788C35.0361 20.1741 35.1952 20.002 35.3912 19.8813C35.5872 19.7605 35.8128 19.6958 36.0432 19.694ZM27.3234 40.6114C27.4211 40.511 27.4757 40.3766 27.4756 40.2367L27.4429 38.4269C27.4438 38.3179 27.4114 38.2112 27.3501 38.121C27.2888 38.0307 27.2014 37.9612 27.0996 37.9215C25.3907 37.4126 23.9188 36.3147 22.9466 34.8238V34.3673C23.5531 33.8066 24.0038 33.0989 24.2546 32.3131C24.3918 32.2152 24.5072 32.0903 24.5938 31.9459C24.6803 31.8016 24.736 31.6411 24.7575 31.4743C24.779 31.3075 24.7658 31.1381 24.7186 30.9766C24.6715 30.8152 24.5914 30.6652 24.4835 30.536V28.9056C24.4835 27.1611 23.4371 25.9709 21.2135 25.9709C20.796 25.8983 20.3674 25.9213 19.9602 26.0381C19.5529 26.1549 19.1776 26.3624 18.8626 26.6451C18.5476 26.9278 18.3012 27.2782 18.1419 27.6698C17.9827 28.0614 17.9148 28.484 17.9434 28.9056V30.536C17.8355 30.6652 17.7555 30.8152 17.7083 30.9766C17.6612 31.1381 17.6479 31.3075 17.6694 31.4743C17.6909 31.6411 17.7466 31.8016 17.8332 31.9459C17.9197 32.0903 18.0352 32.2152 18.1723 32.3131C18.3716 33.0806 18.7593 33.7865 19.3005 34.3673V34.7423C18.3272 36.2322 16.8557 37.3298 15.1475 37.84C15.0457 37.8797 14.9583 37.9492 14.897 38.0395C14.8357 38.1297 14.8033 38.2364 14.8042 38.3454V40.2367C14.8041 40.3766 14.8587 40.511 14.9564 40.6114C15.054 40.7119 15.1871 40.7704 15.3274 40.7747H26.9524C27.0927 40.7704 27.2257 40.7119 27.3234 40.6114ZM32.5279 36.5357H42.1909C42.3927 36.5357 42.5926 36.4961 42.7791 36.4191C42.9655 36.342 43.135 36.2292 43.2777 36.0868C43.4204 35.9445 43.5336 35.7756 43.6108 35.5897C43.6881 35.4037 43.7278 35.2044 43.7278 35.0032C43.7278 34.8019 43.6881 34.6026 43.6108 34.4167C43.5336 34.2308 43.4204 34.0618 43.2777 33.9195C43.135 33.7772 42.9655 33.6643 42.7791 33.5873C42.5926 33.5103 42.3927 33.4706 42.1909 33.4706H32.5279C32.1203 33.4706 31.7293 33.6321 31.4411 33.9195C31.1529 34.2069 30.9909 34.5967 30.9909 35.0032C30.9909 35.4096 31.1529 35.7994 31.4411 36.0868C31.7293 36.3743 32.1203 36.5357 32.5279 36.5357ZM32.5279 31.2696H42.1909C42.3927 31.2696 42.5926 31.23 42.7791 31.153C42.9655 31.076 43.135 30.9631 43.2777 30.8208C43.4204 30.6785 43.5336 30.5095 43.6108 30.3236C43.6881 30.1376 43.7278 29.9383 43.7278 29.7371C43.7278 29.5358 43.6881 29.3365 43.6108 29.1506C43.5336 28.9647 43.4204 28.7957 43.2777 28.6534C43.135 28.5111 42.9655 28.3982 42.7791 28.3212C42.5926 28.2442 42.3927 28.2045 42.1909 28.2045H32.5279C32.1203 28.2045 31.7293 28.366 31.4411 28.6534C31.1529 28.9408 30.9909 29.3306 30.9909 29.7371C30.9909 30.1435 31.1529 30.5334 31.4411 30.8208C31.7293 31.1082 32.1203 31.2696 32.5279 31.2696Z" fill="white"/>
</svg>
