<svg width="240" height="194" viewBox="0 0 240 194" fill="none" xmlns="http://www.w3.org/2000/svg">
<circle cx="120.5" cy="97.5" r="51.5" fill="white"/>
<path fill-rule="evenodd" clip-rule="evenodd" d="M135.44 34.9373H145.983C151.512 34.9373 155.936 39.4334 156.009 45.0352C156.009 50.5633 151.512 55.0594 145.983 55.0594H135.514C133.229 55.0594 131.164 56.5336 130.354 58.6711L126.962 67V55.0594H118.853H116.641C111.112 55.0594 106.614 50.5633 106.614 45.0352C106.614 39.5071 111.112 35.011 116.641 35.011H119C121.064 35.011 122.76 33.3157 122.76 31.2519C122.76 29.1881 121.064 27.4928 119 27.4928H93.7127C86.1191 27.4928 80 21.3751 80 13.7833C80 6.19142 86.1191 0.0737074 93.7127 0H144.287C151.881 0 158 6.11771 158 13.7096C158 21.3014 151.881 27.4191 144.287 27.4191H135.44C133.376 27.4191 131.681 29.1144 131.681 31.1782C131.681 33.242 133.376 34.9373 135.44 34.9373ZM143.08 83.037C143.528 83.037 143.977 83.037 144.425 83.1111C148.911 83.7037 152.425 87.3333 152.948 91.7037C153.546 97.5556 148.911 102.519 143.155 102.519C141.734 102.519 140.388 102.222 139.192 101.704C136.052 100.296 132.389 102.444 131.941 105.852L128.95 128H107.121L101.588 86.4444H98V72H99.6447H136.351H137.996V78.2222C137.996 80.963 140.314 83.037 143.08 83.037ZM137.697 92.7407C137.697 95.7037 140.089 98.0741 143.08 98.0741C146.07 98.0741 148.462 95.7037 148.462 92.7407C148.462 89.7778 146.07 87.4074 143.08 87.4074C140.089 87.4074 137.697 89.7778 137.697 92.7407Z" fill="#E0E0E0"/>
</svg>
