<svg width="240" height="194" viewBox="0 0 240 194" fill="none" xmlns="http://www.w3.org/2000/svg">
<path d="M28.2337 187.39C28.0537 187.858 27.8677 188.266 27.6757 188.614C27.4837 188.95 27.2557 189.232 26.9917 189.46C26.7277 189.688 26.4157 189.856 26.0557 189.964C25.6957 190.072 25.2577 190.126 24.7417 190.126C24.5257 190.126 24.3037 190.114 24.0757 190.09C23.8477 190.066 23.6917 190.042 23.6077 190.018C23.4997 189.994 23.4097 189.964 23.3377 189.928C23.2657 189.892 23.2297 189.826 23.2297 189.73V188.902C23.2297 188.686 23.3617 188.59 23.6257 188.614C23.7697 188.626 23.8897 188.638 23.9857 188.65C24.0817 188.65 24.1657 188.656 24.2377 188.668C24.3217 188.668 24.3997 188.668 24.4717 188.668C24.5557 188.668 24.6457 188.668 24.7417 188.668C24.9937 188.668 25.2097 188.65 25.3897 188.614C25.5697 188.578 25.7257 188.506 25.8577 188.398C25.9897 188.278 26.1097 188.122 26.2177 187.93C26.3377 187.726 26.4577 187.462 26.5777 187.138L27.2257 185.446H27.1357C26.7997 185.446 26.5417 185.368 26.3617 185.212C26.1817 185.056 26.0077 184.768 25.8397 184.348L23.1217 177.076C23.0617 176.944 23.0557 176.836 23.1037 176.752C23.1517 176.668 23.2417 176.626 23.3737 176.626H24.4717C24.5317 176.626 24.5917 176.656 24.6517 176.716C24.7237 176.764 24.7717 176.818 24.7957 176.878L27.3337 183.628C27.3937 183.784 27.4417 183.88 27.4777 183.916C27.5257 183.952 27.5977 183.97 27.6937 183.97H27.8017L30.5557 176.878C30.5797 176.818 30.6157 176.764 30.6637 176.716C30.7237 176.656 30.7897 176.626 30.8617 176.626H31.9777C32.1097 176.626 32.1997 176.668 32.2477 176.752C32.2957 176.836 32.2897 176.944 32.2297 177.076L28.2337 187.39ZM46.215 187.102C46.215 187.666 46.101 188.14 45.873 188.524C45.645 188.908 45.327 189.22 44.919 189.46C44.511 189.7 44.025 189.874 43.461 189.982C42.909 190.078 42.309 190.126 41.661 190.126C41.493 190.126 41.289 190.12 41.049 190.108C40.809 190.108 40.563 190.102 40.311 190.09C40.059 190.09 39.813 190.084 39.573 190.072C39.333 190.06 39.141 190.042 38.997 190.018C38.649 189.982 38.475 189.814 38.475 189.514V180.586C38.475 180.274 38.643 180.1 38.979 180.064C39.243 180.04 39.615 180.022 40.095 180.01C40.575 179.986 41.157 179.974 41.841 179.974C42.345 179.974 42.849 180.004 43.353 180.064C43.869 180.124 44.331 180.25 44.739 180.442C45.147 180.634 45.477 180.91 45.729 181.27C45.981 181.618 46.107 182.08 46.107 182.656V182.746C46.107 183.166 46.005 183.58 45.801 183.988C45.597 184.384 45.267 184.672 44.811 184.852C45.315 185.056 45.675 185.35 45.891 185.734C46.107 186.106 46.215 186.52 46.215 186.976V187.102ZM44.505 182.656C44.505 182.104 44.271 181.738 43.803 181.558C43.335 181.366 42.645 181.27 41.733 181.27C41.457 181.27 41.163 181.27 40.851 181.27C40.539 181.27 40.275 181.276 40.059 181.288V184.258H42.309C42.573 184.258 42.837 184.246 43.101 184.222C43.365 184.186 43.599 184.12 43.803 184.024C44.019 183.916 44.187 183.766 44.307 183.574C44.439 183.37 44.505 183.094 44.505 182.746V182.656ZM44.613 186.976C44.613 186.628 44.541 186.358 44.397 186.166C44.265 185.962 44.085 185.812 43.857 185.716C43.641 185.608 43.395 185.542 43.119 185.518C42.843 185.494 42.573 185.482 42.309 185.482H40.059V188.812C40.335 188.824 40.593 188.836 40.833 188.848C41.073 188.848 41.331 188.848 41.607 188.848C42.711 188.848 43.485 188.71 43.929 188.434C44.385 188.158 44.613 187.714 44.613 187.102V186.976ZM56.0382 185.716C56.0382 187.132 55.7142 188.224 55.0662 188.992C54.4182 189.748 53.4342 190.126 52.1142 190.126C51.8382 190.126 51.5022 190.108 51.1062 190.072C50.7222 190.036 50.3562 189.988 50.0082 189.928V193.186C50.0082 193.282 49.9722 193.36 49.9002 193.42C49.8402 193.492 49.7622 193.528 49.6662 193.528H48.7482C48.6522 193.528 48.5742 193.492 48.5142 193.42C48.4542 193.36 48.4242 193.282 48.4242 193.186V180.802C48.4242 180.682 48.4422 180.592 48.4782 180.532C48.5262 180.472 48.6342 180.424 48.8022 180.388C49.2822 180.268 49.8162 180.172 50.4042 180.1C50.9922 180.016 51.5622 179.974 52.1142 179.974C52.7862 179.974 53.3682 180.082 53.8602 180.298C54.3522 180.502 54.7602 180.802 55.0842 181.198C55.4082 181.582 55.6482 182.05 55.8042 182.602C55.9602 183.142 56.0382 183.748 56.0382 184.42V185.716ZM54.4542 184.42C54.4542 183.952 54.4122 183.526 54.3282 183.142C54.2562 182.758 54.1302 182.434 53.9502 182.17C53.7702 181.894 53.5302 181.684 53.2302 181.54C52.9302 181.384 52.5582 181.306 52.1142 181.306C51.7302 181.306 51.3462 181.324 50.9622 181.36C50.5782 181.396 50.2602 181.438 50.0082 181.486V188.614C50.3082 188.674 50.6622 188.722 51.0702 188.758C51.4782 188.782 51.8262 188.794 52.1142 188.794C52.5582 188.794 52.9302 188.728 53.2302 188.596C53.5302 188.452 53.7702 188.248 53.9502 187.984C54.1302 187.72 54.2562 187.396 54.3282 187.012C54.4122 186.628 54.4542 186.196 54.4542 185.716V184.42ZM65.0565 189.64C65.0565 189.736 65.0205 189.82 64.9485 189.892C64.8765 189.964 64.7925 190 64.6965 190H63.8685C63.7725 190 63.6885 189.964 63.6165 189.892C63.5445 189.82 63.5085 189.736 63.5085 189.64V189.244C63.0765 189.496 62.6325 189.706 62.1765 189.874C61.7205 190.042 61.2405 190.126 60.7365 190.126C60.3525 190.126 59.9805 190.084 59.6205 190C59.2725 189.904 58.9605 189.742 58.6845 189.514C58.4205 189.286 58.2045 188.986 58.0365 188.614C57.8805 188.242 57.8025 187.774 57.8025 187.21V186.994C57.8025 186.514 57.8745 186.094 58.0185 185.734C58.1745 185.362 58.4205 185.056 58.7565 184.816C59.1045 184.564 59.5545 184.378 60.1065 184.258C60.6585 184.138 61.3365 184.078 62.1405 184.078H63.4725V183.358C63.4725 182.602 63.3285 182.074 63.0405 181.774C62.7525 181.474 62.2545 181.324 61.5465 181.324C60.9585 181.324 60.4425 181.342 59.9985 181.378C59.5545 181.402 59.1525 181.432 58.7925 181.468C58.6965 181.48 58.6005 181.468 58.5045 181.432C58.4205 181.396 58.3785 181.312 58.3785 181.18V180.55C58.3785 180.358 58.5045 180.244 58.7565 180.208C59.1285 180.148 59.5305 180.094 59.9625 180.046C60.4065 179.998 60.9345 179.974 61.5465 179.974C62.7945 179.974 63.6885 180.274 64.2285 180.874C64.7805 181.474 65.0565 182.302 65.0565 183.358V189.64ZM63.4725 185.212H62.1405C61.6005 185.212 61.1505 185.248 60.7905 185.32C60.4305 185.38 60.1485 185.482 59.9445 185.626C59.7405 185.758 59.5965 185.938 59.5125 186.166C59.4285 186.382 59.3865 186.652 59.3865 186.976V187.192C59.3865 187.84 59.5305 188.278 59.8185 188.506C60.1065 188.722 60.5145 188.83 61.0425 188.83C61.4625 188.83 61.8645 188.77 62.2485 188.65C62.6325 188.53 63.0405 188.35 63.4725 188.11V185.212ZM74.8585 189.64C74.8585 189.736 74.8225 189.82 74.7505 189.892C74.6785 189.964 74.5945 190 74.4985 190H73.6345C73.5385 190 73.4545 189.964 73.3825 189.892C73.3105 189.82 73.2745 189.736 73.2745 189.64V185.95C72.9025 186.01 72.4705 186.064 71.9785 186.112C71.4865 186.16 71.0425 186.184 70.6465 186.184C70.1785 186.184 69.7285 186.148 69.2965 186.076C68.8765 185.992 68.5105 185.842 68.1985 185.626C67.8865 185.41 67.6345 185.116 67.4425 184.744C67.2625 184.372 67.1725 183.892 67.1725 183.304V180.46C67.1725 180.364 67.2085 180.28 67.2805 180.208C67.3525 180.136 67.4365 180.1 67.5325 180.1H68.3965C68.4925 180.1 68.5765 180.136 68.6485 180.208C68.7205 180.28 68.7565 180.364 68.7565 180.46V183.304C68.7565 183.616 68.7925 183.88 68.8645 184.096C68.9365 184.3 69.0565 184.462 69.2245 184.582C69.4045 184.702 69.6325 184.786 69.9085 184.834C70.1965 184.882 70.5505 184.906 70.9705 184.906C71.0785 184.906 71.2345 184.9 71.4385 184.888C71.6545 184.876 71.8765 184.864 72.1045 184.852C72.3325 184.828 72.5485 184.804 72.7525 184.78C72.9685 184.756 73.1425 184.732 73.2745 184.708V180.46C73.2745 180.364 73.3105 180.28 73.3825 180.208C73.4545 180.136 73.5385 180.1 73.6345 180.1H74.4985C74.5945 180.1 74.6785 180.136 74.7505 180.208C74.8225 180.28 74.8585 180.364 74.8585 180.46V189.64ZM84.1991 189.64C84.1991 189.736 84.1631 189.82 84.0911 189.892C84.0191 189.964 83.9351 190 83.8391 190H83.0111C82.9151 190 82.8311 189.964 82.7591 189.892C82.6871 189.82 82.6511 189.736 82.6511 189.64V189.244C82.2191 189.496 81.7751 189.706 81.3191 189.874C80.8631 190.042 80.3831 190.126 79.8791 190.126C79.4951 190.126 79.1231 190.084 78.7631 190C78.4151 189.904 78.1031 189.742 77.8271 189.514C77.5631 189.286 77.3471 188.986 77.1791 188.614C77.0231 188.242 76.9451 187.774 76.9451 187.21V186.994C76.9451 186.514 77.0171 186.094 77.1611 185.734C77.3171 185.362 77.5631 185.056 77.8991 184.816C78.2471 184.564 78.6971 184.378 79.2491 184.258C79.8011 184.138 80.4791 184.078 81.2831 184.078H82.6151V183.358C82.6151 182.602 82.4711 182.074 82.1831 181.774C81.8951 181.474 81.3971 181.324 80.6891 181.324C80.1011 181.324 79.5851 181.342 79.1411 181.378C78.6971 181.402 78.2951 181.432 77.9351 181.468C77.8391 181.48 77.7431 181.468 77.6471 181.432C77.5631 181.396 77.5211 181.312 77.5211 181.18V180.55C77.5211 180.358 77.6471 180.244 77.8991 180.208C78.2711 180.148 78.6731 180.094 79.1051 180.046C79.5491 179.998 80.0771 179.974 80.6891 179.974C81.9371 179.974 82.8311 180.274 83.3711 180.874C83.9231 181.474 84.1991 182.302 84.1991 183.358V189.64ZM82.6151 185.212H81.2831C80.7431 185.212 80.2931 185.248 79.9331 185.32C79.5731 185.38 79.2911 185.482 79.0871 185.626C78.8831 185.758 78.7391 185.938 78.6551 186.166C78.5711 186.382 78.5291 186.652 78.5291 186.976V187.192C78.5291 187.84 78.6731 188.278 78.9611 188.506C79.2491 188.722 79.6571 188.83 80.1851 188.83C80.6051 188.83 81.0071 188.77 81.3911 188.65C81.7751 188.53 82.1831 188.35 82.6151 188.11V185.212ZM98.8263 187.102C98.8263 187.666 98.7123 188.14 98.4843 188.524C98.2563 188.908 97.9383 189.22 97.5303 189.46C97.1223 189.7 96.6363 189.874 96.0723 189.982C95.5203 190.078 94.9203 190.126 94.2723 190.126C94.1043 190.126 93.9003 190.12 93.6603 190.108C93.4203 190.108 93.1743 190.102 92.9223 190.09C92.6703 190.09 92.4243 190.084 92.1843 190.072C91.9443 190.06 91.7523 190.042 91.6083 190.018C91.2603 189.982 91.0863 189.814 91.0863 189.514V180.586C91.0863 180.274 91.2543 180.1 91.5903 180.064C91.8543 180.04 92.2263 180.022 92.7063 180.01C93.1863 179.986 93.7683 179.974 94.4523 179.974C94.9563 179.974 95.4603 180.004 95.9643 180.064C96.4803 180.124 96.9423 180.25 97.3503 180.442C97.7583 180.634 98.0883 180.91 98.3403 181.27C98.5923 181.618 98.7183 182.08 98.7183 182.656V182.746C98.7183 183.166 98.6163 183.58 98.4123 183.988C98.2083 184.384 97.8783 184.672 97.4223 184.852C97.9263 185.056 98.2863 185.35 98.5023 185.734C98.7183 186.106 98.8263 186.52 98.8263 186.976V187.102ZM97.1163 182.656C97.1163 182.104 96.8823 181.738 96.4143 181.558C95.9463 181.366 95.2563 181.27 94.3443 181.27C94.0683 181.27 93.7743 181.27 93.4623 181.27C93.1503 181.27 92.8863 181.276 92.6703 181.288V184.258H94.9203C95.1843 184.258 95.4483 184.246 95.7123 184.222C95.9763 184.186 96.2103 184.12 96.4143 184.024C96.6303 183.916 96.7983 183.766 96.9183 183.574C97.0503 183.37 97.1163 183.094 97.1163 182.746V182.656ZM97.2243 186.976C97.2243 186.628 97.1523 186.358 97.0083 186.166C96.8763 185.962 96.6963 185.812 96.4683 185.716C96.2523 185.608 96.0063 185.542 95.7303 185.518C95.4543 185.494 95.1843 185.482 94.9203 185.482H92.6703V188.812C92.9463 188.824 93.2043 188.836 93.4443 188.848C93.6843 188.848 93.9423 188.848 94.2183 188.848C95.3223 188.848 96.0963 188.71 96.5403 188.434C96.9963 188.158 97.2243 187.714 97.2243 187.102V186.976ZM111.854 189.64C111.854 189.736 111.818 189.82 111.746 189.892C111.674 189.964 111.59 190 111.494 190H110.63C110.534 190 110.45 189.964 110.378 189.892C110.306 189.82 110.27 189.736 110.27 189.64V180.46C110.27 180.364 110.306 180.28 110.378 180.208C110.45 180.136 110.534 180.1 110.63 180.1H111.494C111.59 180.1 111.674 180.136 111.746 180.208C111.818 180.28 111.854 180.364 111.854 180.46V189.64ZM108.866 187.102C108.866 187.666 108.752 188.14 108.524 188.524C108.296 188.908 107.978 189.22 107.57 189.46C107.162 189.7 106.676 189.874 106.112 189.982C105.56 190.078 104.96 190.126 104.312 190.126C103.784 190.126 103.268 190.114 102.764 190.09C102.26 190.078 101.858 190.054 101.558 190.018C101.378 189.994 101.246 189.946 101.162 189.874C101.078 189.802 101.036 189.682 101.036 189.514V180.46C101.036 180.364 101.072 180.28 101.144 180.208C101.216 180.136 101.3 180.1 101.396 180.1H102.26C102.356 180.1 102.44 180.136 102.512 180.208C102.584 180.28 102.62 180.364 102.62 180.46V183.97C102.884 183.958 103.16 183.952 103.448 183.952C103.736 183.94 104.024 183.934 104.312 183.934C104.96 183.934 105.56 183.988 106.112 184.096C106.676 184.192 107.162 184.36 107.57 184.6C107.978 184.84 108.296 185.152 108.524 185.536C108.752 185.92 108.866 186.394 108.866 186.958V187.102ZM107.264 186.958C107.264 186.346 107.006 185.92 106.49 185.68C105.974 185.428 105.23 185.302 104.258 185.302C103.982 185.302 103.706 185.308 103.43 185.32C103.154 185.332 102.884 185.344 102.62 185.356V188.704C102.884 188.716 103.154 188.728 103.43 188.74C103.706 188.752 103.982 188.758 104.258 188.758C105.23 188.758 105.974 188.638 106.49 188.398C107.006 188.146 107.264 187.714 107.264 187.102V186.958ZM122.385 189.586C122.445 189.682 122.469 189.778 122.457 189.874C122.445 189.958 122.367 190 122.223 190H120.981C120.873 190 120.789 189.952 120.729 189.856L118.155 186.094L115.581 189.82C115.521 189.904 115.473 189.958 115.437 189.982C115.413 189.994 115.359 190 115.275 190H114.195C114.075 190 114.003 189.964 113.979 189.892C113.955 189.808 113.985 189.706 114.069 189.586L117.309 184.96L114.249 180.55C114.153 180.418 114.129 180.31 114.177 180.226C114.225 180.142 114.309 180.1 114.429 180.1H115.599C115.671 180.1 115.731 180.118 115.779 180.154C115.839 180.19 115.899 180.256 115.959 180.352L118.245 183.736L120.549 180.352C120.633 180.232 120.693 180.16 120.729 180.136C120.777 180.112 120.843 180.1 120.927 180.1H121.971C122.091 180.1 122.163 180.148 122.187 180.244C122.223 180.328 122.199 180.43 122.115 180.55L119.091 184.852L122.385 189.586ZM131.292 185.734C131.292 186.394 131.208 186.994 131.04 187.534C130.872 188.074 130.62 188.536 130.284 188.92C129.948 189.304 129.528 189.604 129.024 189.82C128.52 190.024 127.938 190.126 127.278 190.126C126.618 190.126 126.036 190.024 125.532 189.82C125.04 189.604 124.626 189.304 124.29 188.92C123.954 188.536 123.702 188.074 123.534 187.534C123.366 186.994 123.282 186.394 123.282 185.734V184.366C123.282 183.706 123.366 183.106 123.534 182.566C123.702 182.026 123.954 181.564 124.29 181.18C124.626 180.796 125.04 180.502 125.532 180.298C126.036 180.082 126.618 179.974 127.278 179.974C127.938 179.974 128.52 180.082 129.024 180.298C129.528 180.502 129.948 180.796 130.284 181.18C130.62 181.564 130.872 182.026 131.04 182.566C131.208 183.106 131.292 183.706 131.292 184.366V185.734ZM129.708 184.366C129.708 183.442 129.516 182.71 129.132 182.17C128.748 181.63 128.13 181.36 127.278 181.36C126.438 181.36 125.826 181.63 125.442 182.17C125.058 182.698 124.866 183.43 124.866 184.366V185.734C124.866 186.658 125.052 187.39 125.424 187.93C125.808 188.47 126.426 188.74 127.278 188.74C128.118 188.74 128.73 188.476 129.114 187.948C129.51 187.408 129.708 186.67 129.708 185.734V184.366ZM141.759 188.632C141.855 188.632 141.939 188.668 142.011 188.74C142.083 188.8 142.119 188.878 142.119 188.974V191.602C142.119 191.698 142.083 191.782 142.011 191.854C141.939 191.926 141.855 191.962 141.759 191.962H140.913C140.817 191.962 140.733 191.926 140.661 191.854C140.589 191.782 140.553 191.698 140.553 191.602V190H133.749V191.602C133.749 191.698 133.713 191.782 133.641 191.854C133.569 191.926 133.485 191.962 133.389 191.962H132.543C132.447 191.962 132.363 191.926 132.291 191.854C132.219 191.782 132.183 191.698 132.183 191.602V188.974C132.183 188.878 132.219 188.8 132.291 188.74C132.363 188.668 132.447 188.632 132.543 188.632H133.137L135.225 181.342C135.297 181.066 135.399 180.844 135.531 180.676C135.675 180.496 135.831 180.358 135.999 180.262C136.167 180.154 136.341 180.082 136.521 180.046C136.713 179.998 136.893 179.974 137.061 179.974C137.229 179.974 137.403 179.992 137.583 180.028C137.763 180.064 137.937 180.136 138.105 180.244C138.273 180.34 138.423 180.478 138.555 180.658C138.699 180.826 138.807 181.048 138.879 181.324L140.931 188.632H141.759ZM134.811 188.632H139.293L137.403 181.72C137.343 181.504 137.229 181.396 137.061 181.396C136.881 181.396 136.761 181.504 136.701 181.72L134.811 188.632ZM151.724 189.64C151.724 189.736 151.688 189.82 151.616 189.892C151.544 189.964 151.46 190 151.364 190H150.5C150.404 190 150.32 189.964 150.248 189.892C150.176 189.82 150.14 189.736 150.14 189.64V185.626H145.37V189.64C145.37 189.736 145.334 189.82 145.262 189.892C145.19 189.964 145.106 190 145.01 190H144.146C144.05 190 143.966 189.964 143.894 189.892C143.822 189.82 143.786 189.736 143.786 189.64V180.46C143.786 180.364 143.822 180.28 143.894 180.208C143.966 180.136 144.05 180.1 144.146 180.1H145.01C145.106 180.1 145.19 180.136 145.262 180.208C145.334 180.28 145.37 180.364 145.37 180.46V184.276H150.14V180.46C150.14 180.364 150.176 180.28 150.248 180.208C150.32 180.136 150.404 180.1 150.5 180.1H151.364C151.46 180.1 151.544 180.136 151.616 180.208C151.688 180.28 151.724 180.364 151.724 180.46V189.64ZM161.86 185.734C161.86 186.394 161.776 186.994 161.608 187.534C161.44 188.074 161.188 188.536 160.852 188.92C160.516 189.304 160.096 189.604 159.592 189.82C159.088 190.024 158.506 190.126 157.846 190.126C157.186 190.126 156.604 190.024 156.1 189.82C155.608 189.604 155.194 189.304 154.858 188.92C154.522 188.536 154.27 188.074 154.102 187.534C153.934 186.994 153.85 186.394 153.85 185.734V184.366C153.85 183.706 153.934 183.106 154.102 182.566C154.27 182.026 154.522 181.564 154.858 181.18C155.194 180.796 155.608 180.502 156.1 180.298C156.604 180.082 157.186 179.974 157.846 179.974C158.506 179.974 159.088 180.082 159.592 180.298C160.096 180.502 160.516 180.796 160.852 181.18C161.188 181.564 161.44 182.026 161.608 182.566C161.776 183.106 161.86 183.706 161.86 184.366V185.734ZM160.276 184.366C160.276 183.442 160.084 182.71 159.7 182.17C159.316 181.63 158.698 181.36 157.846 181.36C157.006 181.36 156.394 181.63 156.01 182.17C155.626 182.698 155.434 183.43 155.434 184.366V185.734C155.434 186.658 155.62 187.39 155.992 187.93C156.376 188.47 156.994 188.74 157.846 188.74C158.686 188.74 159.298 188.476 159.682 187.948C160.078 187.408 160.276 186.67 160.276 185.734V184.366ZM170.787 176.284C170.751 176.704 170.643 177.076 170.463 177.4C170.295 177.712 170.073 177.976 169.797 178.192C169.533 178.396 169.227 178.552 168.879 178.66C168.543 178.768 168.201 178.822 167.853 178.822C167.505 178.822 167.157 178.768 166.809 178.66C166.473 178.552 166.167 178.396 165.891 178.192C165.627 177.976 165.405 177.712 165.225 177.4C165.057 177.076 164.955 176.704 164.919 176.284C164.907 176.212 164.913 176.146 164.937 176.086C164.961 176.014 165.021 175.978 165.117 175.978H165.783C165.951 175.978 166.041 176.074 166.053 176.266C166.077 176.506 166.143 176.716 166.251 176.896C166.371 177.076 166.509 177.226 166.665 177.346C166.833 177.466 167.019 177.556 167.223 177.616C167.427 177.676 167.637 177.706 167.853 177.706C168.069 177.706 168.279 177.676 168.483 177.616C168.687 177.556 168.867 177.466 169.023 177.346C169.191 177.226 169.329 177.076 169.437 176.896C169.557 176.716 169.629 176.506 169.653 176.266C169.665 176.074 169.755 175.978 169.923 175.978H170.589C170.685 175.978 170.745 176.014 170.769 176.086C170.793 176.146 170.799 176.212 170.787 176.284ZM163.983 189.478V180.442C163.983 180.214 164.091 180.1 164.307 180.1H165.243C165.339 180.1 165.417 180.13 165.477 180.19C165.537 180.238 165.567 180.322 165.567 180.442V187.498C165.567 187.522 165.573 187.54 165.585 187.552C165.597 187.552 165.609 187.54 165.621 187.516L169.815 180.46C169.911 180.292 170.007 180.19 170.103 180.154C170.211 180.118 170.361 180.1 170.553 180.1H171.489C171.657 180.1 171.771 180.136 171.831 180.208C171.891 180.268 171.921 180.4 171.921 180.604V189.64C171.921 189.748 171.891 189.838 171.831 189.91C171.771 189.97 171.693 190 171.597 190H170.661C170.565 190 170.487 189.97 170.427 189.91C170.367 189.838 170.337 189.754 170.337 189.658V182.638C170.337 182.554 170.313 182.548 170.265 182.62L166.089 189.712C166.017 189.844 165.939 189.928 165.855 189.964C165.771 189.988 165.657 190 165.513 190H164.505C164.361 190 164.235 189.952 164.127 189.856C164.031 189.748 163.983 189.622 163.983 189.478ZM187.621 188.632C187.717 188.632 187.801 188.668 187.873 188.74C187.945 188.8 187.981 188.878 187.981 188.974V191.602C187.981 191.698 187.945 191.782 187.873 191.854C187.801 191.926 187.717 191.962 187.621 191.962H186.775C186.679 191.962 186.595 191.926 186.523 191.854C186.451 191.782 186.415 191.698 186.415 191.602V190H179.611V191.602C179.611 191.698 179.575 191.782 179.503 191.854C179.431 191.926 179.347 191.962 179.251 191.962H178.405C178.309 191.962 178.225 191.926 178.153 191.854C178.081 191.782 178.045 191.698 178.045 191.602V188.974C178.045 188.878 178.081 188.8 178.153 188.74C178.225 188.668 178.309 188.632 178.405 188.632H178.999L181.087 181.342C181.159 181.066 181.261 180.844 181.393 180.676C181.537 180.496 181.693 180.358 181.861 180.262C182.029 180.154 182.203 180.082 182.383 180.046C182.575 179.998 182.755 179.974 182.923 179.974C183.091 179.974 183.265 179.992 183.445 180.028C183.625 180.064 183.799 180.136 183.967 180.244C184.135 180.34 184.285 180.478 184.417 180.658C184.561 180.826 184.669 181.048 184.741 181.324L186.793 188.632H187.621ZM180.673 188.632H185.155L183.265 181.72C183.205 181.504 183.091 181.396 182.923 181.396C182.743 181.396 182.623 181.504 182.563 181.72L180.673 188.632ZM196.681 185.158C196.681 185.422 196.567 185.554 196.339 185.554H190.309V185.806C190.309 186.874 190.519 187.63 190.939 188.074C191.359 188.518 191.983 188.74 192.811 188.74C193.339 188.74 193.897 188.722 194.485 188.686C195.085 188.65 195.595 188.602 196.015 188.542C196.123 188.518 196.213 188.53 196.285 188.578C196.357 188.614 196.393 188.686 196.393 188.794V189.406C196.393 189.526 196.369 189.622 196.321 189.694C196.273 189.754 196.177 189.796 196.033 189.82C195.517 189.916 195.001 189.988 194.485 190.036C193.981 190.096 193.423 190.126 192.811 190.126C192.295 190.126 191.791 190.06 191.299 189.928C190.807 189.784 190.369 189.55 189.985 189.226C189.613 188.89 189.307 188.446 189.067 187.894C188.839 187.342 188.725 186.646 188.725 185.806V184.186C188.725 182.89 189.067 181.864 189.751 181.108C190.435 180.352 191.425 179.974 192.721 179.974C193.381 179.974 193.957 180.076 194.449 180.28C194.941 180.472 195.349 180.754 195.673 181.126C196.009 181.486 196.261 181.93 196.429 182.458C196.597 182.974 196.681 183.55 196.681 184.186V185.158ZM195.079 184.186C195.079 183.166 194.881 182.44 194.485 182.008C194.101 181.576 193.513 181.36 192.721 181.36C191.941 181.36 191.341 181.588 190.921 182.044C190.513 182.5 190.309 183.214 190.309 184.186V184.348H195.079V184.186ZM206.778 189.64C206.778 189.736 206.742 189.82 206.67 189.892C206.598 189.964 206.514 190 206.418 190H205.554C205.458 190 205.374 189.964 205.302 189.892C205.23 189.82 205.194 189.736 205.194 189.64V185.626H200.424V189.64C200.424 189.736 200.388 189.82 200.316 189.892C200.244 189.964 200.16 190 200.064 190H199.2C199.104 190 199.02 189.964 198.948 189.892C198.876 189.82 198.84 189.736 198.84 189.64V180.46C198.84 180.364 198.876 180.28 198.948 180.208C199.02 180.136 199.104 180.1 199.2 180.1H200.064C200.16 180.1 200.244 180.136 200.316 180.208C200.388 180.28 200.424 180.364 200.424 180.46V184.276H205.194V180.46C205.194 180.364 205.23 180.28 205.302 180.208C205.374 180.136 205.458 180.1 205.554 180.1H206.418C206.514 180.1 206.598 180.136 206.67 180.208C206.742 180.28 206.778 180.364 206.778 180.46V189.64ZM217.059 187.102C217.059 187.666 216.945 188.14 216.717 188.524C216.489 188.908 216.171 189.22 215.763 189.46C215.355 189.7 214.869 189.874 214.305 189.982C213.753 190.078 213.153 190.126 212.505 190.126C211.977 190.126 211.461 190.114 210.957 190.09C210.453 190.078 210.051 190.054 209.751 190.018C209.571 189.994 209.439 189.946 209.355 189.874C209.271 189.802 209.229 189.682 209.229 189.514V180.46C209.229 180.364 209.265 180.28 209.337 180.208C209.409 180.136 209.493 180.1 209.589 180.1H210.453C210.549 180.1 210.633 180.136 210.705 180.208C210.777 180.28 210.813 180.364 210.813 180.46V183.97C211.077 183.958 211.353 183.952 211.641 183.952C211.929 183.94 212.217 183.934 212.505 183.934C213.153 183.934 213.753 183.988 214.305 184.096C214.869 184.192 215.355 184.36 215.763 184.6C216.171 184.84 216.489 185.152 216.717 185.536C216.945 185.92 217.059 186.394 217.059 186.958V187.102ZM215.457 186.958C215.457 186.346 215.199 185.92 214.683 185.68C214.167 185.428 213.423 185.302 212.451 185.302C212.175 185.302 211.899 185.308 211.623 185.32C211.347 185.332 211.077 185.344 210.813 185.356V188.704C211.077 188.716 211.347 188.728 211.623 188.74C211.899 188.752 212.175 188.758 212.451 188.758C213.423 188.758 214.167 188.638 214.683 188.398C215.199 188.146 215.457 187.714 215.457 187.102V186.958Z" fill="#828282"/>
<circle cx="120.5" cy="97.5" r="51.5" fill="white"/>
<path fill-rule="evenodd" clip-rule="evenodd" d="M135.44 34.9373H145.983C151.512 34.9373 155.936 39.4334 156.009 45.0352C156.009 50.5633 151.512 55.0594 145.983 55.0594H135.514C133.229 55.0594 131.164 56.5336 130.354 58.6711L126.962 67V55.0594H118.853H116.641C111.112 55.0594 106.614 50.5633 106.614 45.0352C106.614 39.5071 111.112 35.011 116.641 35.011H119C121.064 35.011 122.76 33.3157 122.76 31.2519C122.76 29.1881 121.064 27.4928 119 27.4928H93.7127C86.1191 27.4928 80 21.3751 80 13.7833C80 6.19142 86.1191 0.0737074 93.7127 0H144.287C151.881 0 158 6.11771 158 13.7096C158 21.3014 151.881 27.4191 144.287 27.4191H135.44C133.376 27.4191 131.681 29.1144 131.681 31.1782C131.681 33.242 133.376 34.9373 135.44 34.9373ZM143.08 83.037C143.528 83.037 143.977 83.037 144.425 83.1111C148.911 83.7037 152.425 87.3333 152.948 91.7037C153.546 97.5556 148.911 102.519 143.155 102.519C141.734 102.519 140.388 102.222 139.192 101.704C136.052 100.296 132.389 102.444 131.941 105.852L128.95 128H107.121L101.588 86.4444H98V72H99.6447H136.351H137.996V78.2222C137.996 80.963 140.314 83.037 143.08 83.037ZM137.697 92.7407C137.697 95.7037 140.089 98.0741 143.08 98.0741C146.07 98.0741 148.462 95.7037 148.462 92.7407C148.462 89.7778 146.07 87.4074 143.08 87.4074C140.089 87.4074 137.697 89.7778 137.697 92.7407Z" fill="#E0E0E0"/>
</svg>
