<svg width="22" height="22" viewBox="0 0 22 22" fill="none" xmlns="http://www.w3.org/2000/svg">
<path fill-rule="evenodd" clip-rule="evenodd" d="M15.502 4.51685L7.18142 2.95518C6.84397 2.90425 6.49993 2.9863 6.22179 3.18405C5.94366 3.3818 5.75315 3.6798 5.69041 4.01525L5.54639 4.78259L16.4094 6.82143L16.5534 6.05409C16.6178 5.71082 16.5433 5.35601 16.3461 5.06772C16.1489 4.77943 15.8453 4.58128 15.502 4.51685ZM6.76329 17.5764L5.6345 8.52729C5.62906 8.4802 5.63384 8.43249 5.64854 8.38742C5.66323 8.34235 5.68748 8.30099 5.71963 8.26616C5.75179 8.23132 5.79108 8.20384 5.83484 8.1856C5.87859 8.16735 5.92576 8.15877 5.97314 8.16044H16.3203C16.3645 8.16393 16.4075 8.1763 16.4468 8.19681C16.4861 8.21733 16.5208 8.24555 16.5489 8.27981C16.577 8.31406 16.5979 8.35364 16.6103 8.39616C16.6228 8.43869 16.6265 8.48329 16.6213 8.52729L15.4925 17.5764C15.4466 17.953 15.2642 18.2997 14.98 18.551C14.6957 18.8023 14.3293 18.9408 13.9499 18.9403H8.30596C7.92655 18.9408 7.5601 18.8023 7.27586 18.551C6.99162 18.2997 6.80928 17.953 6.76329 17.5764Z" fill="#1B6EBE"/>
</svg>
