<svg width="7" height="13" viewBox="0 0 7 13" fill="none" xmlns="http://www.w3.org/2000/svg">
<path fill-rule="evenodd" clip-rule="evenodd" d="M1.5 10C2.32843 10 3 10.6716 3 11.5C3 12.3284 2.32843 13 1.5 13C0.671573 13 0 12.3284 0 11.5C0 10.6716 0.671573 10 1.5 10ZM1.5 5C2.32843 5 3 5.67157 3 6.5C3 7.32843 2.32843 8 1.5 8C0.671573 8 0 7.32843 0 6.5C0 5.67157 0.671573 5 1.5 5ZM3 1.5C3 0.671573 2.32843 0 1.5 0C0.671573 0 0 0.671573 0 1.5C0 2.32843 0.671573 3 1.5 3C2.32843 3 3 2.32843 3 1.5Z" fill="#1B6EBE"/>
<path fill-rule="evenodd" clip-rule="evenodd" d="M5.5 10C6.32843 10 7 10.6716 7 11.5C7 12.3284 6.32843 13 5.5 13C4.67157 13 4 12.3284 4 11.5C4 10.6716 4.67157 10 5.5 10ZM5.5 5C6.32843 5 7 5.67157 7 6.5C7 7.32843 6.32843 8 5.5 8C4.67157 8 4 7.32843 4 6.5C4 5.67157 4.67157 5 5.5 5ZM7 1.5C7 0.671573 6.32843 0 5.5 0C4.67157 0 4 0.671573 4 1.5C4 2.32843 4.67157 3 5.5 3C6.32843 3 7 2.32843 7 1.5Z" fill="#1B6EBE"/>
</svg>
