<svg width="12" height="17" viewBox="0 0 12 17" fill="none" xmlns="http://www.w3.org/2000/svg">
    <path fill-rule="evenodd" clip-rule="evenodd" d="M10.502 2.51685L2.18142 0.955184C1.84397 0.904251 1.49993 0.986303 1.22179 1.18405C0.943657 1.3818 0.753146 1.6798 0.690407 2.01525L0.546387 2.78259L11.4094 4.82143L11.5534 4.05409C11.6178 3.71082 11.5433 3.35601 11.3461 3.06772C11.1489 2.77943 10.8453 2.58128 10.502 2.51685ZM1.76329 15.5764L0.634504 6.52729C0.629057 6.4802 0.633844 6.43249 0.648536 6.38742C0.663229 6.34235 0.687481 6.30099 0.719634 6.26616C0.751787 6.23132 0.791083 6.20384 0.834836 6.1856C0.878588 6.16735 0.925765 6.15877 0.973139 6.16044H11.3203C11.3645 6.16393 11.4075 6.1763 11.4468 6.19681C11.4861 6.21733 11.5208 6.24555 11.5489 6.27981C11.577 6.31406 11.5979 6.35364 11.6103 6.39616C11.6228 6.43869 11.6265 6.48329 11.6213 6.52729L10.4925 15.5764C10.4466 15.953 10.2642 16.2997 9.97997 16.551C9.69573 16.8023 9.32928 16.9408 8.94987 16.9403H3.30596C2.92655 16.9408 2.5601 16.8023 2.27586 16.551C1.99162 16.2997 1.80928 15.953 1.76329 15.5764Z" fill="#BDBDBD"/>
</svg>